<svg width="349" height="340" viewBox="0 0 349 340" fill="none" xmlns="http://www.w3.org/2000/svg">
<path fill-rule="evenodd" clip-rule="evenodd" d="M-30.7142 203.364C-45.3624 177.539 -76.7228 159.887 -78.9278 130.281C-81.1378 100.608 -54.1663 77.853 -42.0869 50.6672C-28.3973 19.8577 -33.1276 -25.7129 -2.94568 -40.723C27.8129 -56.0199 61.4761 -19.9242 95.7735 -17.8939C127.234 -16.0315 158.037 -39.2476 187.985 -29.4203C219.165 -19.1888 241.218 8.54721 259.475 35.8238C278.519 64.2778 299.858 96.4844 294.93 130.361C290.029 164.052 257.99 185.956 234.108 210.207C214.996 229.616 189.977 239.951 169.417 257.819C142.971 280.803 130.47 324.978 95.8477 330.37C62.3262 335.59 31.6522 307.044 7.69578 283.003C-13.4679 261.765 -15.9215 229.445 -30.7142 203.364Z" fill="#6C4DE1" fill-opacity="0.1"/>
</svg>
