<svg width="19" height="19" viewBox="0 0 19 19" fill="none" xmlns="http://www.w3.org/2000/svg">
    <path d="M0.521974 17.9215C0.121581 17.5211 0.121581 16.872 0.521974 16.4716L16.4714 0.522127C16.8718 0.121734 17.521 0.121734 17.9214 0.522127C18.3218 0.92252 18.3218 1.57168 17.9214 1.97208L1.97193 17.9215C1.57153 18.3219 0.922367 18.3219 0.521974 17.9215Z" fill="#5B5FF0"/>
    <path d="M0.521975 1.97208C0.121582 1.57169 0.121581 0.92252 0.521974 0.522127C0.922367 0.121734 1.57153 0.121734 1.97193 0.522127L17.9214 16.4716C18.3218 16.872 18.3218 17.5211 17.9214 17.9215C17.521 18.3219 16.8718 18.3219 16.4714 17.9215L0.521975 1.97208Z" fill="#5B5FF0"/>
</svg>
