<svg width="103" height="198" viewBox="0 0 103 198" fill="none" xmlns="http://www.w3.org/2000/svg">
<path d="M75.8779 48.242C76.8859 50.175 77.4575 52.3782 77.4575 54.7061V182.991C77.4575 190.733 71.1805 197 63.4484 197H15.0091C7.27706 197.01 1 190.733 1 182.991V54.7061C1 46.9637 7.27706 40.697 15.0091 40.697H63.4484C65.1944 40.697 66.8676 41.0192 68.4161 41.6012" stroke="#283542" stroke-width="2" stroke-miterlimit="10"/>
<path d="M61.7233 53.0226C59.1668 51.4741 56.1945 50.5803 53.004 50.5803H28.5505C19.0829 50.5803 11.4029 58.4578 11.4029 68.1852V73.953C11.4029 75.6678 12.0057 77.3618 13.1904 78.5985C15.747 81.2797 17.4201 86.6319 17.4201 90.1029C17.4201 93.4182 15.8924 97.1802 13.523 99.4042C12.1512 100.693 11.4133 102.532 11.4133 104.413V163.401C11.4133 173.129 19.0933 181.006 28.5609 181.006H53.0144C62.482 181.006 70.162 173.129 70.162 163.401V105.006C70.162 103.073 69.4138 101.181 68.0108 99.8615C65.3711 97.3881 63.2302 93.0128 63.2302 89.6872C63.2302 86.3617 65.3711 81.789 68.0108 79.2324C69.3514 77.9333 70.162 76.1874 70.162 74.3272V68.1748C70.162 65.5143 69.5904 62.9993 68.5616 60.7338" stroke="#283542" stroke-width="2" stroke-miterlimit="10"/>
<path d="M53.646 92.9264C54.7185 88.3674 51.8922 83.8022 47.3333 82.7297C42.7744 81.6572 38.2091 84.4835 37.1366 89.0424C36.0641 93.6014 38.8904 98.1666 43.4493 99.2391C48.0083 100.312 52.5735 97.4853 53.646 92.9264Z" fill="#BDE2E7"/>
<path d="M53.4509 83.4208C55.3112 85.3954 56.444 88.0559 56.444 90.9762C56.444 97.0766 51.4972 102.023 45.3968 102.023C39.2964 102.023 34.3495 97.0766 34.3495 90.9762C34.3495 84.8758 39.2964 79.929 45.3968 79.929C46.1554 79.929 46.8933 80.0017 47.6 80.1472" stroke="#283542" stroke-width="1.8456" stroke-miterlimit="10"/>
<path fill-rule="evenodd" clip-rule="evenodd" d="M56.34 120.709V149.694C56.34 155.742 51.4348 160.637 45.3967 160.637C39.3483 160.637 34.4534 155.732 34.4534 149.694V120.709C34.4534 114.66 39.3587 109.766 45.3967 109.766C51.4451 109.766 56.34 114.671 56.34 120.709Z" stroke="#283542" stroke-width="2" stroke-miterlimit="10" stroke-linecap="round" stroke-linejoin="round"/>
<path d="M50.2708 121.249V149.163C50.2708 151.595 48.3066 153.559 45.8748 153.559H45.1785C42.7467 153.559 40.7825 151.595 40.7825 149.163V121.249C40.7825 118.817 42.7467 116.853 45.1785 116.853H45.8748C48.3066 116.842 50.2708 118.817 50.2708 121.249Z" stroke="#283542" stroke-width="2" stroke-miterlimit="10" stroke-linecap="round" stroke-linejoin="round"/>
<path d="M19.4363 125.708H28.5089" stroke="#283542" stroke-width="2" stroke-miterlimit="10" stroke-linecap="round" stroke-linejoin="round"/>
<path d="M19.4363 133.845H28.5089" stroke="#283542" stroke-width="2" stroke-miterlimit="10" stroke-linecap="round" stroke-linejoin="round"/>
<path d="M19.4363 141.982H28.5089" stroke="#283542" stroke-width="2" stroke-miterlimit="10" stroke-linecap="round" stroke-linejoin="round"/>
<path fill-rule="evenodd" clip-rule="evenodd" d="M88.141 34.077L74.7451 26.2306L87.268 4.84291C89.4296 1.14319 94.1894 -0.103913 97.8891 2.06812C101.589 4.22975 102.836 8.98951 100.664 12.6892L88.141 34.077Z" stroke="#283542" stroke-width="1.8456" stroke-miterlimit="10" stroke-linecap="round" stroke-linejoin="round"/>
<path d="M85.184 32.341L76.7355 27.3953L46.3783 79.2524L54.8269 84.1981L85.184 32.341Z" stroke="#283542" stroke-width="1.8456" stroke-miterlimit="10" stroke-linecap="round" stroke-linejoin="round"/>
<path fill-rule="evenodd" clip-rule="evenodd" d="M43.1311 94.3638C41.5203 93.4181 40.9799 91.35 41.9256 89.7391L47.631 79.991L53.4612 83.3997L47.7558 93.1478C46.81 94.7691 44.7419 95.3095 43.1311 94.3638Z" stroke="#283542" stroke-width="0.9228" stroke-miterlimit="10" stroke-linecap="round" stroke-linejoin="round"/>
</svg>
