<svg width="74" height="50" viewBox="0 0 74 50" fill="none" xmlns="http://www.w3.org/2000/svg">
<path d="M42.0933 43.2286C42.0933 46.6251 44.8722 49.4041 48.2688 49.4041C51.6653 49.4041 54.4443 46.6251 54.4443 43.2286V9.26331H42.0933V43.2286ZM45.181 17.4973H51.3565V28.8191H45.181V17.4973Z" fill="#006AB7"/>
<path d="M55.4735 0H41.064V7.20476H55.4735V0Z" fill="#006AB7"/>
<path d="M73.3824 19.144C72.559 18.3206 71.3239 18.3206 70.5005 19.144L63.7075 25.9371L61.0314 23.261C60.208 22.4376 58.9729 22.4376 58.1495 23.261C57.3261 24.0844 57.3261 25.3195 58.1495 26.1429L62.2665 30.26C63.0899 31.0834 64.325 31.0834 65.1484 30.26L73.3824 22.0259C74.2059 21.2025 74.2059 19.9674 73.3824 19.144Z" fill="#006AB7"/>
<path d="M17.2036 28.2654C22.5796 28.2654 27.0341 23.8109 27.0341 18.4349C27.0341 13.0588 22.5796 8.60437 17.2036 8.60437C11.8275 8.60437 7.37305 13.0588 7.37305 18.4349C7.37305 23.8109 11.6739 28.2654 17.2036 28.2654Z" fill="#006AB7"/>
<path d="M26.7267 30.7231H7.68009C3.37924 30.7231 0 34.1024 0 38.4032V47.9265C0 48.6945 0.768009 49.4626 1.53602 49.4626H32.8708C33.6388 49.4626 34.4068 48.6945 34.4068 47.9265V38.4032C34.4068 34.1024 31.0275 30.7231 26.7267 30.7231Z" fill="#006AB7"/>
</svg>
