<svg width="139" height="33" viewBox="0 0 139 33" fill="none" xmlns="http://www.w3.org/2000/svg">
<path fill-rule="evenodd" clip-rule="evenodd" d="M61.1882 0.0422875C60.1642 0.197492 59.1861 0.803415 58.6532 1.61263C58.2765 2.18463 58.1622 2.58011 58.1574 3.32861C58.1534 3.95538 58.1605 3.99593 58.3374 4.35829C58.6615 5.02187 59.2812 5.4978 60.0237 5.65334C60.4973 5.75253 61.6082 5.6922 62.0186 5.54493C63.6574 4.9569 64.6645 3.46529 64.4261 1.97884C64.3079 1.24173 63.8663 0.617169 63.2357 0.29509C62.7313 0.0374727 61.8983 -0.065393 61.1882 0.0422875ZM79.482 1.96241C79.482 1.99039 79.178 3.74285 78.8065 5.85669C78.4349 7.97048 78.1251 9.73625 78.118 9.78055C78.1109 9.82484 77.9939 9.68793 77.8582 9.47631C77.2427 8.51699 76.1791 7.78968 74.9015 7.45446C74.453 7.33681 74.2683 7.32174 73.2716 7.32134C71.703 7.32078 70.9848 7.48759 69.6185 8.1697C66.8014 9.57618 64.7373 12.6206 64.1644 16.2141C63.9616 17.4856 63.9646 19.0378 64.1717 20.0611C64.6593 22.4712 66.2607 24.2557 68.4548 24.8339C69.1361 25.0135 70.4896 25.0768 71.2939 24.9667C72.8736 24.7506 74.3223 24.0083 75.4776 22.823C75.7017 22.5931 75.885 22.4205 75.885 22.4394C75.885 22.4584 75.7965 22.9799 75.6883 23.5983C75.5801 24.2166 75.4916 24.7391 75.4916 24.7591C75.4916 24.7792 76.6739 24.7955 78.1191 24.7953L80.7465 24.795L82.7324 13.4523C83.8247 7.21389 84.7305 2.06511 84.7455 2.01056C84.771 1.91715 84.6195 1.91143 82.1272 1.91143C80.598 1.91143 79.482 1.93296 79.482 1.96241ZM88.8677 3.72529C88.8677 3.79077 88.2098 7.59199 88.1647 7.78713C88.1358 7.91214 88.1236 7.91356 86.9708 7.92874L85.8061 7.94403L85.6842 8.59544C85.6171 8.95371 85.5457 9.35515 85.5254 9.48758L85.4887 9.72832H86.6443C87.2798 9.72832 87.7999 9.74464 87.7999 9.76463C87.7999 9.78457 87.3803 12.187 86.8674 15.1033C86.3545 18.0197 85.9102 20.6606 85.8801 20.9722C85.7335 22.4855 86.0869 23.5624 86.9199 24.1407C87.6518 24.6487 88.4534 24.7949 90.5106 24.7953L91.9567 24.7957L91.9865 24.6682C92.0327 24.4706 92.2961 23.0306 92.2961 22.9755C92.2961 22.9485 91.7207 22.926 91.0175 22.9254C89.3417 22.9241 88.8838 22.8311 88.4334 22.4004C88.1538 22.133 88.0509 21.7599 88.063 21.0571C88.0714 20.5671 88.2398 19.52 89.0197 15.1095L89.9662 9.75664L92.2797 9.74186C94.4213 9.72815 94.5953 9.71977 94.6225 9.62857C94.6479 9.54304 94.9375 7.98623 94.9375 7.9348C94.9375 7.92432 93.9006 7.91571 92.6333 7.91571C90.9709 7.91571 90.329 7.89804 90.329 7.85232C90.329 7.79149 90.9819 3.97039 91.0271 3.76653C91.0475 3.67476 90.9681 3.6674 89.9584 3.6674C89.2529 3.6674 88.8677 3.68785 88.8677 3.72529ZM132.93 3.72529C132.93 3.79077 132.272 7.59199 132.227 7.78713C132.198 7.91214 132.186 7.91356 131.033 7.92874L129.869 7.94403L129.747 8.59544C129.68 8.95371 129.608 9.35515 129.588 9.48758L129.551 9.72832H130.707C131.342 9.72832 131.862 9.74464 131.862 9.76463C131.862 9.78457 131.443 12.187 130.93 15.1033C130.417 18.0197 129.973 20.6606 129.943 20.9722C129.796 22.4855 130.149 23.5624 130.982 24.1407C131.714 24.6487 132.516 24.7949 134.573 24.7953L136.019 24.7957L136.049 24.6682C136.095 24.4706 136.358 23.0306 136.358 22.9755C136.358 22.9485 135.783 22.926 135.08 22.9254C133.404 22.9241 132.946 22.8311 132.496 22.4004C132.216 22.133 132.113 21.7599 132.125 21.0571C132.134 20.5671 132.302 19.52 133.082 15.1095L134.029 9.75664L136.342 9.74186C138.484 9.72815 138.658 9.71977 138.685 9.62857C138.71 9.54304 139 7.98623 139 7.9348C139 7.92432 137.963 7.91571 136.696 7.91571C135.033 7.91571 134.391 7.89804 134.391 7.85232C134.391 7.79149 135.044 3.97039 135.09 3.76653C135.11 3.67476 135.03 3.6674 134.021 3.6674C133.315 3.6674 132.93 3.68785 132.93 3.72529ZM21.2285 7.38416C17.6632 8.02917 14.7833 10.9582 13.721 15.0199C13.319 16.557 13.2046 18.515 13.4379 19.8677C13.8529 22.2743 15.2397 23.9944 17.3505 24.7206C17.9611 24.9306 18.6087 25.0222 19.4837 25.0222C20.7732 25.0222 21.7378 24.8076 22.7829 24.2881C23.5717 23.896 24.0803 23.5368 24.6949 22.9377C24.994 22.6461 25.2283 22.4541 25.2155 22.5111C25.1712 22.7089 24.7973 24.7149 24.7973 24.7552C24.7973 24.7774 25.9797 24.7955 27.4248 24.7953L30.0522 24.795L31.5592 16.1996C32.388 11.4721 33.0645 7.58502 33.0626 7.56168C33.0595 7.52464 27.8363 7.49637 27.8297 7.53336C27.8283 7.54112 27.7326 8.07816 27.6172 8.72674L27.4071 9.90601L27.1425 9.48504C26.8204 8.97258 26.1823 8.34955 25.6578 8.03551C25.1575 7.73598 24.4722 7.48499 23.8611 7.37759C23.2504 7.27025 21.8385 7.27376 21.2285 7.38416ZM46.6037 7.31908C46.5574 7.33007 46.3298 7.37 46.0979 7.40784C44.7998 7.61957 43.3708 8.36722 42.3309 9.3786C42.0531 9.64885 41.8259 9.84807 41.8262 9.82133C41.8264 9.7946 41.9151 9.27942 42.0233 8.6765C42.1315 8.07352 42.22 7.5665 42.22 7.54968C42.22 7.53291 41.0374 7.5192 39.5921 7.5192H36.9643L34.7418 20.25L32.5193 32.9807L35.1304 32.9955C36.5664 33.0036 37.751 33.0005 37.7628 32.9887C37.7745 32.9769 38.1975 30.6175 38.7029 27.7456C39.2083 24.8738 39.6342 22.5115 39.6495 22.4961C39.6647 22.4807 39.7413 22.5784 39.8196 22.7131C40.3883 23.691 41.577 24.5506 42.782 24.8552C43.1321 24.9437 43.5081 24.984 44.1896 25.006C45.7118 25.0553 46.7015 24.8412 48.0369 24.1739C50.9633 22.7115 53.0233 19.6386 53.6007 15.8742C53.8214 14.4349 53.7546 12.7608 53.4308 11.6196C52.9432 9.90075 51.8105 8.53568 50.2809 7.82344C49.4812 7.45106 48.9077 7.33732 47.7278 7.31704C47.1559 7.30718 46.6501 7.30814 46.6037 7.31908ZM12.7982 7.38971C12.7054 7.40263 12.4376 7.46069 12.2029 7.51869C10.8237 7.85963 9.54171 8.6586 8.34197 9.9251C8.02633 10.2583 7.76809 10.5024 7.76809 10.4675C7.76809 10.4327 7.88189 9.76865 8.021 8.99195C8.1601 8.21524 8.2739 7.5661 8.2739 7.54945C8.2739 7.5328 7.09141 7.5192 5.64606 7.5192H3.01828L1.5382 16.03C0.724164 20.7109 0.0450741 24.5981 0.0290565 24.6682L0 24.7957H2.63565H5.27131L5.98935 20.7031C6.38428 18.4522 6.76988 16.3684 6.8462 16.0725C7.17796 14.7862 7.80113 13.927 8.73072 13.4741C9.5217 13.0887 9.96424 13.0057 11.4471 12.9645L12.7375 12.9287L13.1935 10.3231C13.4442 8.88999 13.6659 7.63458 13.6861 7.53336L13.7227 7.34927L13.3447 7.35776C13.1368 7.36241 12.8909 7.3768 12.7982 7.38971ZM56.3352 16.03C55.5212 20.7109 54.8421 24.5981 54.8261 24.6682L54.7971 24.7957H57.4326H60.0682L61.5461 16.3132C62.3589 11.6478 63.0375 7.76062 63.054 7.67497L63.0841 7.5192H60.4497H57.8153L56.3352 16.03ZM103.576 7.69174C100.192 8.04831 97.3596 10.1022 95.845 13.2969C95.1327 14.7993 94.7873 16.2557 94.7297 17.9984C94.6795 19.5191 94.8848 20.5724 95.4474 21.6802C96.3726 23.5024 98.1049 24.6583 100.373 24.9673C101.14 25.0717 102.948 25.0091 103.677 24.8529C106.47 24.2546 108.78 22.4852 110.021 19.994C110.164 19.7077 110.281 19.4601 110.281 19.4439C110.281 19.4277 109.765 19.4145 109.134 19.4145H107.987L107.781 19.824C107.056 21.2616 105.753 22.3625 104.183 22.8642C103.36 23.1269 102.971 23.1815 101.935 23.1794C101.143 23.1778 100.895 23.1563 100.489 23.0535C99.8239 22.885 99.3789 22.6893 98.8339 22.3254C97.7246 21.5848 97.0865 20.4852 96.902 18.9959C96.8367 18.4689 96.8566 17.529 96.9397 17.2195L96.9739 17.0921H103.929H110.885L110.919 16.9363C110.937 16.8506 111.03 16.4237 111.124 15.9875C111.601 13.7902 111.308 11.7614 110.295 10.2595C109.428 8.97314 107.972 8.07902 106.244 7.77132C105.64 7.66387 104.237 7.62201 103.576 7.69174ZM119.976 7.6927C117.775 7.9118 115.995 8.96476 115.254 10.4855C114.909 11.1926 114.817 11.5983 114.818 12.3906C114.82 13.4749 115.063 14.1917 115.679 14.929C116.419 15.8152 117.443 16.3804 120.06 17.3465C122.461 18.2331 123.325 18.9565 123.415 20.1568C123.515 21.4974 122.6 22.5954 120.991 23.0652C119.938 23.3728 118.498 23.3828 117.546 23.0892C116.238 22.6861 115.505 21.7981 115.412 20.5049L115.378 20.0376H114.347H113.316L113.317 20.6182C113.318 21.3655 113.427 21.8793 113.707 22.4507C114.361 23.789 115.892 24.7215 117.842 24.9688C118.605 25.0656 120.376 25.0069 121.074 24.8617C122.53 24.5582 123.654 23.9692 124.482 23.0754C125.222 22.2774 125.534 21.4427 125.533 20.2641C125.533 19.1007 125.26 18.3829 124.531 17.6291C123.836 16.9109 123.228 16.5793 120.879 15.6382C118.575 14.7149 117.95 14.3636 117.466 13.7174C116.728 12.7318 116.849 11.3545 117.752 10.4642C118.157 10.0642 118.902 9.6706 119.537 9.52055C120.211 9.36121 121.566 9.37566 122.165 9.54859C123.143 9.8309 123.94 10.4286 124.296 11.1458C124.501 11.5589 124.638 12.1912 124.602 12.5649L124.581 12.7895L125.594 12.7742L126.607 12.7588L126.6 12.0791C126.591 11.2675 126.494 10.8457 126.17 10.2098C125.905 9.69014 125.258 8.99274 124.697 8.62285C123.516 7.84462 121.815 7.50952 119.976 7.6927ZM105.785 9.68912C107.444 10.1208 108.575 11.1551 108.987 12.6181C109.144 13.1753 109.194 14.1714 109.102 14.9279L109.032 15.506H103.141H97.2497L97.3907 14.9821C97.7487 13.6519 98.3993 12.5162 99.3458 11.5693C100.191 10.7233 101.033 10.2071 102.16 9.8441C102.985 9.57822 103.546 9.50107 104.464 9.52746C105.061 9.54462 105.38 9.58365 105.785 9.68912ZM24.0386 11.9664C24.8068 12.1296 25.5229 12.6144 25.922 13.2413C26.8843 14.7527 26.3746 17.5533 24.8593 19.0804C23.5736 20.3763 21.7649 20.781 20.3624 20.0866C19.6765 19.747 19.0759 18.9839 18.875 18.1966C18.5462 16.9082 18.8878 15.1 19.683 13.9198C20.6852 12.4325 22.4686 11.6327 24.0386 11.9664ZM45.9574 11.9664C46.9753 12.1827 47.7566 12.8561 48.1134 13.8247C48.1802 14.0059 48.2641 14.3882 48.2999 14.6743C48.4215 15.6459 48.1134 17.035 47.5544 18.0356C47.2524 18.5762 46.4042 19.4615 45.8878 19.7753C44.3395 20.716 42.5655 20.6287 41.5169 19.5603C41.111 19.1467 40.9061 18.7776 40.7575 18.1918C40.4671 17.0473 40.7542 15.3568 41.4384 14.1833C41.7233 13.6947 42.6131 12.7869 43.0765 12.5121C44.009 11.9593 45.0215 11.7675 45.9574 11.9664ZM74.7329 11.9664C75.5011 12.1296 76.2172 12.6144 76.6163 13.2413C77.5786 14.7527 77.0689 17.5533 75.5536 19.0804C74.2679 20.3763 72.4592 20.781 71.0567 20.0866C70.3708 19.747 69.7702 18.9839 69.5693 18.1966C69.2405 16.9082 69.5821 15.1 70.3773 13.9198C71.3795 12.4325 73.1629 11.6327 74.7329 11.9664Z" fill="white"/>
</svg>
