<svg width="96" height="96" viewBox="0 0 96 96" fill="none" xmlns="http://www.w3.org/2000/svg">
    <circle cx="48" cy="48" r="48" fill="#F8F8FD"/>
    <path d="M47.7599 36.2373C51.1544 36.2373 53.9163 33.4928 53.9163 30.1184C53.9163 26.744 51.1544 24 47.7599 24C44.3654 24 41.6035 26.7445 41.6035 30.1189C41.6035 33.4933 44.3654 36.2373 47.7599 36.2373ZM47.7599 26.1333C49.9712 26.1333 51.7699 27.9216 51.7699 30.1189C51.7699 32.3163 49.9712 34.1045 47.7599 34.1045C45.5486 34.1045 43.7499 32.3163 43.7499 30.1189C43.7499 27.9216 45.5486 26.1333 47.7599 26.1333Z" fill="#5B5FF0"/>
    <path d="M60.8161 39.3179C64.2106 39.3179 66.9725 36.5733 66.9725 33.1989C66.9725 29.8245 64.2106 27.08 60.8161 27.08C57.4215 27.08 54.6597 29.8245 54.6597 33.1989C54.6597 36.5733 57.4215 39.3179 60.8161 39.3179ZM60.8161 29.2133C63.0274 29.2133 64.8261 31.0016 64.8261 33.1989C64.8261 35.3963 63.0268 37.1845 60.8161 37.1845C58.6053 37.1845 56.8061 35.3963 56.8061 33.1989C56.8061 31.0016 58.6047 29.2133 60.8161 29.2133Z" fill="#5B5FF0"/>
    <path d="M34.7042 39.3179C38.0988 39.3179 40.8606 36.5733 40.8606 33.1989C40.8606 29.8245 38.0993 27.08 34.7042 27.08C31.3092 27.08 28.5479 29.8245 28.5479 33.1989C28.5479 36.5733 31.3097 39.3179 34.7042 39.3179ZM34.7042 29.2133C36.9156 29.2133 38.7142 31.0016 38.7142 33.1989C38.7142 35.3963 36.9156 37.1845 34.7042 37.1845C32.4929 37.1845 30.6942 35.3963 30.6942 33.1989C30.6942 31.0016 32.4929 29.2133 34.7042 29.2133Z" fill="#5B5FF0"/>
    <path d="M70 64.0565C70 61.4672 68.7411 59.1696 66.8056 57.7189V57.2229C68.4042 56.6581 69.5192 55.1435 69.5192 53.3739V44.2176C69.5192 41.968 67.6781 40.1387 65.4153 40.1387H56.335C55.8858 38.3696 54.2766 37.0549 52.3593 37.0549H43.1604C41.2442 37.0549 39.635 38.3691 39.1853 40.1365H30.1039C27.8411 40.1365 26 41.9664 26 44.2155V53.376C26 55.1424 27.1151 56.656 28.7147 57.2219V63.0235C28.7147 65.2453 30.5391 67.0533 32.7815 67.0533H36.6246C38.8671 67.0533 40.6915 65.2453 40.6915 63.0235V57.2219C41.0849 57.0827 41.4487 56.8853 41.7738 56.6416V63.0208C41.7738 65.2453 43.5967 67.0549 45.838 67.0549H49.6822C51.9231 67.0549 53.7464 65.2448 53.7464 63.0208V56.6437C54.0711 56.8869 54.4338 57.0843 54.8266 57.2229V60.5616C54.2991 61.632 54.0169 62.8213 54.0169 64.0565C54.0163 68.4363 57.6014 72 62.0079 72C66.4145 72 70 68.4363 70 64.0565ZM51.5995 53.2955V63.0208C51.5995 64.0693 50.7393 64.9216 49.6817 64.9216H45.8375C44.7799 64.9216 43.9197 64.0688 43.9197 63.0208V53.2955C43.9197 52.7488 43.5033 52.2901 42.956 52.2347C41.9563 52.1328 41.2018 51.3003 41.2018 50.2976V46.8C41.2018 46.2112 40.721 45.7333 40.1286 45.7333C39.5362 45.7333 39.0554 46.2112 39.0554 46.8V50.2976C39.0554 51.8368 39.9059 53.1845 41.1863 53.8795C40.9829 54.6464 40.3336 55.2325 39.5094 55.3152C38.9615 55.3707 38.5446 55.8293 38.5446 56.3765V63.024C38.5446 64.0699 37.6834 64.9205 36.6241 64.9205H32.781C31.7217 64.9205 30.8605 64.0699 30.8605 63.024V56.376C30.8605 55.8288 30.4436 55.3701 29.8962 55.3152C28.8987 55.2144 28.1459 54.3803 28.1459 53.376V44.2155C28.1459 43.1424 29.0243 42.2699 30.1034 42.2699H39.0554V43.7776C39.0554 44.3664 39.5362 44.8443 40.1286 44.8443C40.721 44.8443 41.2018 44.3664 41.2018 43.7776V41.1344C41.2018 40.0608 42.0802 39.1883 43.1599 39.1883H52.3593C53.439 39.1883 54.3174 40.0613 54.3174 41.1344V50.2976C54.3174 51.3003 53.5635 52.1323 52.5632 52.2347C52.0159 52.2901 51.5995 52.7483 51.5995 53.2955ZM62.0079 69.8667C58.7846 69.8667 56.1622 67.2603 56.1622 64.0565C56.1622 62.2549 56.9827 60.5851 58.4127 59.4747C58.8801 59.112 58.9627 58.4416 58.5978 57.9771C58.2329 57.5131 57.5584 57.4309 57.0916 57.7931C57.0492 57.8256 57.0132 57.864 56.9719 57.8971V56.3755C56.9719 55.8277 56.5545 55.3685 56.006 55.3141C55.184 55.232 54.5358 54.6459 54.3319 53.8784C55.6127 53.1835 56.4632 51.8357 56.4632 50.2965V42.272H65.4142C66.4939 42.272 67.3717 43.1451 67.3717 44.2176V53.3739C67.3717 54.3813 66.6205 55.2155 65.6246 55.3152C65.0762 55.3701 64.6587 55.8288 64.6587 56.3765V56.5723C63.8275 56.2805 62.9378 56.1136 62.0079 56.1136C61.3817 56.1136 60.7571 56.1861 60.1523 56.3291C59.5755 56.4651 59.2192 57.04 59.3566 57.6133C59.4934 58.1861 60.0724 58.5424 60.6487 58.4037C61.0914 58.2997 61.5486 58.2464 62.0079 58.2464C65.2313 58.2464 67.8536 60.8528 67.8536 64.0565C67.8536 67.2603 65.2313 69.8667 62.0079 69.8667Z" fill="#5B5FF0"/>
    <path d="M65.72 60.6139C65.2376 60.2725 64.5674 60.3824 64.2229 60.8624L61.2587 64.9861L59.24 62.9803C58.8209 62.5637 58.1411 62.5637 57.7225 62.9803C57.3034 63.3968 57.3034 64.072 57.7225 64.4885L60.6368 67.3851C60.8385 67.5861 61.1122 67.6976 61.3955 67.6976C61.425 67.6976 61.4546 67.6965 61.4841 67.6939C61.7985 67.6677 62.0856 67.5056 62.2686 67.2507L65.969 62.1019C66.314 61.6229 66.2024 60.9568 65.72 60.6139Z" fill="#5B5FF0"/>
</svg>
