<svg width="96" height="96" viewBox="0 0 96 96" fill="none" xmlns="http://www.w3.org/2000/svg">
    <circle cx="48" cy="48" r="48" fill="#F8F8FD"/>
    <path d="M25.0887 68.3141C24.4877 68.3141 24 68.8038 24 69.4071C24 70.0104 24.4877 70.5 25.0887 70.5H42.6359H51.7833H69.3305C69.9315 70.5 70.4192 70.0104 70.4192 69.4071C70.4192 68.8038 69.9315 68.3141 69.3305 68.3141H65.661V65.5643C65.661 65.5047 65.6528 65.4474 65.6436 65.3905C69.3261 64.2003 72 60.7313 72 56.6438C72 52.5562 69.3261 49.0867 65.6436 47.8964C65.6528 47.8391 65.661 47.7811 65.661 47.721V32.2702H66.5129C67.6376 32.2702 68.5526 31.3516 68.5526 30.2226V27.5476C68.5526 26.4186 67.6376 25.5 66.5129 25.5H27.9063C26.7822 25.5 25.8671 26.4186 25.8671 27.5476V30.2226C25.8671 31.3516 26.7822 32.2702 27.9063 32.2702H28.7587V68.3141H25.0887ZM28.0445 27.6864H66.3757V30.0849H28.0445V27.6864ZM50.6946 68.3136H43.7246V61.574H50.6946V68.3136ZM69.8226 56.6438C69.8226 60.5056 66.6931 63.6473 62.8462 63.6473C58.9992 63.6473 55.8692 60.5051 55.8692 56.6438C55.8686 52.7819 58.9987 49.6397 62.8456 49.6397C66.6926 49.6397 69.8226 52.7819 69.8226 56.6438ZM54.0935 53.9524C54.0407 53.9448 53.9884 53.936 53.9335 53.936H52.7794V48.9948H56.204V49.4615C56.204 49.7047 56.2856 49.9266 56.4195 50.1085C55.3537 51.1649 54.5437 52.4797 54.0935 53.9524ZM62.8456 47.4538C61.2245 47.4538 59.7036 47.8833 58.3814 48.6282V47.9019C58.3814 47.2986 57.8936 46.809 57.2927 46.809H51.6907C51.0898 46.809 50.602 47.2986 50.602 47.9019V55.0289C50.602 55.6322 51.0898 56.1219 51.6907 56.1219H53.7173C53.7075 56.2957 53.6912 56.4673 53.6912 56.6438C53.6912 61.7106 57.7978 65.8332 62.8456 65.8332C63.0612 65.8332 63.2718 65.8157 63.4836 65.8009V68.3136H52.872V60.4811C52.872 59.8778 52.3842 59.3881 51.7833 59.3881H42.6359C42.035 59.3881 41.5472 59.8778 41.5472 60.4811V68.3136H30.9362V32.2729H63.4836V47.4866C63.2718 47.4713 63.0612 47.4538 62.8456 47.4538Z" fill="#5B5FF0"/>
    <path d="M42.7295 34.6736H37.1292C36.5283 34.6736 36.0405 35.1632 36.0405 35.7665V42.8903C36.0405 43.4936 36.5283 43.9832 37.1292 43.9832H42.7295C43.3305 43.9832 43.8183 43.4936 43.8183 42.8903V35.7665C43.8183 35.1626 43.3311 34.6736 42.7295 34.6736ZM41.6408 41.7968H38.2179V36.8589H41.6408V41.7968Z" fill="#5B5FF0"/>
    <path d="M57.2906 34.6736H51.6903C51.0893 34.6736 50.6016 35.1632 50.6016 35.7665V42.8903C50.6016 43.4936 51.0893 43.9832 51.6903 43.9832H57.2906C57.8915 43.9832 58.3793 43.4936 58.3793 42.8903V35.7665C58.3793 35.1626 57.8921 34.6736 57.2906 34.6736ZM56.2019 41.7968H52.779V36.8589H56.2019V41.7968Z" fill="#5B5FF0"/>
    <path d="M42.7295 46.8112H37.1292C36.5283 46.8112 36.0405 47.3008 36.0405 47.9041V55.0273C36.0405 55.6306 36.5283 56.1202 37.1292 56.1202H42.7295C43.3305 56.1202 43.8183 55.6306 43.8183 55.0273V47.9041C43.8183 47.3002 43.3311 46.8112 42.7295 46.8112ZM41.6408 53.9344H38.2179V48.997H41.6408V53.9344Z" fill="#5B5FF0"/>
    <path d="M59.6224 55.7306C59.1973 55.3038 58.5082 55.3038 58.083 55.7306C57.6579 56.1574 57.6579 56.8492 58.083 57.2766L61.2767 60.4832C61.4814 60.6887 61.759 60.8035 62.0465 60.8035C62.0764 60.8035 62.1058 60.8024 62.1363 60.7997C62.4553 60.7734 62.7465 60.6073 62.9327 60.3455L67.2962 54.2131C67.6457 53.7218 67.5324 53.0393 67.0425 52.6884C66.5548 52.3365 65.8738 52.4513 65.5238 52.9425L61.9076 58.0252L59.6224 55.7306Z" fill="#5B5FF0"/>
</svg>
