<svg width="48" height="48" viewBox="0 0 48 48" fill="none" xmlns="http://www.w3.org/2000/svg">
    <path fill-rule="evenodd" clip-rule="evenodd" d="M35.6899 11.2774C36.077 11.6737 36.1056 12.3483 35.7536 12.7842L31.0168 18.6509C30.8425 18.8667 30.5973 18.9928 30.3383 18.9997C30.0793 19.0066 29.8291 18.8938 29.6459 18.6876L27.2775 16.0209C26.9075 15.6044 26.9075 14.929 27.2775 14.5124C27.6474 14.0959 28.2473 14.0959 28.6173 14.5124L30.2831 16.3881L34.3516 11.3492C34.7036 10.9133 35.3027 10.8811 35.6899 11.2774Z" fill="#5B5FF0"/>
    <circle cx="21" cy="21" r="5" stroke="#5B5FF0" stroke-width="2"/>
    <path fill-rule="evenodd" clip-rule="evenodd" d="M21 27C17.134 27 14 30.134 14 34C14 34.5523 13.5523 35 13 35C12.4477 35 12 34.5523 12 34C12 29.0294 16.0294 25 21 25C25.9706 25 30 29.0294 30 34C30 34.5523 29.5523 35 29 35C28.4477 35 28 34.5523 28 34C28 30.134 24.866 27 21 27Z" fill="#5B5FF0"/>
</svg>
