<svg width="48" height="48" viewBox="0 0 48 48" fill="none" xmlns="http://www.w3.org/2000/svg">
    <path d="M29.3284 17.6716C28.8905 17.2337 28.8905 16.5237 29.3284 16.0858L34.0858 11.3285C34.5237 10.8906 35.2337 10.8906 35.6716 11.3285C36.1095 11.7664 36.1095 12.4763 35.6716 12.9142L30.9142 17.6716C30.4763 18.1095 29.7663 18.1095 29.3284 17.6716Z" fill="#5B5FF0"/>
    <path d="M29.3284 12.9142C28.8905 12.4763 28.8905 11.7664 29.3284 11.3285C29.7663 10.8906 30.4763 10.8906 30.9142 11.3285L35.6716 16.0858C36.1095 16.5237 36.1095 17.2337 35.6716 17.6716C35.2337 18.1095 34.5237 18.1095 34.0858 17.6716L29.3284 12.9142Z" fill="#5B5FF0"/>
    <circle cx="21" cy="21" r="5" stroke="#5B5FF0" stroke-width="2"/>
    <path fill-rule="evenodd" clip-rule="evenodd" d="M21 27C17.134 27 14 30.134 14 34C14 34.5523 13.5523 35 13 35C12.4477 35 12 34.5523 12 34C12 29.0294 16.0294 25 21 25C25.9706 25 30 29.0294 30 34C30 34.5523 29.5523 35 29 35C28.4477 35 28 34.5523 28 34C28 30.134 24.866 27 21 27Z" fill="#5B5FF0"/>
</svg>
