<svg width="48" height="48" viewBox="0 0 48 48" fill="none" xmlns="http://www.w3.org/2000/svg">
    <path d="M30.2984 11C29.7436 11 29.2939 11.4504 29.2939 12.006C29.2939 12.5616 29.7436 13.012 30.2984 13.012L33.5556 13.012L23.2942 23.2826C22.9019 23.6755 22.9019 24.3125 23.2942 24.7053C23.6865 25.0982 24.3225 25.0982 24.7148 24.7053L34.991 14.42V17.7117C34.991 18.2673 35.4407 18.7177 35.9955 18.7177C36.5503 18.7177 37 18.2673 37 17.7117V12.006C37 11.4504 36.5503 11 35.9955 11L30.2984 11Z" fill="#5B5FF0"/>
    <path fill-rule="evenodd" clip-rule="evenodd" d="M13 14H25C25.5523 14 26 14.4477 26 15C26 15.5523 25.5523 16 25 16H15V33H32V24C32 23.4477 32.4477 23 33 23C33.5523 23 34 23.4477 34 24V35H13V14Z" fill="#5B5FF0"/>
</svg>
