<svg width="40" height="40" viewBox="0 0 40 40" fill="none" xmlns="http://www.w3.org/2000/svg">
    <path fill-rule="evenodd" clip-rule="evenodd" d="M19.9448 11.752C21.1351 9.93356 23.5336 9.45176 25.301 10.6802C27.0662 11.9071 27.5301 14.3734 26.3412 16.1897L18.5237 28.1322C18.4287 28.2774 18.2882 28.3851 18.1255 28.4374L13.3785 29.9647C13.1609 30.0347 12.924 29.9994 12.7349 29.8687C12.5458 29.738 12.4249 29.5261 12.4065 29.293L12.0025 24.1855C11.9887 24.0121 12.0328 23.839 12.1273 23.6945L19.9448 11.752ZM24.4595 11.9537C23.382 11.2049 21.9187 11.4966 21.1901 12.6095L21.1721 12.6371L25.0814 15.3542L25.0958 15.3322C25.8258 14.217 25.539 12.7041 24.4595 11.9537ZM24.2453 16.6315L20.336 13.9144L13.7889 23.9162L17.6982 26.6333L24.2453 16.6315ZM16.1943 27.4464L13.624 25.66L13.8256 28.2085L16.1943 27.4464Z" fill="#787ABE"/>
</svg>
