<svg width="48" height="48" viewBox="0 0 48 48" fill="none" xmlns="http://www.w3.org/2000/svg">
    <path d="M29.3284 19.6716C28.8905 19.2337 28.8905 18.5237 29.3284 18.0858L34.0858 13.3284C34.5237 12.8905 35.2337 12.8905 35.6716 13.3284C36.1095 13.7663 36.1095 14.4763 35.6716 14.9142L30.9142 19.6716C30.4763 20.1095 29.7663 20.1095 29.3284 19.6716Z" fill="#5B5FF0"/>
    <path d="M29.3284 14.9142C28.8905 14.4763 28.8905 13.7663 29.3284 13.3284C29.7663 12.8905 30.4763 12.8905 30.9142 13.3284L35.6716 18.0858C36.1095 18.5237 36.1095 19.2337 35.6716 19.6716C35.2337 20.1095 34.5237 20.1095 34.0858 19.6716L29.3284 14.9142Z" fill="#5B5FF0"/>
    <path fill-rule="evenodd" clip-rule="evenodd" d="M24 15H14L14 32H24V15ZM14 13C12.8954 13 12 13.8954 12 15V32C12 33.1046 12.8954 34 14 34H24C25.1046 34 26 33.1046 26 32V15C26 13.8954 25.1046 13 24 13H14Z" fill="#5B5FF0"/>
    <path fill-rule="evenodd" clip-rule="evenodd" d="M16 29C16 27.3431 17.3431 26 19 26C20.6569 26 22 27.3431 22 29V33H20V29C20 28.4477 19.5523 28 19 28C18.4477 28 18 28.4477 18 29V33H16V29Z" fill="#5B5FF0"/>
    <rect x="16" y="21" width="6" height="2" rx="1" fill="#5B5FF0"/>
    <rect x="16" y="17" width="6" height="2" rx="1" fill="#5B5FF0"/>
</svg>
