<svg width="48" height="48" viewBox="0 0 48 48" fill="none" xmlns="http://www.w3.org/2000/svg">
    <path fill-rule="evenodd" clip-rule="evenodd" d="M36.6899 13.2774C37.077 13.6737 37.1056 14.3483 36.7536 14.7842L32.0168 20.6509C31.8425 20.8667 31.5973 20.9928 31.3383 20.9997C31.0793 21.0066 30.8291 20.8938 30.6459 20.6876L28.2775 18.0209C27.9075 17.6044 27.9075 16.929 28.2775 16.5124C28.6474 16.0959 29.2473 16.0959 29.6173 16.5124L31.2831 18.3881L35.3516 13.3492C35.7036 12.9133 36.3027 12.8811 36.6899 13.2774Z" fill="#5B5FF0"/>
    <path fill-rule="evenodd" clip-rule="evenodd" d="M24 15H14L14 32H24V15ZM14 13C12.8954 13 12 13.8954 12 15V32C12 33.1046 12.8954 34 14 34H24C25.1046 34 26 33.1046 26 32V15C26 13.8954 25.1046 13 24 13H14Z" fill="#5B5FF0"/>
    <path fill-rule="evenodd" clip-rule="evenodd" d="M16 29C16 27.3431 17.3431 26 19 26C20.6569 26 22 27.3431 22 29V33H20V29C20 28.4477 19.5523 28 19 28C18.4477 28 18 28.4477 18 29V33H16V29Z" fill="#5B5FF0"/>
    <rect x="16" y="21" width="6" height="2" rx="1" fill="#5B5FF0"/>
    <rect x="16" y="17" width="6" height="2" rx="1" fill="#5B5FF0"/>
</svg>
