<svg width="33" height="32" viewBox="0 0 33 32" fill="none" xmlns="http://www.w3.org/2000/svg">
    <path fill-rule="evenodd" clip-rule="evenodd" d="M16.5 6C13.8596 6 11.4712 7.49901 10.3009 9.8103C7.0578 10.073 4.5 12.7954 4.5 16.1053C4.5 19.5882 7.33256 22.4211 10.8158 22.4211C11.1646 22.4211 11.4474 22.1383 11.4474 21.7895C11.4474 21.4407 11.1646 21.1579 10.8158 21.1579C8.03022 21.1579 5.76316 18.8906 5.76316 16.1053C5.76316 13.351 7.97989 11.1034 10.7222 11.0535L11.1275 11.0462L11.2896 10.6746C12.1869 8.61801 14.2308 7.26316 16.5 7.26316C19.2419 7.26316 21.5433 9.18217 22.071 11.8105L22.176 12.3334L22.709 12.3175C22.7467 12.3164 22.782 12.3158 22.8158 12.3158C25.253 12.3158 27.2368 14.2996 27.2368 16.7368C27.2368 19.1741 25.253 21.1579 22.8158 21.1579H21.0474C20.6986 21.1579 20.4158 21.4407 20.4158 21.7895C20.4158 22.1383 20.6986 22.4211 21.0474 22.4211H22.8158C25.9506 22.4211 28.5 19.8717 28.5 16.7368C28.5 13.7279 26.1513 11.2584 23.1906 11.0648C22.3678 8.10745 19.6716 6 16.5 6ZM16.1056 14.9805C16.3362 14.796 16.664 14.796 16.8947 14.9805L20.0526 17.5068C20.3249 17.7247 20.3691 18.1222 20.1512 18.3945C19.9333 18.6669 19.5358 18.7111 19.2635 18.4932L17.1318 16.7878V26.2105C17.1318 26.5593 16.849 26.8421 16.5002 26.8421C16.1514 26.8421 15.8686 26.5593 15.8686 26.2105V16.7877L13.7368 18.4932C13.4644 18.7111 13.0669 18.6669 12.849 18.3945C12.6311 18.1222 12.6753 17.7247 12.9477 17.5068L16.1056 14.9805Z" fill="#5B5FF0"/>
</svg>
