<svg width="48" height="48" viewBox="0 0 48 48" fill="none" xmlns="http://www.w3.org/2000/svg">
    <path fill-rule="evenodd" clip-rule="evenodd" d="M12 13C12 12.4477 12.4477 12 13 12H35C35.5523 12 36 12.4477 36 13C36 13.5523 35.5523 14 35 14H13C12.4477 14 12 13.5523 12 13ZM23 35C23 35.5523 23.4477 36 24 36C24.5523 36 25 35.5523 25 35V20.4036L27.3138 22.7175C27.7044 23.108 28.3375 23.108 28.7281 22.7175C29.1186 22.327 29.1186 21.6938 28.7281 21.3033L24.7177 17.2929C24.3271 16.9023 23.694 16.9023 23.3034 17.2929L19.293 21.3033C18.9025 21.6938 18.9025 22.327 19.293 22.7175C19.6836 23.108 20.3167 23.108 20.7073 22.7175L23 20.4247V35Z" fill="#5B5FF0"/>
</svg>
