<svg width="437" height="375" viewBox="0 0 437 375" fill="none" xmlns="http://www.w3.org/2000/svg">
    <path opacity="0.6" fill-rule="evenodd" clip-rule="evenodd" d="M289.575 160.621C354.039 144.558 401.93 119.746 437 92.0848V375H14.6493C-0.30937 282.928 86.1026 211.32 289.575 160.621Z" fill="#E3E4FF"/>
    <path fill-rule="evenodd" clip-rule="evenodd" d="M126.695 336.385L159.66 336.855C159.66 336.855 161.313 360.611 161.255 372.505C161.191 385.461 152.568 447.846 152.568 447.846L130.813 447.067C129.616 422.517 129.739 397.421 135.266 372.231L126.695 336.385Z" fill="#F9925F"/>
    <path fill-rule="evenodd" clip-rule="evenodd" d="M117.637 336.215L150.603 336.686C150.603 336.686 152.256 360.442 152.197 372.336C152.134 385.292 143.51 447.677 143.51 447.677L121.755 446.897C120.558 422.347 120.681 397.252 126.209 372.061L117.637 336.215Z" fill="#FAA87F"/>
    <path fill-rule="evenodd" clip-rule="evenodd" d="M120.233 162.437C121.846 150.061 125.025 130.497 122.843 120.76C122.431 118.923 118.658 117.096 118.161 115.281C118.122 115.14 117.612 113.297 117.614 113.296C122.177 111.647 131.878 122.974 135.641 126.26C138 128.318 142.74 129.503 141.833 132.201C140.354 136.599 145.764 136.507 146.809 145.132C147.573 151.441 151.318 159.617 151.422 161.631C151.615 165.348 152.139 163.177 153.165 166.72C153.549 168.048 153.943 169.372 154.36 170.688C154.394 170.795 154.543 171.002 154.461 171.009C148.211 171.534 120.233 162.437 120.233 162.437Z" fill="#FAA95F"/>
    <path fill-rule="evenodd" clip-rule="evenodd" d="M123.812 137.064C119.117 135.869 114.04 136.89 109.484 135.027C106.441 133.782 103.683 131.175 102.278 128.179C98.1513 119.38 103.892 114.608 108.056 107.429C110.74 102.803 113.148 97.7152 115.066 92.7164C116.41 89.2117 113.994 86.3333 115.012 82.982C116.079 79.4679 118.17 77.5868 121.946 77.5232C130.014 77.3879 139.076 88.2542 143.248 94.4607C145.484 97.7875 146.941 101.79 149.654 104.773C152.233 107.607 156.113 106.654 158.805 110.584C159.97 112.283 157.134 114.571 156.596 116.707C156.3 117.882 156.813 118.449 157.339 119.479C158.485 121.723 158.782 122.419 159.134 123.185C159.759 124.543 159.599 125.619 159.502 126.939C159.378 128.627 159.567 129.282 158.825 130.977C157.896 133.099 157.134 133.803 156.021 135.326C154.636 137.222 152.656 138.674 150.972 139.97C147.571 142.588 144.235 144.328 141.313 143.502C133.185 141.208 123.812 137.064 123.812 137.064Z" fill="#FAA95F"/>
    <path fill-rule="evenodd" clip-rule="evenodd" d="M119.651 149.219C108.314 149.593 98.0547 144.693 93.3649 141.095C82.3008 132.606 80.3821 124.988 80.9878 113.209C81.2408 108.29 82.3858 102.477 82.3858 102.477C82.3858 102.477 81.2952 100.335 81.6217 97.9107C82.0445 94.7707 83.9181 91.2275 84.016 91.9929C84.4737 95.5735 85.6905 96.5132 85.6905 96.5132C85.6905 96.5132 89.7989 88.7953 95.7746 83.1618C98.6161 80.4834 113.521 74.8566 113.521 74.8566C113.521 74.8566 116.224 71.0972 122.13 69.8343L119.152 74.006C124.77 70.3917 139.263 73.5122 141.815 77.9472C142.678 79.448 139.822 80.4819 135.559 83.687C131.513 86.7289 119.255 95.3924 118.606 97.4251C117.029 102.365 118.063 102.807 119.56 107.71C120.191 109.78 122.18 113.708 122.505 114.392C123.594 116.682 124.438 119.299 123.518 120.033C122.778 120.624 120.455 121.987 119.929 121.174C119.051 119.818 115.808 113.492 110.542 115.557C108.517 116.352 105.633 120.088 106.707 124.815C107.123 126.647 109.543 131.828 112.648 132.836C117.732 134.487 121.848 128.872 121.848 128.872C127.334 138.325 125.042 144.437 119.651 149.219Z" fill="#2F4083"/>
    <path fill-rule="evenodd" clip-rule="evenodd" d="M139.792 105.855C140.654 105.289 141.93 105.714 142.641 106.803C143.351 107.891 143.229 109.234 142.368 109.799C141.506 110.365 140.23 109.94 139.52 108.852C138.809 107.763 138.931 106.42 139.792 105.855Z" fill="#2F4083"/>
    <path fill-rule="evenodd" clip-rule="evenodd" d="M141.428 99.6668C142.4 101.259 139.956 100.588 136.561 102.839C134.676 104.088 132.506 107.419 132.192 106.367C131.966 105.609 132.02 105.043 132.163 104.525C133.933 98.0938 140.896 98.7946 141.428 99.6668Z" fill="#2F4083"/>
    <path fill-rule="evenodd" clip-rule="evenodd" d="M157.842 120.746C157.842 120.746 157.842 120.745 157.127 120.445L157.842 120.745C158.008 120.351 157.822 119.896 157.428 119.73C157.033 119.565 156.58 119.75 156.413 120.143C156.413 120.143 156.413 120.144 156.413 120.144C156.413 120.145 156.412 120.146 156.412 120.147C156.41 120.151 156.406 120.16 156.4 120.173C156.388 120.199 156.369 120.239 156.342 120.292C156.287 120.399 156.202 120.554 156.085 120.738C155.848 121.107 155.491 121.575 155.002 121.988C154.06 122.782 152.587 123.421 150.348 122.605C149.946 122.459 149.501 122.666 149.354 123.069C149.208 123.471 149.415 123.916 149.817 124.062C152.637 125.089 154.686 124.283 156.002 123.173C156.642 122.633 157.097 122.033 157.391 121.573C157.539 121.342 157.649 121.142 157.723 120.997C157.76 120.925 157.788 120.866 157.808 120.823C157.818 120.801 157.826 120.784 157.831 120.771C157.834 120.764 157.836 120.759 157.838 120.755L157.841 120.749L157.842 120.747L157.842 120.746ZM156.413 120.144C156.413 120.144 156.413 120.144 156.413 120.144L156.413 120.144Z" fill="#DA7645"/>
    <path fill-rule="evenodd" clip-rule="evenodd" d="M169.171 274.11C169.171 274.11 171.798 310.77 167.019 355.169L118.505 354.861C118.505 354.861 111.444 275.106 111.428 274.432C111.412 273.759 169.171 274.11 169.171 274.11Z" fill="#2F4083"/>
    <path fill-rule="evenodd" clip-rule="evenodd" d="M135.815 283.672L138.65 297.997C138.261 300.59 138.687 305.086 138.645 311.994C138.631 314.448 143.721 322.968 146.548 324.99C149.491 327.096 151.771 328.778 155.792 329.159C158.036 329.371 159.971 330.505 162.211 329.705C165.095 328.676 159.791 321.252 157.144 315.755C157.144 315.755 154.968 310.015 157.16 310.296C157.56 310.347 158.085 311.639 161.849 315.375C163.187 316.703 166.624 315.194 165.631 313.213C163.376 308.717 160.708 302.887 153.238 295.621L152.286 280.57L135.815 283.672Z" fill="#FAA95F"/>
    <path fill-rule="evenodd" clip-rule="evenodd" d="M108.595 280.269C105.616 276.053 105.627 266.922 105.412 259.229C105.26 253.75 104.973 246.453 104.458 240.925C103.357 229.103 103.109 224.196 102.856 214.895C102.651 207.333 102.601 199.679 103.028 192.078C103.742 179.373 107.961 165.577 115.979 155.056C121.863 147.334 123.397 147.142 133.211 150.243C140.089 152.418 147.62 155.659 152.46 160.704C155.986 164.38 157.906 169.688 159.749 174.149C162.01 179.622 164.586 185.181 165.944 190.898C169.718 206.78 169.3 223.362 171.075 239.454C171.571 243.958 172.083 248.692 172.191 253.234C172.321 258.651 172.662 262.992 172.431 268.404C172.377 269.646 171.807 276.339 171.834 276.633C172.092 279.433 170.03 279.359 163.655 280.015C151.713 281.243 142.216 281.518 127.623 281.75C120.427 281.864 110.04 282.314 108.595 280.269Z" fill="#F9DA6D"/>
    <path fill-rule="evenodd" clip-rule="evenodd" d="M145.67 180.915C145.746 195.787 141.209 229.981 142.537 236.937C143.484 241.9 145.103 249.103 149.228 265.082C150.786 271.116 157.311 287.971 158.096 292.383C158.909 296.949 137.243 301.496 135.149 297.412C129.423 286.246 126.058 274.434 123.967 267.858C116.948 245.782 113.937 227.273 114.728 207.429C115.156 196.69 116.314 184.237 116.976 180.713C120.135 163.897 147.128 167.146 145.67 180.915Z" fill="#EDCC59"/>
    <path fill-rule="evenodd" clip-rule="evenodd" d="M260.734 152.874L289.856 69.5625L294.61 70.5765L270.109 153.659L260.734 152.874Z" fill="#C0E8FF"/>
    <path fill-rule="evenodd" clip-rule="evenodd" d="M306.582 191.197C306.842 191.311 308.314 176.4 310.346 153.375C310.61 150.388 310.346 131.697 310.346 131.697L328.622 107.253C328.622 107.253 331.7 137.363 334.642 141.177C337.194 144.484 339.593 176.411 341.573 178.001L341.536 217.753L323.688 205.568C323.688 205.568 299.157 187.957 306.582 191.197Z" fill="#FAA95F"/>
    <path fill-rule="evenodd" clip-rule="evenodd" d="M326.311 113.41C328.899 109.105 333.381 106.149 335.379 101.455C336.714 98.3194 336.846 94.3909 335.699 91.1654C332.332 81.6899 324.631 82.3755 316.336 80.1437C310.992 78.7052 305.515 76.7273 300.462 74.4557C296.921 72.8631 296.605 68.9853 293.415 67.2669C290.071 65.4654 287.161 65.6101 284.334 68.3207C278.295 74.1107 279.534 88.7065 280.98 96.3103C281.756 100.386 283.598 104.389 283.772 108.561C283.936 112.525 280.988 116.881 282.228 120.843C282.865 122.877 285.398 121.218 287.349 122.394C288.422 123.04 288.457 123.831 288.82 124.971C289.61 127.457 289.933 128.151 290.231 128.972C290.761 130.425 291.23 131.345 291.922 132.526C292.599 133.679 293.039 134.168 294.136 135.737C294.764 136.635 295.492 138 296.901 138.756C298.207 139.457 300.546 139.454 302.73 139.176C307.141 138.617 316.038 134.322 318.113 130.916C322.668 123.438 326.311 113.41 326.311 113.41Z" fill="#FAA95F"/>
    <path fill-rule="evenodd" clip-rule="evenodd" d="M296.479 125.683C296.038 126.048 295.633 126.316 295.225 126.578C294.79 126.856 294.372 127.05 293.939 127.238C293.733 127.328 293.525 127.4 293.314 127.484C293.007 127.606 292.692 127.721 292.358 127.832C291.601 128.084 290.757 128.315 289.749 128.54C289.262 128.643 288.95 129.12 289.052 129.607C289.154 130.094 289.632 130.405 290.118 130.303C291.01 130.132 291.792 129.978 292.488 129.765C293.063 129.589 293.594 129.396 294.068 129.126C294.453 128.908 294.802 128.656 295.128 128.354C295.418 128.085 295.686 127.803 295.94 127.463C296.266 127.025 296.554 126.556 296.849 125.979C296.931 125.876 296.914 125.727 296.811 125.646C296.709 125.564 296.56 125.581 296.479 125.683Z" fill="#F1922F"/>
    <path fill-rule="evenodd" clip-rule="evenodd" d="M260.734 152.874L289.856 69.5625L294.61 70.5765L270.109 153.659L260.734 152.874Z" fill="#FFE9DA"/>
    <path fill-rule="evenodd" clip-rule="evenodd" d="M286.929 99.3884C288.005 98.9624 289.16 98.5437 290.373 98.3043C291.101 98.1603 291.85 98.088 292.629 98.1271C293.674 98.1784 294.767 98.4026 295.931 99.0065C296.585 99.3464 297.261 99.7703 297.957 100.336C298.128 100.501 298.402 100.497 298.567 100.326C298.732 100.154 298.728 99.8802 298.556 99.7146C297.314 98.3064 296.065 97.4233 294.827 96.8859C294.147 96.5901 293.469 96.4115 292.798 96.3211C291.846 96.1931 290.912 96.2603 290.013 96.4289C288.673 96.6791 287.413 97.1904 286.236 97.6808C285.764 97.8725 285.537 98.4105 285.729 98.8814C285.92 99.3529 286.458 99.5801 286.929 99.3884Z" fill="#2F4083"/>
    <path fill-rule="evenodd" clip-rule="evenodd" d="M324.571 103.893C327.916 105.081 330.775 103.034 332.058 99.7266C335.91 89.7928 322.024 82.4771 322.095 90.4357C322.115 92.7277 324.258 94.5221 323.625 96.5986C322.855 99.1256 322.823 103.842 324.571 103.893Z" fill="#FFA76E"/>
    <path fill-rule="evenodd" clip-rule="evenodd" d="M323.108 94.0799C324.842 93.3726 326.848 92.4135 328.383 94.1899C330.448 96.5788 327.109 99.6034 324.922 97.9247C324.164 97.344 324.307 96.369 325.084 95.9249C325.418 95.7347 327.101 95.3174 326.396 94.9297C325.146 94.2427 322.765 95.0889 323.108 94.0799Z" fill="#FFA157"/>
    <path fill-rule="evenodd" clip-rule="evenodd" d="M321.81 92.5975C323.112 90.0191 324.899 87.0126 327.839 89.3292C328.596 89.9259 329.082 90.8668 329.522 91.7484C329.541 91.7875 329.616 91.883 329.579 91.8663C328.261 91.2798 327.031 90.3453 325.83 90.4842C323.623 90.7402 321.81 92.5975 321.81 92.5975Z" fill="#FFA157"/>
    <path fill-rule="evenodd" clip-rule="evenodd" d="M282.026 114.241C278.026 121.163 289.424 139.709 299.302 139.678C313.155 139.635 320.501 124.409 323.34 114.023L315.162 101.398C318.787 102.658 287.09 116.453 282.026 114.241Z" fill="white"/>
    <path d="M318.776 91.5309L314.496 104.193" stroke="white" stroke-width="2" stroke-miterlimit="10" stroke-linecap="round" stroke-linejoin="round"/>
    <path d="M327.466 108.022L322.139 115.813" stroke="white" stroke-width="2" stroke-miterlimit="10" stroke-linecap="round" stroke-linejoin="round"/>
    <path fill-rule="evenodd" clip-rule="evenodd" d="M291.317 101.408C290.334 101.408 289.535 102.692 289.535 104.276C289.535 105.858 290.334 107.143 291.317 107.143C292.299 107.143 293.097 105.858 293.097 104.276C293.097 102.692 292.299 101.408 291.317 101.408Z" fill="#2F4083"/>
    <path fill-rule="evenodd" clip-rule="evenodd" d="M279.12 78.4992C279.093 78.6518 307.187 97.1428 318.49 93.7575C318.49 93.7575 323.225 89.0219 327.223 92.3386C329.716 94.4077 331.131 98.4338 326.893 107.175C325.576 107.402 322.582 121.365 327.466 125.327C333.059 129.863 359.511 89.9831 336.824 65.3845C326.626 54.3274 285.521 41.5128 279.12 78.4992Z" fill="#D7D7F2"/>
    <path fill-rule="evenodd" clip-rule="evenodd" d="M346.153 80.1289C346.153 80.1289 324.745 76.5002 323.761 75.9759C322.777 77.1976 321.72 82.9773 321.72 82.9773L345.955 87.286L346.153 80.1289Z" fill="#E3E4FF"/>
    <path opacity="0.5" fill-rule="evenodd" clip-rule="evenodd" d="M319.751 81.1199C319.751 81.1199 305.011 151.083 305.022 151.298C305.033 151.514 286.862 160.503 263.016 157.528C263.016 157.528 254.038 156.719 251.914 150.265L279.726 75.9424L319.751 81.1199Z" fill="#5B5FF0"/>
    <mask id="mask0" mask-type="alpha" maskUnits="userSpaceOnUse" x="251" y="75" width="69" height="84">
        <path fill-rule="evenodd" clip-rule="evenodd" d="M319.751 81.1199C319.751 81.1199 305.011 151.083 305.022 151.298C305.033 151.514 286.862 160.503 263.016 157.528C263.016 157.528 254.038 156.719 251.914 150.265L279.726 75.9424L319.751 81.1199Z" fill="#5B5FF0"/>
    </mask>
    <g mask="url(#mask0)">
        <path opacity="0.5" fill-rule="evenodd" clip-rule="evenodd" d="M255.405 157.084L285.655 69.8342L290.593 70.8966L265.143 157.905L255.405 157.084Z" fill="white"/>
        <path d="M292.578 68.0229C292.578 68.0229 292.524 68.2802 292.352 68.7819C289.935 77.1446 268.112 153.023 268.58 154.825C269.074 156.811 294.685 67.9299 294.685 67.9299" fill="white"/>
    </g>
    <path fill-rule="evenodd" clip-rule="evenodd" d="M325.764 76.143L279.592 69.9907L278.425 77.4123L324.597 83.5646L325.764 76.143Z" fill="#5B5FF0"/>
    <path fill-rule="evenodd" clip-rule="evenodd" d="M345.459 85.8528C350.492 88.0976 370.982 135.069 327.525 125.326C327.525 125.326 345.423 85.8362 345.459 85.8528Z" fill="#D7D7F2"/>
    <path fill-rule="evenodd" clip-rule="evenodd" d="M321.956 153.498C304.368 156.994 259.847 180.998 253.226 179.236C246.603 177.474 236.81 170.319 220.035 158.162C216.604 155.674 200.553 142.514 200.553 142.514L189.41 163.839C189.41 163.839 206.904 179.569 215.309 185.882C231.334 197.919 239.761 205.413 248.879 209.049C254.743 211.389 293.703 199.737 308.388 194.107C320.691 189.39 330.127 188.82 334.417 179.429C338.406 170.698 334.524 150.999 321.956 153.498Z" fill="#FAFAFF"/>
    <path fill-rule="evenodd" clip-rule="evenodd" d="M369.645 347.345C369.802 330.955 370.348 314.228 369.241 298.178C368.658 289.719 368.629 280.277 368.882 271.696C369.368 255.203 368.396 243.508 368.573 229.104C368.716 217.399 367.091 204.007 365.523 192.338C362.902 172.833 358.025 151.18 345.412 135.914C336.156 124.712 333.974 124.597 320.571 130.553C311.177 134.727 295.438 157.733 289.342 169.633C285.893 176.365 283.781 189.767 282.586 197.054C281.126 205.948 280.331 217.873 279.747 226.908C278.011 253.827 278.64 246.801 277.656 265.639C277.291 272.636 275.678 293.126 275.27 301.235C274.54 315.738 272.308 389.821 272.074 398.198C270.54 453.213 280.392 456.812 280.836 456.923C300.88 461.909 318.801 461.98 327.809 461.119C332.977 460.625 346.992 477.746 367.541 476.36C377.672 475.676 369.362 377.042 369.645 347.345Z" fill="white"/>
    <path fill-rule="evenodd" clip-rule="evenodd" d="M322.005 306.408L315.661 319.38C315.376 321.956 313.829 326.146 312.116 332.758C311.507 335.108 304.48 341.959 301.264 343.174C297.917 344.44 295.31 345.469 291.369 344.813C289.169 344.447 287.032 345.039 285.093 343.706C282.597 341.991 289.551 336.242 293.476 331.66C293.476 331.66 297.013 326.726 294.846 326.438C294.45 326.385 293.62 327.486 289.074 330.102C287.458 331.032 284.555 328.718 286.007 327.077C289.303 323.352 293.333 318.457 302.317 313.408L307.045 299.264L322.005 306.408Z" fill="#FAA95F"/>
    <path d="M323.03 239.929C327.568 226.317 320.413 202.408 317.359 180.157C314.305 157.906 343.536 157.906 345.717 172.304C347.899 186.701 351.913 209.476 352.262 232.512C352.611 255.548 330.884 299.41 319.976 318.461H292.054C300.489 297.956 318.493 253.541 323.03 239.929Z" fill="#F8F8FD"/>
    <path fill-rule="evenodd" clip-rule="evenodd" d="M206.431 144.682C203.351 141.67 195.714 134.539 194.317 131.017C193.789 129.685 197.373 124.066 198.764 120.51C199.99 117.375 200.657 111.319 200.647 110.535C200.647 110.535 201.81 106.161 195.704 103.095C195.704 103.095 193.827 95.0137 189.268 95.9691C189.268 95.9691 188.664 89.9093 181.604 94.1076C181.604 94.1076 179.438 93.4834 177.593 94.0815C176.197 94.5335 174.957 95.9763 175.14 97.2615C175.287 98.2862 176.348 98.7057 177.959 99.0059C177.959 99.0059 177.69 103.138 177.62 103.969C177.472 105.702 174.735 114.165 174.422 118.775C174.199 122.065 177.916 130.236 177.933 132.061C177.951 133.868 178.422 141.914 182.429 151.792C184.256 156.297 187.643 161.719 192.116 167.348C200.326 161.956 206.1 150.708 206.431 144.682Z" fill="#6A6EF3"/>
    <mask id="mask1" mask-type="alpha" maskUnits="userSpaceOnUse" x="174" y="92" width="33" height="76">
        <path fill-rule="evenodd" clip-rule="evenodd" d="M206.431 144.722C203.35 141.711 195.713 134.579 194.317 131.057C193.789 129.726 197.373 124.106 198.764 120.55C199.989 117.416 200.656 111.359 200.647 110.576C200.647 110.576 201.81 106.202 195.704 103.135C195.704 103.135 193.827 95.0543 189.267 96.0097C189.267 96.0097 188.663 89.9499 181.603 94.1482C181.603 94.1482 179.437 93.524 177.592 94.1221C176.196 94.5741 174.956 96.0169 175.14 97.3021C175.287 98.3269 176.348 98.7463 177.959 99.0465C177.959 99.0465 177.689 103.179 177.619 104.01C177.472 105.743 174.735 114.206 174.422 118.815C174.199 122.106 177.916 130.276 177.933 132.101C177.95 133.909 178.421 141.955 182.428 151.832C184.256 156.338 187.642 161.76 192.116 167.389C200.326 161.997 206.1 150.749 206.431 144.722Z" fill="#5B5FF0"/>
    </mask>
    <g mask="url(#mask1)">
        <path fill-rule="evenodd" clip-rule="evenodd" d="M175.652 137.753C177.011 135.401 179.551 132.843 181.687 129.116C184.232 124.675 192.357 121.165 187.432 116.434C185.304 114.389 182.177 113.187 179.879 111.278C178.884 110.452 177.876 109.599 177.096 108.648C177.094 108.647 176.344 107.669 176.266 107.692C175.516 107.9 174.639 109.313 174.285 109.824C170.072 115.914 175.652 137.753 175.652 137.753Z" fill="#464BE1"/>
        <path fill-rule="evenodd" clip-rule="evenodd" d="M184.886 107.742C184.886 107.742 190.399 104.544 192.553 105.123C192.553 105.123 199.362 108.349 200.241 110.714C200.241 110.714 200.725 113.025 200.631 113.202C200.207 113.991 197.217 115.6 195.057 115.756C193.458 115.872 192.224 114.016 190.914 111.572C190.914 111.572 189.888 109.023 188.093 108.743C188.093 108.743 186.255 109.012 186.037 109.06L184.886 107.742Z" fill="#464BE1"/>
        <path fill-rule="evenodd" clip-rule="evenodd" d="M199.445 128.709C196.988 126.842 193.613 120.827 192.284 118.731C190.703 116.236 188.973 110.919 186.844 109.572C186.346 109.257 185.689 109.323 185.133 109.336C184.71 109.346 183.904 109.276 183.558 109.565C183.457 109.649 183.368 109.748 183.285 109.851C183.22 109.932 183.113 110.127 183.081 110.228C182.859 110.918 182.822 111.522 182.886 112.112C183.244 115.375 186.399 116.95 187.461 119.894C188.294 122.206 187.954 136.796 188.711 139.253C191.334 147.771 227.022 178.39 229.412 161.462C229.433 161.317 201.717 137.692 198.952 132.053C197.58 129.258 199.445 128.709 199.445 128.709Z" fill="#464BE1"/>
        <path fill-rule="evenodd" clip-rule="evenodd" d="M182.701 108.575L182.243 108.569L182.234 109.458L183.548 109.474L182.94 109.022L182.701 108.575Z" fill="white"/>
        <path fill-rule="evenodd" clip-rule="evenodd" d="M195.101 108.389L173.393 108.115L173.382 109.227L195.09 109.5L195.101 108.389Z" fill="white"/>
        <path d="M191.714 107.249C190.283 107.807 182.873 111.126 182.448 108.323C181.948 105.018 189.202 102.193 191.693 101.888C194.09 101.595 196.003 103.481 198.343 103.518" stroke="#003288" stroke-miterlimit="10" stroke-linecap="round" stroke-linejoin="round"/>
        <path d="M187.696 124.807C187.816 123.12 187.926 121.359 187.272 119.771C185.834 116.274 180.769 113.706 183.456 109.467" stroke="#003288" stroke-miterlimit="10" stroke-linecap="round" stroke-linejoin="round"/>
        <path d="M188.111 108.7C192.456 110.14 191.217 119.113 198.958 114.781" stroke="#003288" stroke-miterlimit="10" stroke-linecap="round" stroke-linejoin="round"/>
        <path d="M185.213 104.426C178.431 106.698 181.942 99.884 185.308 97.6679C187.777 96.0412 190.377 94.9098 193.238 95.2862" stroke="#003288" stroke-miterlimit="10" stroke-linecap="round" stroke-linejoin="round"/>
        <path d="M182.725 100.224C181.75 100.584 180.677 100.725 179.79 100.056C177.407 98.2614 181.256 94.0088 182.505 92.521" stroke="#003288" stroke-miterlimit="10" stroke-linecap="round" stroke-linejoin="round"/>
        <path d="M178.87 98.479C177.917 98.8643 177.013 98.9898 176 98.8435" stroke="#003288" stroke-miterlimit="10" stroke-linecap="round" stroke-linejoin="round"/>
    </g>
</svg>
