<svg width="402" height="299" viewBox="0 0 402 299" fill="none" xmlns="http://www.w3.org/2000/svg">
    <path d="M30.0892 121.507C27.9417 54.7196 65.0667 39.385 87.9901 29.3273C110.914 19.2697 140.811 15.8875 188.699 19.2697C250.773 23.6538 288.259 29.1857 327.014 58.7266C363.786 86.7567 398.394 144.781 338.799 206.002C299.398 246.479 237.864 274.813 163.774 271.777C89.6836 268.742 32.7736 204.99 30.0892 121.507Z" fill="white"/>
    <g filter="url(#filter0_d)">
        <path d="M222.15 163.252C221.201 162.568 219.882 162.789 219.203 163.748L212.929 172.618L209.038 168.689C208.213 167.856 206.875 167.856 206.051 168.689C205.226 169.522 205.226 170.872 206.051 171.705L211.706 177.415C212.103 177.817 212.642 178.04 213.2 178.04C213.258 178.04 213.316 178.038 213.374 178.033C213.993 177.981 214.558 177.656 214.918 177.146L222.643 166.227C223.32 165.269 223.1 163.937 222.15 163.252Z" fill="#5B5FF0"/>
        <path d="M218.462 104.27H213.516C211.647 101.068 208.204 98.9082 204.265 98.9082H204.042C203.071 94.392 199.083 91 194.325 91C189.566 91 185.578 94.392 184.607 98.9082H184.384C180.445 98.9082 177.002 101.068 175.133 104.27H170.183C166.223 104.27 163 107.525 163 111.525V175.414C163 179.419 166.223 182.679 170.183 182.679H203.014C203.196 182.679 203.369 182.649 203.537 182.605C206.493 185.342 210.413 187 214.61 187C223.648 187 231 179.575 231 170.449C231 165.616 228.926 161.273 225.644 158.245V111.526C225.645 107.525 222.422 104.27 218.462 104.27ZM226.776 170.448C226.776 177.221 221.32 182.732 214.612 182.732C208.95 182.732 203.954 178.688 202.733 173.114C202.482 171.963 201.354 171.238 200.214 171.492C199.075 171.746 198.356 172.885 198.608 174.036C198.949 175.596 199.521 177.06 200.264 178.412H170.183C168.553 178.412 167.225 177.067 167.225 175.414V111.525C167.225 109.878 168.552 108.537 170.183 108.537H173.714C173.67 108.938 173.642 109.344 173.642 109.757C173.642 110.935 174.588 111.89 175.754 111.89H183.069C184.235 111.89 185.182 110.935 185.182 109.757C185.182 108.58 184.235 107.624 183.069 107.624H178.217C179.097 105.038 181.528 103.175 184.383 103.175H186.494C187.66 103.175 188.606 102.219 188.606 101.041C188.606 97.8575 191.172 95.2666 194.325 95.2666C197.477 95.2666 200.043 97.8575 200.043 101.041C200.043 102.219 200.989 103.175 202.155 103.175H204.266C207.121 103.175 209.552 105.038 210.432 107.624H207.132C207.056 107.624 206.985 107.639 206.912 107.646C206.838 107.639 206.766 107.624 206.691 107.624H200.961C200.885 107.624 200.813 107.639 200.739 107.646C200.665 107.639 200.593 107.624 200.517 107.624H188.884C187.718 107.624 186.771 108.58 186.771 109.757C186.771 110.935 187.718 111.89 188.884 111.89H200.515C200.591 111.89 200.663 111.875 200.737 111.868C200.811 111.875 200.883 111.89 200.959 111.89H206.689C206.765 111.89 206.837 111.875 206.91 111.868C206.983 111.875 207.055 111.89 207.13 111.89H212.894C214.06 111.89 215.007 110.935 215.007 109.757C215.007 109.344 214.979 108.938 214.934 108.537H218.46C220.091 108.537 221.419 109.877 221.419 111.525V155.411C219.342 154.448 217.042 153.896 214.61 153.896C206.812 153.896 200.051 159.495 198.535 167.209C198.308 168.364 199.051 169.488 200.195 169.718C201.341 169.945 202.451 169.195 202.679 168.041C203.804 162.318 208.822 158.164 214.61 158.164C221.32 158.163 226.776 163.673 226.776 170.448Z" fill="#5B5FF0"/>
        <path d="M176.587 128.856C176.984 129.258 177.523 129.481 178.08 129.481C178.138 129.481 178.196 129.479 178.255 129.473C178.874 129.422 179.439 129.097 179.799 128.587L184.854 121.439C185.532 120.48 185.312 119.148 184.363 118.463C183.412 117.777 182.093 118 181.416 118.959L177.81 124.058L176.203 122.435C175.379 121.602 174.04 121.602 173.216 122.435C172.391 123.269 172.391 124.619 173.216 125.452L176.587 128.856Z" fill="#5B5FF0"/>
        <path d="M190.072 125.907H199.439H213.94C215.106 125.907 216.052 124.952 216.052 123.774C216.052 122.596 215.106 121.641 213.94 121.641H199.44H190.072C188.906 121.641 187.96 122.596 187.96 123.774C187.96 124.952 188.906 125.907 190.072 125.907Z" fill="#5B5FF0"/>
        <path d="M184.364 134.05C183.414 133.364 182.095 133.587 181.417 134.546L177.811 139.645L176.204 138.022C175.38 137.189 174.041 137.189 173.217 138.022C172.392 138.855 172.392 140.206 173.217 141.039L176.588 144.443C176.985 144.845 177.524 145.068 178.081 145.068C178.139 145.068 178.197 145.065 178.256 145.06C178.874 145.009 179.44 144.684 179.8 144.174L184.855 137.026C185.533 136.067 185.313 134.735 184.364 134.05Z" fill="#5B5FF0"/>
        <path d="M190.072 141.492H204.09C205.257 141.492 206.203 140.536 206.203 139.359C206.203 138.181 205.257 137.226 204.09 137.226H190.072C188.906 137.226 187.96 138.181 187.96 139.359C187.96 140.536 188.906 141.492 190.072 141.492Z" fill="#5B5FF0"/>
        <path d="M213.94 137.226H210.62C209.454 137.226 208.508 138.181 208.508 139.359C208.508 140.536 209.454 141.492 210.62 141.492H213.94C215.106 141.492 216.052 140.536 216.052 139.359C216.052 138.181 215.107 137.226 213.94 137.226Z" fill="#5B5FF0"/>
        <path d="M184.364 149.636C183.413 148.95 182.094 149.173 181.417 150.132L177.811 155.231L176.204 153.608C175.38 152.775 174.041 152.775 173.217 153.608C172.392 154.441 172.392 155.792 173.217 156.625L176.588 160.028C176.985 160.431 177.524 160.654 178.081 160.654C178.139 160.654 178.197 160.651 178.256 160.646C178.874 160.595 179.44 160.27 179.8 159.76L184.855 152.612C185.533 151.653 185.313 150.321 184.364 149.636Z" fill="#5B5FF0"/>
        <path d="M200.6 154.946C200.6 153.768 199.653 152.813 198.487 152.813H190.072C188.906 152.813 187.96 153.768 187.96 154.946C187.96 156.124 188.906 157.079 190.072 157.079H198.487C199.654 157.079 200.6 156.124 200.6 154.946Z" fill="#5B5FF0"/>
        <path d="M194.324 104.161C195.954 104.161 197.275 102.827 197.275 101.181C197.275 99.5352 195.954 98.2009 194.324 98.2009C192.694 98.2009 191.373 99.5352 191.373 101.181C191.373 102.827 192.694 104.161 194.324 104.161Z" fill="#5B5FF0"/>
    </g>
    <path d="M1.10463 122.029C-1.41448 43.936 42.1339 26.0053 69.0236 14.245C95.9133 2.48467 130.984 -1.47011 187.158 2.48467C259.972 7.61099 303.943 14.0793 349.403 48.6212C392.538 81.3966 433.133 149.244 363.228 220.83C317.009 268.159 244.829 301.289 157.92 297.74C71.0101 294.19 4.25353 219.646 1.10463 122.029Z" stroke="#5B5FF0" stroke-width="2" stroke-dasharray="4 8"/>
    <defs>
        <filter id="filter0_d" x="129" y="79" width="136" height="136" filterUnits="userSpaceOnUse" color-interpolation-filters="sRGB">
            <feFlood flood-opacity="0" result="BackgroundImageFix"/>
            <feColorMatrix in="SourceAlpha" type="matrix" values="0 0 0 0 0 0 0 0 0 0 0 0 0 0 0 0 0 0 127 0"/>
            <feOffset dy="8"/>
            <feGaussianBlur stdDeviation="10"/>
            <feColorMatrix type="matrix" values="0 0 0 0 0.427451 0 0 0 0 0.443137 0 0 0 0 0.976471 0 0 0 0.4 0"/>
            <feBlend mode="normal" in2="BackgroundImageFix" result="effect1_dropShadow"/>
            <feBlend mode="normal" in="SourceGraphic" in2="effect1_dropShadow" result="shape"/>
        </filter>
    </defs>
</svg>
