<svg width="72" height="72" viewBox="0 0 72 72" fill="none" xmlns="http://www.w3.org/2000/svg">
    <circle cx="36" cy="36" r="36" fill="#E93535"/>
    <path fill-rule="evenodd" clip-rule="evenodd" d="M34.7692 52C34.0895 52 33.5385 51.449 33.5385 50.7692C33.5385 50.0895 34.0895 49.5385 34.7692 49.5385V47.0093C32.6328 46.7731 30.6794 45.9294 29.0859 44.6546L27.2972 46.4432L27.2973 46.4433C27.778 46.9239 27.778 47.7032 27.2973 48.1839C26.8167 48.6645 26.0374 48.6645 25.5568 48.1839L23.8162 46.4433C23.3356 45.9627 23.3356 45.1834 23.8162 44.7027C24.2968 44.2221 25.076 44.2221 25.5567 44.7026L27.3453 42.914C26.0706 41.3205 25.2268 39.3672 24.9907 37.2308H22.4615C22.4615 37.9105 21.9105 38.4615 21.2308 38.4615C20.551 38.4615 20 37.9105 20 37.2308V34.7692C20 34.0895 20.551 33.5385 21.2308 33.5385C21.9105 33.5385 22.4615 34.0895 22.4615 34.7692H24.9907C25.2268 32.6328 26.0706 30.6796 27.3453 29.086L25.5564 27.2972L25.5563 27.2971C25.0757 27.7777 24.2965 27.7777 23.8158 27.297C23.3352 26.8164 23.3352 26.0371 23.8158 25.5565L25.5564 23.8159C26.037 23.3353 26.8163 23.3353 27.297 23.8159C27.7776 24.2965 27.7776 25.0758 27.297 25.5565L27.2969 25.5565L27.297 25.5566L29.0858 27.3454C30.6794 26.0707 32.6327 25.2269 34.7692 24.9907V22.4615C34.0895 22.4615 33.5385 21.9105 33.5385 21.2308C33.5385 20.551 34.0895 20 34.7692 20H37.2308C37.9105 20 38.4615 20.551 38.4615 21.2308C38.4615 21.9105 37.9105 22.4615 37.2308 22.4615V24.9907C39.3673 25.2269 41.3206 26.0707 42.9142 27.3454L44.703 25.5566L44.7031 25.5565L44.703 25.5565C44.2224 25.0758 44.2224 24.2965 44.703 23.8159C45.1837 23.3353 45.963 23.3353 46.4436 23.8159L48.1842 25.5565C48.6648 26.0371 48.6648 26.8164 48.1842 27.297C47.7035 27.7777 46.9243 27.7777 46.4437 27.2971L46.4436 27.2972L44.6547 29.086C45.9294 30.6796 46.7732 32.6328 47.0093 34.7692H49.5385C49.5385 34.0895 50.0895 33.5385 50.7692 33.5385C51.449 33.5385 52 34.0895 52 34.7692V37.2308C52 37.9105 51.449 38.4615 50.7692 38.4615C50.0895 38.4615 49.5385 37.9105 49.5385 37.2308H47.0093C46.7732 39.3672 45.9294 41.3205 44.6547 42.914L46.4433 44.7026C46.924 44.2221 47.7032 44.2221 48.1838 44.7027C48.6644 45.1834 48.6644 45.9627 48.1838 46.4433L46.4432 48.1839C45.9626 48.6645 45.1833 48.6645 44.7027 48.1839C44.222 47.7032 44.222 46.9239 44.7027 46.4433L44.7028 46.4432L42.9141 44.6546C41.3206 45.9294 39.3672 46.7731 37.2308 47.0093L37.2308 49.5385C37.9105 49.5385 38.4615 50.0895 38.4615 50.7692C38.4615 51.449 37.9105 52 37.2308 52H34.7692ZM42.092 42.0919L42.0821 42.1019C40.5238 43.6552 38.374 44.6154 36 44.6154C33.6259 44.6154 31.4761 43.6551 29.9178 42.1018L29.908 42.0919L29.8981 42.0821C28.3448 40.5238 27.3846 38.374 27.3846 36C27.3846 31.2425 31.2407 27.3857 35.998 27.3846H36C40.7575 27.3846 44.6143 31.2407 44.6154 35.998V36C44.6154 38.374 43.6552 40.5237 42.102 42.082L42.092 42.0919ZM36 37.2308C36 35.8713 34.8979 34.7692 33.5385 34.7692C32.179 34.7692 31.0769 35.8713 31.0769 37.2308C31.0769 38.5902 32.179 39.6923 33.5385 39.6923C34.8979 39.6923 36 38.5902 36 37.2308ZM38.4615 32.3077C39.1413 32.3077 39.6923 32.8587 39.6923 33.5385C39.6923 34.2182 39.1413 34.7692 38.4615 34.7692C37.7818 34.7692 37.2308 34.2182 37.2308 33.5385C37.2308 32.8587 37.7818 32.3077 38.4615 32.3077Z" fill="white"/>
</svg>
