<svg width="320" height="347" viewBox="0 0 320 347" fill="none" xmlns="http://www.w3.org/2000/svg">
    <circle cx="306.5" cy="41.5" r="4.5" fill="#F9DA6D"/>
    <circle cx="8" cy="260" r="7" fill="#E3E4FF"/>
    <g filter="url(#filter0_d)">
        <rect x="40" y="24" width="240" height="267" rx="12" fill="#F8F8FD"/>
    </g>
    <g clip-path="url(#clip0)" filter="url(#filter1_d)">
        <path d="M185.192 223.616L185.038 223.522C182.501 221.966 181.627 218.697 183.047 216.082L183.133 215.924C183.65 214.971 183.636 213.841 183.093 212.901C182.551 211.961 181.58 211.384 180.498 211.357L180.329 211.353C177.35 211.278 174.958 208.883 174.883 205.901L174.879 205.731C174.852 204.646 174.275 203.675 173.336 203.132C172.398 202.589 171.269 202.574 170.316 203.093L170.161 203.178C167.547 204.6 164.282 203.724 162.727 201.183L162.634 201.03C162.067 200.104 161.083 199.552 160 199.552C158.917 199.552 157.933 200.104 157.368 201.029L157.273 201.184C155.719 203.723 152.453 204.599 149.841 203.177L149.684 203.092C148.732 202.573 147.602 202.588 146.665 203.131C145.726 203.674 145.15 204.646 145.122 205.731L145.118 205.899C145.044 208.881 142.651 211.277 139.671 211.351L139.504 211.355C138.421 211.382 137.45 211.96 136.908 212.899C136.366 213.838 136.351 214.968 136.869 215.923L136.954 216.079C138.373 218.696 137.499 221.964 134.964 223.52L134.809 223.615C134.809 223.615 134.808 223.615 134.808 223.616C133.885 224.183 133.333 225.168 133.333 226.252C133.333 227.337 133.885 228.322 134.808 228.889L134.962 228.983C137.499 230.539 138.373 233.808 136.954 236.423L136.867 236.581C136.35 237.534 136.364 238.664 136.907 239.604C137.449 240.544 138.42 241.121 139.502 241.148L139.671 241.152C142.65 241.227 145.042 243.622 145.117 246.604L145.121 246.774C145.148 247.859 145.725 248.83 146.664 249.373C147.601 249.916 148.731 249.93 149.684 249.412L149.839 249.327C152.453 247.905 155.718 248.781 157.273 251.322L157.367 251.475C157.933 252.401 158.917 252.952 160 252.952C161.083 252.952 162.067 252.401 162.632 251.476L162.727 251.321C164.282 248.781 167.546 247.906 170.159 249.328L170.316 249.413C171.268 249.931 172.397 249.916 173.335 249.374C174.274 248.831 174.85 247.859 174.878 246.774L174.882 246.606C174.956 243.624 177.349 241.228 180.329 241.154L180.496 241.15C181.579 241.123 182.55 240.545 183.092 239.606C183.634 238.667 183.649 237.536 183.131 236.582L183.047 236.426C181.627 233.809 182.501 230.541 185.036 228.985L185.192 228.889C186.115 228.322 186.667 227.337 186.667 226.252C186.667 225.168 186.115 224.183 185.192 223.616ZM183.954 226.865L183.799 226.96C180.186 229.176 178.942 233.832 180.964 237.558L181.049 237.715C181.223 238.035 181.1 238.313 181.04 238.418C180.979 238.523 180.799 238.768 180.436 238.777L180.268 238.781C176.025 238.887 172.618 242.299 172.512 246.547L172.508 246.715C172.498 247.078 172.254 247.259 172.149 247.319C172.044 247.38 171.767 247.502 171.449 247.329L171.292 247.243C167.569 245.219 162.92 246.466 160.706 250.081L160.611 250.237C160.422 250.546 160.121 250.579 160 250.579C159.879 250.579 159.578 250.546 159.387 250.234L159.293 250.081C157.797 247.636 155.188 246.274 152.504 246.274C151.217 246.274 149.914 246.587 148.708 247.243L148.552 247.328C148.233 247.501 147.955 247.378 147.85 247.318C147.745 247.258 147.5 247.077 147.492 246.715L147.487 246.546C147.381 242.297 143.975 238.886 139.732 238.78L139.563 238.775C139.201 238.766 139.02 238.521 138.96 238.417C138.899 238.312 138.777 238.034 138.949 237.716L139.036 237.558C141.058 233.832 139.813 229.176 136.201 226.96L136.046 226.865C135.738 226.676 135.704 226.374 135.704 226.252C135.704 226.131 135.738 225.829 136.046 225.64L136.202 225.545C139.814 223.329 141.058 218.673 139.036 214.947L138.951 214.79C138.778 214.47 138.9 214.192 138.96 214.087C139.021 213.982 139.201 213.737 139.564 213.728L139.732 213.724C143.975 213.618 147.382 210.206 147.488 205.958L147.492 205.79C147.502 205.426 147.746 205.246 147.851 205.186C147.955 205.125 148.233 205.003 148.551 205.176L148.708 205.262C152.432 207.287 157.08 206.04 159.294 202.424L159.389 202.268C159.578 201.959 159.879 201.926 160 201.926C160.121 201.926 160.422 201.959 160.613 202.271L160.707 202.424C162.92 206.041 167.57 207.287 171.292 205.262L171.448 205.177C171.766 205.003 172.045 205.126 172.15 205.186C172.255 205.247 172.5 205.427 172.508 205.79L172.513 205.959C172.619 210.207 176.026 213.619 180.268 213.725L180.437 213.729C180.799 213.738 180.98 213.983 181.04 214.087C181.101 214.192 181.223 214.471 181.051 214.788L180.964 214.946C178.942 218.673 180.187 223.329 183.799 225.545L183.954 225.639C184.263 225.829 184.296 226.131 184.296 226.252C184.296 226.374 184.263 226.676 183.954 226.865Z" fill="#5B5FF0"/>
        <path d="M158.531 233.534C158.562 233.534 158.593 233.533 158.625 233.53C158.959 233.503 159.264 233.33 159.459 233.058L168.273 220.767C168.638 220.257 168.52 219.547 168.007 219.183C167.496 218.818 166.783 218.936 166.416 219.447L158.385 230.647L153.461 225.742C153.016 225.299 152.294 225.299 151.849 225.742C151.404 226.186 151.404 226.905 151.849 227.348L157.725 233.202C157.939 233.416 158.23 233.534 158.531 233.534Z" fill="#5B5FF0"/>
        <path d="M160.546 208.048C155.918 208.048 151.545 209.867 148.234 213.168C147.769 213.631 147.759 214.392 148.213 214.867C148.666 215.342 149.411 215.351 149.876 214.888C152.745 212.027 156.535 210.451 160.546 210.451C168.974 210.451 175.83 217.459 175.83 226.072C175.83 228.922 175.072 231.711 173.638 234.138C173.303 234.706 173.481 235.445 174.037 235.788C174.227 235.905 174.437 235.962 174.644 235.962C175.042 235.962 175.43 235.755 175.651 235.381C177.307 232.58 178.182 229.36 178.182 226.072C178.182 216.134 170.271 208.048 160.546 208.048Z" fill="#5B5FF0"/>
        <path d="M171.253 236.808C168.313 240.127 164.109 242.03 159.72 242.03C151.165 242.03 144.205 234.954 144.205 226.256C144.205 223.008 145.168 219.89 146.989 217.238C147.367 216.688 147.234 215.932 146.694 215.548C146.153 215.164 145.409 215.3 145.032 215.849C142.929 218.91 141.818 222.509 141.818 226.256C141.818 236.292 149.849 244.457 159.72 244.457C164.785 244.457 169.635 242.261 173.027 238.433C173.468 237.934 173.428 237.168 172.939 236.719C172.447 236.27 171.694 236.311 171.253 236.808Z" fill="#5B5FF0"/>
    </g>
    <path d="M96.0749 57.3867C96.0749 57.8169 95.9197 58.1559 95.6094 58.4036C95.3012 58.6513 94.8715 58.7752 94.3203 58.7752C93.8125 58.7752 93.3633 58.6796 92.9727 58.4884V57.5497C93.2938 57.6931 93.5651 57.7941 93.7865 57.8528C94.01 57.9115 94.214 57.9408 94.3984 57.9408C94.6198 57.9408 94.7891 57.8984 94.9062 57.8137C95.0256 57.7289 95.0853 57.6029 95.0853 57.4356C95.0853 57.3422 95.0592 57.2596 95.0072 57.1879C94.9551 57.114 94.878 57.0434 94.776 56.9761C94.6762 56.9087 94.4711 56.8011 94.1608 56.6534C93.87 56.5165 93.6519 56.385 93.5065 56.259C93.3611 56.133 93.245 55.9863 93.1582 55.819C93.0714 55.6517 93.028 55.4561 93.028 55.2323C93.028 54.8108 93.1701 54.4794 93.4544 54.2383C93.7409 53.9971 94.1359 53.8765 94.6393 53.8765C94.8867 53.8765 95.1222 53.9058 95.3457 53.9645C95.5714 54.0232 95.8069 54.1057 96.0521 54.2122L95.7266 54.9977C95.4727 54.8934 95.2622 54.8206 95.0951 54.7793C94.9301 54.738 94.7674 54.7174 94.6068 54.7174C94.4158 54.7174 94.2693 54.7619 94.1673 54.851C94.0653 54.9401 94.0143 55.0563 94.0143 55.1997C94.0143 55.2888 94.0349 55.3671 94.0762 55.4344C94.1174 55.4996 94.1825 55.5637 94.2715 55.6267C94.3626 55.6876 94.5764 55.7984 94.9128 55.9592C95.3576 56.1721 95.6625 56.3861 95.8275 56.6012C95.9924 56.8142 96.0749 57.076 96.0749 57.3867Z" fill="#787ABE"/>
    <path d="M99.4401 58.71H98.431V54.7858H97.1387V53.9449H100.732V54.7858H99.4401V58.71Z" fill="#787ABE"/>
    <path d="M105.045 58.71L104.7 57.5758H102.965L102.62 58.71H101.533L103.212 53.9254H104.446L106.132 58.71H105.045ZM104.459 56.7283C104.14 55.7006 103.96 55.1194 103.919 54.9846C103.88 54.8499 103.851 54.7435 103.834 54.6652C103.762 54.9434 103.557 55.6311 103.219 56.7283H104.459Z" fill="#787ABE"/>
    <path d="M109.237 58.71H108.228V54.7858H106.936V53.9449H110.529V54.7858H109.237V58.71Z" fill="#787ABE"/>
    <path d="M114.669 58.71H111.928V53.9449H114.669V54.7728H112.938V55.819H114.549V56.6469H112.938V57.8756H114.669V58.71Z" fill="#787ABE"/>
    <path d="M121.644 58.71L121.299 57.5758H119.564L119.219 58.71H118.132L119.811 53.9254H121.045L122.731 58.71H121.644ZM121.058 56.7283C120.739 55.7006 120.559 55.1194 120.518 54.9846C120.479 54.8499 120.45 54.7435 120.433 54.6652C120.361 54.9434 120.156 55.6311 119.818 56.7283H121.058Z" fill="#787ABE"/>
    <path d="M128.222 58.71H126.939L124.869 55.1052H124.84C124.881 55.7419 124.902 56.196 124.902 56.4676V58.71H124V53.9449H125.273L127.34 57.5138H127.363C127.33 56.8946 127.314 56.4567 127.314 56.2003V53.9449H128.222V58.71Z" fill="#787ABE"/>
    <path d="M134.038 56.2818C134.038 57.0662 133.815 57.667 133.368 58.0842C132.923 58.5014 132.28 58.71 131.438 58.71H130.09V53.9449H131.584C132.361 53.9449 132.964 54.1503 133.394 54.5609C133.824 54.9716 134.038 55.5452 134.038 56.2818ZM132.99 56.3079C132.99 55.2845 132.539 54.7728 131.636 54.7728H131.099V57.8756H131.532C132.504 57.8756 132.99 57.353 132.99 56.3079Z" fill="#787ABE"/>
    <path d="M139.083 58.71H138.09V53.9449H140.818V54.7728H139.083V56.0015H140.697V56.8261H139.083V58.71Z" fill="#787ABE"/>
    <path d="M145.156 58.71H142.415V53.9449H145.156V54.7728H143.424V55.819H145.036V56.6469H143.424V57.8756H145.156V58.71Z" fill="#787ABE"/>
    <path d="M150.768 56.2818C150.768 57.0662 150.544 57.667 150.097 58.0842C149.652 58.5014 149.009 58.71 148.167 58.71H146.819V53.9449H148.313C149.09 53.9449 149.693 54.1503 150.123 54.5609C150.553 54.9716 150.768 55.5452 150.768 56.2818ZM149.719 56.3079C149.719 55.2845 149.268 54.7728 148.365 54.7728H147.828V57.8756H148.261C149.233 57.8756 149.719 57.353 149.719 56.3079Z" fill="#787ABE"/>
    <path d="M155.161 58.71H152.421V53.9449H155.161V54.7728H153.43V55.819H155.041V56.6469H153.43V57.8756H155.161V58.71Z" fill="#787ABE"/>
    <path d="M157.833 56.0602H158.159C158.478 56.0602 158.713 56.007 158.865 55.9005C159.017 55.794 159.093 55.6267 159.093 55.3986C159.093 55.1726 159.015 55.0118 158.859 54.9162C158.705 54.8206 158.465 54.7728 158.139 54.7728H157.833V56.0602ZM157.833 56.8815V58.71H156.824V53.9449H158.211C158.858 53.9449 159.336 54.0633 159.646 54.3002C159.957 54.5349 160.112 54.8923 160.112 55.3725C160.112 55.6528 160.035 55.9027 159.881 56.1221C159.727 56.3394 159.509 56.51 159.227 56.6338C159.943 57.705 160.409 58.3971 160.626 58.71H159.507L158.37 56.8815H157.833Z" fill="#787ABE"/>
    <path d="M164.805 58.71L164.46 57.5758H162.725L162.38 58.71H161.293L162.973 53.9254H164.206L165.893 58.71H164.805ZM164.219 56.7283C163.9 55.7006 163.72 55.1194 163.679 54.9846C163.64 54.8499 163.612 54.7435 163.594 54.6652C163.523 54.9434 163.318 55.6311 162.979 56.7283H164.219Z" fill="#787ABE"/>
    <path d="M167.161 58.71V53.9449H168.171V57.8756H170.101V58.71H167.161Z" fill="#787ABE"/>
    <path d="M175.005 56.0602H175.331C175.65 56.0602 175.885 56.007 176.037 55.9005C176.189 55.794 176.265 55.6267 176.265 55.3986C176.265 55.1726 176.187 55.0118 176.031 54.9162C175.877 54.8206 175.637 54.7728 175.311 54.7728H175.005V56.0602ZM175.005 56.8815V58.71H173.996V53.9449H175.383C176.03 53.9449 176.508 54.0633 176.818 54.3002C177.129 54.5349 177.284 54.8923 177.284 55.3725C177.284 55.6528 177.207 55.9027 177.053 56.1221C176.899 56.3394 176.681 56.51 176.398 56.6338C177.115 57.705 177.581 58.3971 177.798 58.71H176.678L175.542 56.8815H175.005Z" fill="#787ABE"/>
    <path d="M181.805 58.71H179.064V53.9449H181.805V54.7728H180.073V55.819H181.684V56.6469H180.073V57.8756H181.805V58.71Z" fill="#787ABE"/>
    <path d="M185.274 56.0341H187.162V58.5047C186.856 58.6046 186.567 58.6741 186.296 58.7132C186.027 58.7545 185.752 58.7752 185.469 58.7752C184.751 58.7752 184.202 58.5644 183.822 58.1429C183.445 57.7192 183.256 57.1119 183.256 56.3209C183.256 55.5518 183.475 54.952 183.913 54.5218C184.354 54.0916 184.964 53.8765 185.743 53.8765C186.231 53.8765 186.702 53.9743 187.156 54.1698L186.82 54.9781C186.473 54.8043 186.112 54.7174 185.736 54.7174C185.3 54.7174 184.951 54.864 184.688 55.1574C184.426 55.4507 184.294 55.8451 184.294 56.3405C184.294 56.8576 184.4 57.2531 184.61 57.5269C184.823 57.7985 185.131 57.9343 185.535 57.9343C185.745 57.9343 185.959 57.9126 186.176 57.8691V56.875H185.274V56.0341Z" fill="#787ABE"/>
    <path d="M192.839 53.9449V57.0282C192.839 57.3802 192.759 57.6887 192.601 57.9538C192.445 58.2189 192.218 58.4221 191.921 58.5633C191.623 58.7046 191.272 58.7752 190.866 58.7752C190.254 58.7752 189.779 58.6187 189.44 58.3058C189.102 57.9908 188.932 57.5606 188.932 57.0152V53.9449H189.938V56.862C189.938 57.2292 190.012 57.4986 190.16 57.6703C190.307 57.8419 190.551 57.9278 190.892 57.9278C191.222 57.9278 191.461 57.8419 191.608 57.6703C191.758 57.4965 191.833 57.2248 191.833 56.8555V53.9449H192.839Z" fill="#787ABE"/>
    <path d="M194.671 58.71V53.9449H195.68V57.8756H197.61V58.71H194.671Z" fill="#787ABE"/>
    <path d="M202.02 58.71L201.675 57.5758H199.94L199.595 58.71H198.508L200.188 53.9254H201.421L203.107 58.71H202.02ZM201.434 56.7283C201.115 55.7006 200.935 55.1194 200.894 54.9846C200.855 54.8499 200.827 54.7435 200.809 54.6652C200.738 54.9434 200.533 55.6311 200.194 56.7283H201.434Z" fill="#787ABE"/>
    <path d="M206.212 58.71H205.203V54.7858H203.911V53.9449H207.505V54.7858H206.212V58.71Z" fill="#787ABE"/>
    <path d="M208.904 58.71V53.9449H209.913V58.71H208.904Z" fill="#787ABE"/>
    <path d="M216.097 56.3209C216.097 57.1097 215.902 57.7159 215.511 58.1396C215.12 58.5633 214.561 58.7752 213.831 58.7752C213.102 58.7752 212.542 58.5633 212.152 58.1396C211.761 57.7159 211.566 57.1075 211.566 56.3144C211.566 55.5213 211.761 54.9162 212.152 54.499C212.544 54.0796 213.107 53.87 213.838 53.87C214.569 53.87 215.128 54.0807 215.514 54.5023C215.903 54.9238 216.097 55.53 216.097 56.3209ZM212.624 56.3209C212.624 56.8533 212.725 57.2542 212.926 57.5236C213.128 57.793 213.43 57.9278 213.831 57.9278C214.637 57.9278 215.039 57.3922 215.039 56.3209C215.039 55.2476 214.639 54.7109 213.838 54.7109C213.436 54.7109 213.134 54.8467 212.93 55.1183C212.726 55.3877 212.624 55.7886 212.624 56.3209Z" fill="#787ABE"/>
    <path d="M221.972 58.71H220.689L218.619 55.1052H218.59C218.631 55.7419 218.652 56.196 218.652 56.4676V58.71H217.75V53.9449H219.023L221.09 57.5138H221.113C221.08 56.8946 221.064 56.4567 221.064 56.2003V53.9449H221.972V58.71Z" fill="#787ABE"/>
    <path d="M226.649 57.3867C226.649 57.8169 226.494 58.1559 226.184 58.4036C225.875 58.6513 225.446 58.7752 224.895 58.7752C224.387 58.7752 223.938 58.6796 223.547 58.4884V57.5497C223.868 57.6931 224.139 57.7941 224.361 57.8528C224.584 57.9115 224.788 57.9408 224.973 57.9408C225.194 57.9408 225.363 57.8984 225.48 57.8137C225.6 57.7289 225.66 57.6029 225.66 57.4356C225.66 57.3422 225.633 57.2596 225.581 57.1879C225.529 57.114 225.452 57.0434 225.35 56.9761C225.25 56.9087 225.045 56.8011 224.735 56.6534C224.444 56.5165 224.226 56.385 224.081 56.259C223.935 56.133 223.819 55.9863 223.732 55.819C223.646 55.6517 223.602 55.4561 223.602 55.2323C223.602 54.8108 223.744 54.4794 224.029 54.2383C224.315 53.9971 224.71 53.8765 225.214 53.8765C225.461 53.8765 225.696 53.9058 225.92 53.9645C226.146 54.0232 226.381 54.1057 226.626 54.2122L226.301 54.9977C226.047 54.8934 225.836 54.8206 225.669 54.7793C225.504 54.738 225.342 54.7174 225.181 54.7174C224.99 54.7174 224.844 54.7619 224.742 54.851C224.64 54.9401 224.589 55.0563 224.589 55.1997C224.589 55.2888 224.609 55.3671 224.65 55.4344C224.692 55.4996 224.757 55.5637 224.846 55.6267C224.937 55.6876 225.151 55.7984 225.487 55.9592C225.932 56.1721 226.237 56.3861 226.402 56.6012C226.567 56.8142 226.649 57.076 226.649 57.3867Z" fill="#787ABE"/>
    <rect x="88" y="158.167" width="167.333" height="14.685" rx="7.34251" fill="#E3E4FF"/>
    <rect x="65.3334" y="158.167" width="20" height="14.685" rx="7.34251" fill="#787ABE"/>
    <rect x="88" y="130.133" width="167.333" height="14.685" rx="7.3425" fill="#E3E4FF"/>
    <rect x="65.3334" y="130.133" width="20" height="14.685" rx="7.3425" fill="#787ABE"/>
    <rect x="88" y="102.098" width="167.333" height="14.685" rx="7.3425" fill="#E3E4FF"/>
    <rect x="65.3334" y="102.098" width="20" height="14.685" rx="7.3425" fill="#787ABE"/>
    <rect x="88" y="74.0625" width="167.333" height="14.685" rx="7.3425" fill="#E3E4FF"/>
    <rect x="65.3334" y="74.0625" width="20" height="14.685" rx="7.3425" fill="#787ABE"/>
    <defs>
        <filter id="filter0_d" x="0" y="0" width="320" height="347" filterUnits="userSpaceOnUse" color-interpolation-filters="sRGB">
            <feFlood flood-opacity="0" result="BackgroundImageFix"/>
            <feColorMatrix in="SourceAlpha" type="matrix" values="0 0 0 0 0 0 0 0 0 0 0 0 0 0 0 0 0 0 127 0"/>
            <feOffset dy="16"/>
            <feGaussianBlur stdDeviation="20"/>
            <feColorMatrix type="matrix" values="0 0 0 0 0.619531 0 0 0 0 0.625045 0 0 0 0 0.8125 0 0 0 0.25 0"/>
            <feBlend mode="normal" in2="BackgroundImageFix" result="effect1_dropShadow"/>
            <feBlend mode="normal" in="SourceGraphic" in2="effect1_dropShadow" result="shape"/>
        </filter>
        <filter id="filter1_d" x="113.333" y="187.552" width="93.3333" height="93.4" filterUnits="userSpaceOnUse" color-interpolation-filters="sRGB">
            <feFlood flood-opacity="0" result="BackgroundImageFix"/>
            <feColorMatrix in="SourceAlpha" type="matrix" values="0 0 0 0 0 0 0 0 0 0 0 0 0 0 0 0 0 0 127 0"/>
            <feOffset dy="8"/>
            <feGaussianBlur stdDeviation="10"/>
            <feColorMatrix type="matrix" values="0 0 0 0 0.427451 0 0 0 0 0.443137 0 0 0 0 0.976471 0 0 0 0.4 0"/>
            <feBlend mode="normal" in2="BackgroundImageFix" result="effect1_dropShadow"/>
            <feBlend mode="normal" in="SourceGraphic" in2="effect1_dropShadow" result="shape"/>
        </filter>
        <clipPath id="clip0">
            <rect width="53.3333" height="53.4" fill="white" transform="translate(133.333 199.552)"/>
        </clipPath>
    </defs>
</svg>
