<svg width="402" height="299" viewBox="0 0 402 299" fill="none" xmlns="http://www.w3.org/2000/svg">
    <path d="M30.0891 121.507C27.9416 54.7196 65.0666 39.385 87.9901 29.3273C110.914 19.2697 140.811 15.8875 188.699 19.2697C250.773 23.6538 288.259 29.1857 327.014 58.7266C363.786 86.7567 398.393 144.781 338.799 206.002C299.398 246.479 237.864 274.813 163.774 271.777C89.6835 268.742 32.7736 204.99 30.0891 121.507Z" fill="white"/>
    <g filter="url(#filter0_d)">
        <path d="M218.507 111.934C218.609 111.194 218.661 110.445 218.661 109.709C218.661 99.5013 209.138 91.1088 197.394 91C190.694 91.064 184.529 93.8075 180.481 98.5275C177.124 102.442 175.651 107.209 176.33 111.907L176.824 115.881C174.789 117.266 173.462 119.805 173.462 122.643C173.462 126.315 175.646 129.398 178.584 130.262C179.841 135.857 182.922 140.507 187.014 143.459L186.829 145.751C186.618 145.78 186.408 145.832 186.205 145.928L184.59 146.698C182.945 147.485 181.099 148.07 178.761 148.54C172.604 149.826 167.243 154.957 165.102 161.612C164.938 162.123 164.973 162.679 165.2 163.166C171.739 177.198 184.987 187 197.418 187C200.886 187 204.435 186.254 207.982 184.796C210.182 186.184 212.777 187 215.565 187C223.432 187 229.832 180.6 229.832 172.733C229.832 170.315 229.222 168.038 228.157 166.041C228.699 165.06 229.201 164.101 229.637 163.16C229.766 162.878 229.835 162.563 229.835 162.253C229.835 162.03 229.8 161.809 229.731 161.597C227.581 154.951 222.221 149.826 216.059 148.536C213.734 148.069 211.892 147.485 210.252 146.695L208.641 145.927C208.437 145.83 208.225 145.779 208.012 145.749L207.826 143.454C211.92 140.502 215.001 135.853 216.258 130.26C219.197 129.397 221.38 126.313 221.38 122.641C221.38 119.811 220.054 117.27 218.024 115.882C218.109 115.162 218.197 114.439 218.294 113.698C218.356 113.109 218.433 112.507 218.507 111.934ZM215.565 182.733C210.051 182.733 205.565 178.247 205.565 172.733C205.565 167.22 210.051 162.733 215.565 162.733C221.078 162.733 225.565 167.22 225.565 172.733C225.565 178.247 221.078 182.733 215.565 182.733ZM204.012 149.219L201.444 152.337C200.696 153.246 200.826 154.589 201.734 155.339C202.131 155.667 202.611 155.826 203.09 155.826C203.706 155.826 204.316 155.561 204.738 155.048L207.855 151.263C208.048 151.029 208.18 150.758 208.259 150.471L208.409 150.541C210.344 151.474 212.571 152.185 215.201 152.714C219.64 153.642 223.571 157.3 225.4 162.133C225.368 162.198 225.33 162.264 225.298 162.329C222.747 159.94 219.329 158.465 215.566 158.465C207.699 158.465 201.299 164.865 201.299 172.731C201.299 176.071 202.461 179.14 204.39 181.573C202.03 182.34 199.694 182.733 197.418 182.733C186.811 182.733 175.41 174.303 169.439 162.135C171.261 157.3 175.19 153.643 179.62 152.718C182.261 152.187 184.49 151.477 186.432 150.547L186.584 150.474C186.662 150.76 186.795 151.031 186.988 151.265L193.182 158.782C194.195 160.013 195.692 160.742 197.284 160.782C197.331 160.783 197.377 160.783 197.423 160.783C198.968 160.783 200.44 160.136 201.482 158.993C202.275 158.122 202.212 156.773 201.341 155.979C200.47 155.183 199.119 155.249 198.328 156.12C198.001 156.476 197.594 156.522 197.392 156.517C197.183 156.511 196.787 156.446 196.477 156.07L190.832 149.219L191.117 145.701C193.102 146.474 195.219 146.906 197.418 146.906C199.619 146.906 201.741 146.473 203.729 145.698L204.012 149.219ZM214.666 126.241C214.602 126.234 214.539 126.241 214.475 126.239C214.425 126.239 214.376 126.236 214.326 126.239C214.228 126.246 214.134 126.262 214.04 126.281C214.005 126.289 213.969 126.291 213.935 126.299C213.674 126.365 213.429 126.481 213.213 126.636C213.201 126.645 213.19 126.655 213.179 126.665C213.087 126.734 213 126.81 212.92 126.893C212.894 126.92 212.873 126.95 212.849 126.978C212.788 127.048 212.731 127.119 212.68 127.197C212.651 127.24 212.627 127.287 212.602 127.332C212.563 127.401 212.527 127.47 212.496 127.544C212.473 127.599 212.453 127.658 212.435 127.716C212.422 127.756 212.403 127.793 212.393 127.834C212.384 127.866 212.385 127.898 212.379 127.93C212.371 127.964 212.358 127.995 212.352 128.029C211.032 136.359 204.608 142.638 197.413 142.638C190.226 142.638 183.808 136.358 182.486 128.029C182.481 127.994 182.467 127.964 182.46 127.93C182.453 127.898 182.453 127.867 182.446 127.835C182.435 127.794 182.417 127.757 182.404 127.718C182.385 127.658 182.366 127.599 182.342 127.543C182.313 127.473 182.278 127.405 182.242 127.339C182.214 127.289 182.189 127.24 182.158 127.193C182.112 127.125 182.061 127.062 182.009 126.999C181.977 126.962 181.948 126.922 181.914 126.887C181.852 126.823 181.784 126.766 181.714 126.711C181.681 126.684 181.651 126.654 181.616 126.63C181.53 126.568 181.437 126.517 181.342 126.469C181.307 126.451 181.272 126.433 181.234 126.417C181.131 126.372 181.024 126.332 180.914 126.303C180.863 126.29 180.81 126.285 180.757 126.276C180.678 126.261 180.6 126.246 180.517 126.241C180.466 126.237 180.415 126.241 180.363 126.241C180.3 126.241 180.237 126.235 180.173 126.241C178.841 126.182 177.73 124.558 177.73 122.642C177.73 120.743 178.746 119.434 179.748 119.124C179.858 119.09 179.96 119.042 180.06 118.991C180.611 119.025 181.174 119.046 181.763 119.046C181.987 119.046 182.213 119.044 182.444 119.038C183.875 119.004 185.31 118.857 186.706 118.601C187.866 118.39 188.633 117.278 188.419 116.119C188.209 114.961 187.105 114.193 185.937 114.406C184.76 114.621 183.55 114.745 182.349 114.774C181.871 114.783 181.422 114.777 180.98 114.763L180.558 111.338C180.052 107.835 181.174 104.273 183.72 101.306C186.966 97.5205 191.965 95.32 197.394 95.2677C206.768 95.3541 214.395 101.833 214.395 109.71C214.395 110.043 214.352 110.39 214.323 110.732C210.814 109.509 207.834 107.213 205.631 103.964C205.613 103.937 205.588 103.916 205.569 103.89C205.524 103.83 205.477 103.773 205.426 103.718C205.375 103.662 205.323 103.611 205.267 103.563C205.243 103.541 205.224 103.515 205.197 103.495C205.17 103.474 205.141 103.461 205.114 103.442C205.053 103.397 204.99 103.356 204.925 103.319C204.864 103.284 204.803 103.252 204.74 103.223C204.681 103.196 204.62 103.173 204.558 103.151C204.488 103.127 204.417 103.106 204.345 103.089C204.285 103.075 204.224 103.065 204.163 103.055C204.089 103.045 204.016 103.037 203.941 103.034C203.878 103.032 203.817 103.034 203.753 103.037C203.679 103.042 203.608 103.047 203.535 103.059C203.472 103.068 203.411 103.082 203.349 103.098C203.276 103.116 203.203 103.139 203.131 103.164C203.075 103.185 203.021 103.208 202.966 103.234C202.891 103.269 202.817 103.308 202.746 103.353C202.72 103.369 202.693 103.378 202.668 103.395C202.642 103.412 202.623 103.434 202.6 103.452C202.537 103.499 202.477 103.548 202.419 103.603C202.365 103.653 202.315 103.704 202.267 103.758C202.244 103.783 202.219 103.802 202.198 103.829C198.674 108.239 194.692 111.364 190.363 113.115C189.27 113.558 188.742 114.802 189.185 115.893C189.521 116.723 190.32 117.227 191.164 117.227C191.429 117.227 191.7 117.176 191.963 117.071C196.264 115.331 200.23 112.458 203.788 108.531C206.5 111.67 209.906 113.9 213.829 115.069C213.758 115.663 213.681 116.257 213.615 116.85C213.615 116.852 213.615 116.854 213.615 116.856C213.602 116.975 213.604 117.093 213.611 117.21C213.612 117.235 213.609 117.26 213.611 117.285C213.617 117.356 213.637 117.423 213.65 117.493C213.712 117.813 213.841 118.11 214.032 118.364C214.044 118.38 214.052 118.399 214.065 118.415C214.139 118.507 214.222 118.59 214.309 118.668C214.324 118.682 214.336 118.698 214.351 118.711C214.457 118.801 214.571 118.881 214.693 118.949C214.707 118.956 214.724 118.961 214.738 118.968C214.848 119.027 214.963 119.078 215.085 119.117C215.087 119.118 215.089 119.119 215.091 119.121C216.094 119.437 217.11 120.747 217.11 122.642C217.112 124.556 216.003 126.179 214.666 126.241Z" fill="#5B5FF0"/>
        <path d="M222.22 166.454C221.26 165.77 219.93 165.991 219.244 166.951L214.219 173.987L210.889 170.658C210.055 169.825 208.705 169.825 207.872 170.658C207.039 171.491 207.039 172.841 207.872 173.674L212.982 178.785C213.383 179.187 213.927 179.41 214.491 179.41C214.549 179.41 214.607 179.407 214.667 179.402C215.292 179.35 215.862 179.026 216.226 178.516L222.717 169.43C223.401 168.472 223.179 167.14 222.22 166.454Z" fill="#5B5FF0"/>
    </g>
    <path d="M1.10457 122.029C-1.41454 43.936 42.1338 26.0053 69.0235 14.245C95.9132 2.48467 130.984 -1.47011 187.158 2.48467C259.972 7.61099 303.943 14.0793 349.403 48.6212C392.538 81.3966 433.133 149.244 363.228 220.83C317.009 268.159 244.829 301.289 157.92 297.74C71.01 294.19 4.25347 219.646 1.10457 122.029Z" stroke="#5B5FF0" stroke-width="2" stroke-dasharray="4 8"/>
    <defs>
        <filter id="filter0_d" x="129" y="79" width="136" height="136" filterUnits="userSpaceOnUse" color-interpolation-filters="sRGB">
            <feFlood flood-opacity="0" result="BackgroundImageFix"/>
            <feColorMatrix in="SourceAlpha" type="matrix" values="0 0 0 0 0 0 0 0 0 0 0 0 0 0 0 0 0 0 127 0"/>
            <feOffset dy="8"/>
            <feGaussianBlur stdDeviation="10"/>
            <feColorMatrix type="matrix" values="0 0 0 0 0.427451 0 0 0 0 0.443137 0 0 0 0 0.976471 0 0 0 0.4 0"/>
            <feBlend mode="normal" in2="BackgroundImageFix" result="effect1_dropShadow"/>
            <feBlend mode="normal" in="SourceGraphic" in2="effect1_dropShadow" result="shape"/>
        </filter>
    </defs>
</svg>
