<svg width="306" height="80" viewBox="0 0 306 80" fill="none" xmlns="http://www.w3.org/2000/svg">
    <path d="M0 78.3451L26.2733 60.9074C30.8942 57.8405 33.672 52.6629 33.672 47.1168V27.6425C33.672 27.6425 33.672 32.3915 31.6189 34.6263C29.5657 36.8611 24.0906 40.0078 24.0906 40.0078L0 55.9968V78.3451Z" fill="url(#paint0_linear)"/>
    <path d="M0.000488281 1.10541L26.2737 18.5431C30.8947 21.6101 33.6725 26.7876 33.6725 32.3338V51.8081C33.6725 51.8081 33.6725 47.0591 31.6193 44.8242C29.5662 42.5894 24.091 39.4427 24.091 39.4427L0.000488281 23.4537V1.10541Z" fill="#70EFDE"/>
    <path d="M71.724 78.3451L45.4508 60.9074C40.8298 57.8405 38.052 52.6629 38.052 47.1168V27.6425C38.052 27.6425 38.052 32.3915 40.1052 34.6263C42.1583 36.8611 47.6335 40.0078 47.6335 40.0078L71.724 55.9968V78.3451Z" fill="url(#paint1_linear)"/>
    <path d="M71.724 1.10333L45.4508 18.541C40.8298 21.608 38.052 26.7855 38.052 32.3317V51.806C38.052 51.806 38.052 47.057 40.1052 44.8222C42.1583 42.5873 47.6335 39.4406 47.6335 39.4406L71.724 23.4516V1.10333Z" fill="#D1DAE0"/>
    <path d="M118.627 45.9895V52.9264H127.898V57.3263H118.627V64.6596H129.082V69.1785H113.104V41.4706H129.082V45.9895H118.627Z" fill="white" fill-opacity="0.74"/>
    <path d="M146.233 69.1785L141.735 62.3605L137.75 69.1785H131.833L138.973 58.1588L131.754 47.2183H137.987L142.445 53.9966L146.469 47.2183H152.387L145.207 58.1588L152.466 69.1785H146.233Z" fill="white" fill-opacity="0.74"/>
    <path d="M154.105 58.1984C154.105 55.9257 154.565 53.9438 155.485 52.2525C156.406 50.5348 157.682 49.2135 159.312 48.2886C160.943 47.3372 162.81 46.8616 164.914 46.8616C167.623 46.8616 169.859 47.5486 171.621 48.9228C173.41 50.2705 174.606 52.1732 175.211 54.6309H169.254C168.938 53.6795 168.399 52.9396 167.637 52.4111C166.9 51.8561 165.98 51.5786 164.875 51.5786C163.297 51.5786 162.048 52.16 161.127 53.3228C160.206 54.4591 159.746 56.0843 159.746 58.1984C159.746 60.2861 160.206 61.9113 161.127 63.074C162.048 64.2104 163.297 64.7785 164.875 64.7785C167.11 64.7785 168.57 63.7743 169.254 61.7659H175.211C174.606 64.1443 173.41 66.0338 171.621 67.4344C169.833 68.835 167.597 69.5352 164.914 69.5352C162.81 69.5352 160.943 69.0728 159.312 68.1479C157.682 67.1965 156.406 65.8752 155.485 64.1839C154.565 62.4662 154.105 60.4711 154.105 58.1984Z" fill="white" fill-opacity="0.74"/>
    <path d="M191.625 46.9012C193.282 46.9012 194.755 47.2712 196.044 48.0111C197.333 48.7246 198.332 49.7949 199.042 51.2219C199.779 52.6225 200.147 54.3137 200.147 56.2957V69.1785H194.624V57.0489C194.624 55.3047 194.19 53.9702 193.322 53.0453C192.454 52.0939 191.27 51.6183 189.771 51.6183C188.246 51.6183 187.036 52.0939 186.142 53.0453C185.274 53.9702 184.84 55.3047 184.84 57.0489V69.1785H179.317V39.8454H184.84V49.9534C185.55 49.0021 186.497 48.2621 187.68 47.7336C188.864 47.1787 190.179 46.9012 191.625 46.9012Z" fill="white" fill-opacity="0.74"/>
    <path d="M204.038 58.1191C204.038 55.8993 204.472 53.9306 205.34 52.2129C206.234 50.4952 207.431 49.1739 208.93 48.2489C210.456 47.324 212.152 46.8616 214.019 46.8616C215.65 46.8616 217.07 47.1919 218.28 47.8525C219.516 48.5132 220.503 49.3456 221.239 50.3498V47.2183H226.802V69.1785H221.239V65.9677C220.529 66.9983 219.543 67.8572 218.28 68.5443C217.044 69.2049 215.611 69.5352 213.98 69.5352C212.139 69.5352 210.456 69.0596 208.93 68.1082C207.431 67.1569 206.234 65.8224 205.34 64.1047C204.472 62.3605 204.038 60.3653 204.038 58.1191ZM221.239 58.1984C221.239 56.8507 220.976 55.7011 220.45 54.7498C219.924 53.772 219.214 53.0321 218.32 52.53C217.425 52.0015 216.465 51.7372 215.44 51.7372C214.414 51.7372 213.467 51.9882 212.599 52.4903C211.731 52.9924 211.021 53.7324 210.469 54.7101C209.943 55.6615 209.68 56.7978 209.68 58.1191C209.68 59.4404 209.943 60.6032 210.469 61.6074C211.021 62.5851 211.731 63.3383 212.599 63.8668C213.493 64.3953 214.44 64.6596 215.44 64.6596C216.465 64.6596 217.425 64.4086 218.32 63.9065C219.214 63.3779 219.924 62.638 220.45 61.6867C220.976 60.7089 221.239 59.5461 221.239 58.1984Z" fill="white" fill-opacity="0.74"/>
    <path d="M244.367 46.9012C246.971 46.9012 249.075 47.7336 250.679 49.3985C252.284 51.0369 253.086 53.336 253.086 56.2957V69.1785H247.563V57.0489C247.563 55.3047 247.129 53.9702 246.261 53.0453C245.393 52.0939 244.209 51.6183 242.71 51.6183C241.185 51.6183 239.975 52.0939 239.08 53.0453C238.213 53.9702 237.779 55.3047 237.779 57.0489V69.1785H232.255V47.2183H237.779V49.9534C238.515 49.0021 239.449 48.2621 240.58 47.7336C241.737 47.1787 242.999 46.9012 244.367 46.9012Z" fill="white" fill-opacity="0.74"/>
    <path d="M266.958 46.8616C268.589 46.8616 270.022 47.1919 271.258 47.8525C272.495 48.4868 273.468 49.3192 274.178 50.3498V47.2183H279.74V69.337C279.74 71.3719 279.333 73.1821 278.518 74.7676C277.702 76.3796 276.479 77.6481 274.849 78.573C273.218 79.5244 271.245 80 268.931 80C265.827 80 263.276 79.2733 261.277 77.8199C259.305 76.3664 258.187 74.3845 257.924 71.874H263.408C263.697 72.8782 264.315 73.6709 265.262 74.2523C266.235 74.8601 267.405 75.164 268.773 75.164C270.377 75.164 271.679 74.6751 272.679 73.6974C273.678 72.746 274.178 71.2926 274.178 69.337V65.9281C273.468 66.9587 272.481 67.8175 271.219 68.5046C269.983 69.1917 268.563 69.5352 266.958 69.5352C265.117 69.5352 263.434 69.0596 261.908 68.1082C260.383 67.1569 259.173 65.8224 258.279 64.1047C257.411 62.3605 256.977 60.3653 256.977 58.1191C256.977 55.8993 257.411 53.9306 258.279 52.2129C259.173 50.4952 260.37 49.1739 261.869 48.2489C263.394 47.324 265.091 46.8616 266.958 46.8616ZM274.178 58.1984C274.178 56.8507 273.915 55.7011 273.389 54.7498C272.863 53.772 272.153 53.0321 271.258 52.53C270.364 52.0015 269.404 51.7372 268.378 51.7372C267.353 51.7372 266.406 51.9882 265.538 52.4903C264.67 52.9924 263.96 53.7324 263.408 54.7101C262.882 55.6615 262.619 56.7978 262.619 58.1191C262.619 59.4404 262.882 60.6032 263.408 61.6074C263.96 62.5851 264.67 63.3383 265.538 63.8668C266.432 64.3953 267.379 64.6596 268.378 64.6596C269.404 64.6596 270.364 64.4086 271.258 63.9065C272.153 63.3779 272.863 62.638 273.389 61.6867C273.915 60.7089 274.178 59.5461 274.178 58.1984Z" fill="white" fill-opacity="0.74"/>
    <path d="M305.512 57.7227C305.512 58.5155 305.459 59.229 305.354 59.8632H289.376C289.507 61.4488 290.06 62.6909 291.033 63.5893C292.006 64.4878 293.203 64.9371 294.623 64.9371C296.674 64.9371 298.134 64.0518 299.002 62.2812H304.959C304.328 64.3953 303.118 66.1395 301.33 67.5136C299.541 68.8614 297.345 69.5352 294.741 69.5352C292.637 69.5352 290.744 69.0728 289.06 68.1479C287.403 67.1965 286.101 65.862 285.155 64.1443C284.234 62.4266 283.774 60.4446 283.774 58.1984C283.774 55.9257 284.234 53.9306 285.155 52.2129C286.075 50.4952 287.364 49.1739 289.021 48.2489C290.678 47.324 292.585 46.8616 294.741 46.8616C296.819 46.8616 298.673 47.3108 300.304 48.2093C301.961 49.1078 303.237 50.3895 304.131 52.0543C305.051 53.6927 305.512 55.5822 305.512 57.7227ZM299.791 56.1372C299.765 54.7101 299.252 53.5738 298.253 52.7282C297.253 51.8561 296.03 51.4201 294.584 51.4201C293.216 51.4201 292.059 51.8429 291.112 52.6885C290.191 53.5077 289.626 54.6573 289.415 56.1372H299.791Z" fill="white" fill-opacity="0.74"/>
    <path d="M123.393 29.6741C121.459 29.6741 119.711 29.3431 118.149 28.681C116.613 28.0189 115.395 27.0655 114.494 25.8208C113.594 24.5761 113.13 23.1063 113.104 21.4114H119.063C119.142 22.5502 119.539 23.4506 120.254 24.1127C120.996 24.7748 122.002 25.1058 123.273 25.1058C124.571 25.1058 125.591 24.8012 126.332 24.1921C127.074 23.5565 127.444 22.7356 127.444 21.7292C127.444 20.9083 127.193 20.2329 126.69 19.7033C126.187 19.1736 125.551 18.7631 124.783 18.4718C124.041 18.154 123.009 17.8098 121.684 17.439C119.884 16.9093 118.414 16.3929 117.275 15.8897C116.163 15.3601 115.196 14.5788 114.375 13.546C113.581 12.4867 113.183 11.0831 113.183 9.33523C113.183 7.69328 113.594 6.26321 114.415 5.04499C115.236 3.82678 116.388 2.89988 117.871 2.26429C119.354 1.60222 121.049 1.27118 122.956 1.27118C125.816 1.27118 128.133 1.97298 129.907 3.37657C131.708 4.75368 132.701 6.68693 132.887 9.17633H126.769C126.716 8.22294 126.306 7.4417 125.538 6.83259C124.796 6.197 123.803 5.8792 122.558 5.8792C121.473 5.8792 120.599 6.15727 119.937 6.71341C119.301 7.26956 118.983 8.07729 118.983 9.1366C118.983 9.87812 119.222 10.5005 119.698 11.0036C120.201 11.4803 120.811 11.8776 121.526 12.1954C122.267 12.4867 123.3 12.831 124.624 13.2282C126.425 13.7579 127.895 14.2875 129.033 14.8172C130.172 15.3468 131.152 16.1413 131.973 17.2006C132.794 18.26 133.205 19.6503 133.205 21.3717C133.205 22.8547 132.821 24.2319 132.053 25.503C131.285 26.7742 130.159 27.7938 128.676 28.5618C127.193 29.3033 125.432 29.6741 123.393 29.6741Z" fill="white"/>
    <path d="M158.802 7.38873V29.396H153.201V26.6153C152.486 27.5687 151.546 28.3235 150.38 28.8796C149.242 29.4093 147.997 29.6741 146.646 29.6741C144.925 29.6741 143.402 29.3166 142.078 28.6015C140.754 27.86 139.708 26.7875 138.94 25.3839C138.198 23.9538 137.827 22.2589 137.827 20.2991V7.38873H143.389V19.5047C143.389 21.2525 143.826 22.6032 144.7 23.5565C145.574 24.4834 146.765 24.9469 148.275 24.9469C149.811 24.9469 151.016 24.4834 151.89 23.5565C152.764 22.6032 153.201 21.2525 153.201 19.5047V7.38873H158.802Z" fill="white"/>
    <path d="M169.851 10.5667C170.566 9.56033 171.545 8.72612 172.79 8.06404C174.061 7.37549 175.505 7.03121 177.12 7.03121C179 7.03121 180.695 7.49466 182.205 8.42156C183.741 9.34846 184.946 10.6726 185.82 12.394C186.72 14.0889 187.17 16.0619 187.17 18.3129C187.17 20.564 186.72 22.5634 185.82 24.3113C184.946 26.0327 183.741 27.3701 182.205 28.3235C180.695 29.2769 179 29.7535 177.12 29.7535C175.505 29.7535 174.075 29.4225 172.83 28.7604C171.612 28.0984 170.619 27.2641 169.851 26.2578V39.8833H164.289V7.38873H169.851V10.5667ZM181.49 18.3129C181.49 16.9888 181.212 15.85 180.656 14.8966C180.126 13.9168 179.411 13.1752 178.51 12.6721C177.637 12.1689 176.683 11.9173 175.65 11.9173C174.644 11.9173 173.691 12.1821 172.79 12.7118C171.916 13.215 171.201 13.9565 170.645 14.9364C170.115 15.9162 169.851 17.0682 169.851 18.3924C169.851 19.7165 170.115 20.8685 170.645 21.8484C171.201 22.8283 171.916 23.583 172.79 24.1127C173.691 24.6159 174.644 24.8674 175.65 24.8674C176.683 24.8674 177.637 24.6026 178.51 24.073C179.411 23.5433 180.126 22.7885 180.656 21.8087C181.212 20.8288 181.49 19.6636 181.49 18.3129Z" fill="white"/>
    <path d="M196.773 10.5667C197.488 9.56033 198.468 8.72612 199.713 8.06404C200.984 7.37549 202.427 7.03121 204.043 7.03121C205.923 7.03121 207.618 7.49466 209.127 8.42156C210.663 9.34846 211.868 10.6726 212.742 12.394C213.643 14.0889 214.093 16.0619 214.093 18.3129C214.093 20.564 213.643 22.5634 212.742 24.3113C211.868 26.0327 210.663 27.3701 209.127 28.3235C207.618 29.2769 205.923 29.7535 204.043 29.7535C202.427 29.7535 200.997 29.4225 199.752 28.7604C198.534 28.0984 197.541 27.2641 196.773 26.2578V39.8833H191.212V7.38873H196.773V10.5667ZM208.412 18.3129C208.412 16.9888 208.134 15.85 207.578 14.8966C207.048 13.9168 206.333 13.1752 205.433 12.6721C204.559 12.1689 203.606 11.9173 202.573 11.9173C201.567 11.9173 200.613 12.1821 199.713 12.7118C198.839 13.215 198.124 13.9565 197.568 14.9364C197.038 15.9162 196.773 17.0682 196.773 18.3924C196.773 19.7165 197.038 20.8685 197.568 21.8484C198.124 22.8283 198.839 23.583 199.713 24.1127C200.613 24.6159 201.567 24.8674 202.573 24.8674C203.606 24.8674 204.559 24.6026 205.433 24.073C206.333 23.5433 207.048 22.7885 207.578 21.8087C208.134 20.8288 208.412 19.6636 208.412 18.3129Z" fill="white"/>
    <path d="M223.696 0V29.396H218.134V0H223.696Z" fill="white"/>
    <path d="M250.244 7.38873L236.619 39.8038H230.7L235.467 28.8399L226.648 7.38873H232.885L238.565 22.7621L244.325 7.38873H250.244Z" fill="white"/>
    <defs>
        <linearGradient id="paint0_linear" x1="16.836" y1="27.6425" x2="16.836" y2="78.3451" gradientUnits="userSpaceOnUse">
            <stop stop-color="#00C4B4"/>
            <stop offset="1" stop-color="#00C4B4" stop-opacity="0"/>
        </linearGradient>
        <linearGradient id="paint1_linear" x1="54.888" y1="27.6425" x2="54.888" y2="78.3446" gradientUnits="userSpaceOnUse">
            <stop stop-color="#ECEFF1" stop-opacity="0"/>
            <stop offset="1" stop-color="#ECEFF1"/>
        </linearGradient>
    </defs>
</svg>
