<svg width="56" height="56" viewBox="0 0 56 56" fill="none" xmlns="http://www.w3.org/2000/svg">
    <circle cx="28" cy="28" r="28" fill="#F8F8FD"/>
    <path d="M41.1303 24.3872C39.5751 17.6699 34.2176 13 28.0138 13C21.7927 13 16.4525 17.6599 14.8972 24.3838C13.2662 24.5812 12 25.936 12 27.5752V31.9608C12 33.7337 13.483 35.1789 15.3101 35.1789C17.1372 35.1789 18.6202 33.7371 18.6202 31.9608V27.5718C18.6202 26.0096 17.4675 24.705 15.9467 24.4139C17.4503 18.2554 22.3398 14.0036 28.0138 14.0036C33.6705 14.0036 38.5738 18.262 40.0774 24.4139C38.5428 24.6949 37.3798 26.0029 37.3798 27.5752V31.9608C37.3798 33.5564 38.5806 34.8811 40.1497 35.132C39.9088 38.039 37.4039 40.3339 34.3553 40.3339H31.5475C31.3135 39.3805 30.4327 38.6713 29.3832 38.6713H26.6168C25.3884 38.6713 24.3905 39.6414 24.3905 40.8356C24.3905 42.0299 25.3884 43 26.6168 43H29.3832C30.4327 43 31.3135 42.2875 31.5475 41.3374H34.3553C37.9716 41.3374 40.9376 38.5943 41.1819 35.1387C42.7751 34.9079 44 33.5732 44 31.9608V27.5718C44 25.946 42.7475 24.5979 41.1303 24.3872ZM17.588 27.5718V31.9574C17.588 33.1784 16.566 34.1719 15.3101 34.1719C14.0542 34.1719 13.0323 33.1818 13.0323 31.9608V27.5718C13.0323 26.411 13.9544 25.461 15.1243 25.3673C15.1862 25.364 15.2482 25.3573 15.3101 25.3573C15.372 25.3573 15.434 25.3606 15.4959 25.3673C16.6624 25.461 17.588 26.4144 17.588 27.5718ZM29.3832 41.9964H26.6168C25.9561 41.9964 25.4228 41.4746 25.4228 40.8356C25.4228 40.1934 25.9596 39.6748 26.6168 39.6748H29.3832C30.0439 39.6748 30.5772 40.1967 30.5772 40.8356C30.5772 41.4746 30.0404 41.9964 29.3832 41.9964ZM42.9677 31.9608C42.9677 33.1818 41.9458 34.1753 40.6899 34.1753C39.434 34.1753 38.412 33.1818 38.412 31.9608V27.5718C38.412 26.3508 39.434 25.3573 40.6899 25.3573C41.9458 25.3573 42.9677 26.3508 42.9677 27.5718V31.9608Z" fill="#5B5FF0"/>
</svg>
