<svg width="56" height="56" viewBox="8 0 56 56" fill="none" xmlns="http://www.w3.org/2000/svg">
    <circle cx="36" cy="28" r="28" fill="#F8F8FD"/>
    <g filter="url(#filter0_d)">
        <path d="M49.1303 24.3872C47.5751 17.6699 42.2176 13 36.0138 13C29.7927 13 24.4525 17.6599 22.8972 24.3838C21.2662 24.5812 20 25.936 20 27.5752V31.9608C20 33.7337 21.483 35.1789 23.3101 35.1789C25.1372 35.1789 26.6202 33.7371 26.6202 31.9608V27.5718C26.6202 26.0096 25.4675 24.705 23.9467 24.4139C25.4503 18.2554 30.3398 14.0036 36.0138 14.0036C41.6705 14.0036 46.5738 18.262 48.0774 24.4139C46.5428 24.6949 45.3798 26.0029 45.3798 27.5752V31.9608C45.3798 33.5564 46.5806 34.8811 48.1497 35.132C47.9088 38.039 45.4039 40.3339 42.3553 40.3339H39.5475C39.3135 39.3805 38.4327 38.6713 37.3832 38.6713H34.6168C33.3884 38.6713 32.3905 39.6414 32.3905 40.8356C32.3905 42.0299 33.3884 43 34.6168 43H37.3832C38.4327 43 39.3135 42.2875 39.5475 41.3374H42.3553C45.9716 41.3374 48.9376 38.5943 49.1819 35.1387C50.7751 34.9079 52 33.5732 52 31.9608V27.5718C52 25.946 50.7475 24.5979 49.1303 24.3872ZM25.588 27.5718V31.9574C25.588 33.1784 24.566 34.1719 23.3101 34.1719C22.0542 34.1719 21.0323 33.1818 21.0323 31.9608V27.5718C21.0323 26.411 21.9544 25.461 23.1243 25.3673C23.1862 25.364 23.2482 25.3573 23.3101 25.3573C23.372 25.3573 23.434 25.3606 23.4959 25.3673C24.6624 25.461 25.588 26.4144 25.588 27.5718ZM37.3832 41.9964H34.6168C33.9561 41.9964 33.4228 41.4746 33.4228 40.8356C33.4228 40.1934 33.9596 39.6748 34.6168 39.6748H37.3832C38.0439 39.6748 38.5772 40.1967 38.5772 40.8356C38.5772 41.4746 38.0404 41.9964 37.3832 41.9964ZM50.9677 31.9608C50.9677 33.1818 49.9458 34.1753 48.6899 34.1753C47.434 34.1753 46.412 33.1818 46.412 31.9608V27.5718C46.412 26.3508 47.434 25.3573 48.6899 25.3573C49.9458 25.3573 50.9677 26.3508 50.9677 27.5718V31.9608Z" fill="#5B5FF0"/>
    </g>
    <defs>
        <filter id="filter0_d" x="0" y="0" width="72" height="72" filterUnits="userSpaceOnUse" color-interpolation-filters="sRGB">
            <feFlood flood-opacity="0" result="BackgroundImageFix"/>
            <feColorMatrix in="SourceAlpha" type="matrix" values="0 0 0 0 0 0 0 0 0 0 0 0 0 0 0 0 0 0 127 0"/>
            <feOffset dy="8"/>
            <feGaussianBlur stdDeviation="10"/>
            <feColorMatrix type="matrix" values="0 0 0 0 0.427451 0 0 0 0 0.443137 0 0 0 0 0.976471 0 0 0 0.49 0"/>
            <feBlend mode="normal" in2="BackgroundImageFix" result="effect1_dropShadow"/>
            <feBlend mode="normal" in="SourceGraphic" in2="effect1_dropShadow" result="shape"/>
        </filter>
    </defs>
</svg>
