<svg width="52" height="56" viewBox="0 0 52 56" fill="none" xmlns="http://www.w3.org/2000/svg">
    <g clip-path="url(#clip0)" filter="url(#filter0_d)">
        <path d="M32.1128 15.0139C32.6058 15.5101 33.4438 15.5101 33.9368 15.0139L34.3312 14.617C34.8241 14.1209 34.8241 13.2775 34.3312 12.7814L33.9861 12.4341L37.2396 9.15969C38.4227 7.96899 38.4227 6.08372 37.2396 4.89302C36.0565 3.70233 34.1833 3.70233 33.0002 4.89302L29.7466 8.16744L29.4015 7.82015C28.9086 7.32403 28.0705 7.32403 27.5776 7.82015L27.1832 8.21705C26.6902 8.71318 26.6902 9.55659 27.1832 10.0527L27.7748 10.6481L15.1056 23.4481C15.0563 23.4977 15.007 23.5969 14.9577 23.6961L14.169 27.3674C14.1197 27.5163 14.169 27.7147 14.2676 27.8139C14.3662 27.9628 14.5634 28.0124 14.7113 27.9628L18.5071 27.3178C18.6057 27.3178 18.7043 27.2682 18.7535 27.169L31.472 14.369L32.1128 15.0139ZM33.6903 5.5876C34.479 4.7938 35.7608 4.7938 36.5002 5.5876C37.2889 6.38139 37.2889 7.67132 36.5002 8.4155L33.2466 11.6899L30.4368 8.86201L33.6903 5.5876ZM27.8734 8.86201L28.2677 8.46511C28.4156 8.31628 28.6128 8.31628 28.7114 8.46511L33.641 13.4264C33.7396 13.5256 33.7889 13.7736 33.641 13.8729L33.2466 14.2698C33.1481 14.369 32.9016 14.369 32.803 14.2698L27.8734 9.30852C27.7748 9.2093 27.7748 9.01085 27.8734 8.86201ZM18.2113 26.3752L15.2535 26.8713L15.8944 24.0434L21.5141 18.3876C23.486 17.9907 25.8029 17.8419 26.2466 18.2884L18.2113 26.3752ZM26.9367 17.5938C26.1973 16.8496 24.2254 16.9984 22.6972 17.1969L26.7395 13.1287L27.5776 13.9721C27.7748 14.1705 28.0705 14.1705 28.2677 13.9721C28.4649 13.7736 28.4649 13.476 28.2677 13.2775L27.4297 12.4341L28.5142 11.3426L30.8311 13.6744L26.9367 17.5938Z" fill="#5B5FF0"/>
        <path d="M14.0211 29.7488C13.6761 30.1457 12 32.1302 12 33.3209C12 34.6604 13.0845 35.7519 14.4155 35.7519C15.7465 35.7519 16.831 34.6604 16.831 33.3209C16.831 32.1302 15.1057 30.1457 14.8099 29.7488C14.5634 29.5504 14.2183 29.5504 14.0211 29.7488ZM14.4155 34.7597C13.6268 34.7597 12.9859 34.1147 12.9859 33.3209C12.9859 32.8248 13.7254 31.6837 14.4155 30.8403C15.1057 31.6837 15.8451 32.8248 15.8451 33.3209C15.7958 34.1147 15.155 34.7597 14.4155 34.7597Z" fill="#5B5FF0"/>
        <path d="M39.9999 20.6201C39.9999 19.6278 39.1619 18.7844 38.176 18.7844H29.1548C28.1688 18.7844 27.3308 19.6278 27.3308 20.6201C27.3308 21.4635 27.9224 22.2077 28.7604 22.4061V31.0387C28.7604 33.7674 30.9787 35.9999 33.69 35.9999C36.4013 35.9999 38.6196 33.7674 38.6196 31.0387V22.4061C39.4084 22.2077 39.9999 21.5131 39.9999 20.6201ZM37.6337 22.4557V26.3255C37.1901 26.3255 36.2041 26.2263 34.3802 25.5813C32.5069 24.9364 30.7323 25.7798 29.7463 26.4247V22.4557H37.6337ZM33.69 35.0573C31.521 35.0573 29.7463 33.2712 29.7463 31.0883V27.7147C30.2886 27.2681 32.1618 25.879 34.0844 26.5736C35.5633 27.1193 36.845 27.3674 37.6337 27.3178V31.0883C37.6337 33.2712 35.8591 35.0573 33.69 35.0573ZM38.176 21.4635H29.1548C28.7111 21.4635 28.3167 21.0666 28.3167 20.6201C28.3167 20.1736 28.7111 19.7767 29.1548 19.7767H38.176C38.6197 19.7767 39.014 20.1736 39.014 20.6201C39.014 21.0666 38.6689 21.4635 38.176 21.4635Z" fill="#5B5FF0"/>
    </g>
    <defs>
        <filter id="filter0_d" x="-2" y="0" width="56" height="56" filterUnits="userSpaceOnUse" color-interpolation-filters="sRGB">
            <feFlood flood-opacity="0" result="BackgroundImageFix"/>
            <feColorMatrix in="SourceAlpha" type="matrix" values="0 0 0 0 0 0 0 0 0 0 0 0 0 0 0 0 0 0 127 0"/>
            <feOffset dy="8"/>
            <feGaussianBlur stdDeviation="6"/>
            <feColorMatrix type="matrix" values="0 0 0 0 0.427451 0 0 0 0 0.443137 0 0 0 0 0.976471 0 0 0 0.14 0"/>
            <feBlend mode="normal" in2="BackgroundImageFix" result="effect1_dropShadow"/>
            <feBlend mode="normal" in="SourceGraphic" in2="effect1_dropShadow" result="shape"/>
        </filter>
        <clipPath id="clip0">
            <rect width="32" height="32" fill="white" transform="translate(10 4)"/>
        </clipPath>
    </defs>
</svg>
