<svg width="32" height="32" viewBox="0 0 32 32" fill="none" xmlns="http://www.w3.org/2000/svg">
    <g clip-path="url(#clip0)">
        <path d="M22.1126 11.0139C22.6055 11.5101 23.4436 11.5101 23.9365 11.0139L24.3309 10.617C24.8239 10.1209 24.8239 9.27751 24.3309 8.78139L23.9858 8.4341L27.2394 5.15969C28.4225 3.96899 28.4225 2.08372 27.2394 0.893023C26.0563 -0.297674 24.183 -0.297674 22.9999 0.893023L19.7464 4.16744L19.4013 3.82015C18.9083 3.32403 18.0703 3.32403 17.5773 3.82015L17.183 4.21705C16.69 4.71318 16.69 5.55659 17.183 6.05271L17.7745 6.64806L5.10538 19.4481C5.05609 19.4977 5.00679 19.5969 4.95749 19.6961L4.16875 23.3674C4.11946 23.5163 4.16875 23.7147 4.26735 23.8139C4.36594 23.9628 4.56312 24.0124 4.71101 23.9628L8.50682 23.3178C8.60541 23.3178 8.70401 23.2682 8.7533 23.169L21.4717 10.369L22.1126 11.0139ZM23.6901 1.5876C24.4788 0.793798 25.7605 0.793798 26.5 1.5876C27.2887 2.38139 27.2887 3.67132 26.5 4.4155L23.2464 7.68992L20.4365 4.86201L23.6901 1.5876ZM17.8731 4.86201L18.2675 4.46511C18.4154 4.31628 18.6126 4.31628 18.7111 4.46511L23.6408 9.42635C23.7394 9.52558 23.7887 9.77364 23.6408 9.87286L23.2464 10.2698C23.1478 10.369 22.9013 10.369 22.8027 10.2698L17.8731 5.30852C17.7745 5.2093 17.7745 5.01085 17.8731 4.86201ZM8.21105 22.3752L5.25327 22.8713L5.89412 20.0434L11.5139 14.3876C13.4857 13.9907 15.8027 13.8419 16.2463 14.2884L8.21105 22.3752ZM16.9365 13.5938C16.197 12.8496 14.2252 12.9984 12.697 13.1969L16.7393 9.12868L17.5773 9.97209C17.7745 10.1705 18.0703 10.1705 18.2675 9.97209C18.4647 9.77364 18.4647 9.47596 18.2675 9.27751L17.4294 8.4341L18.514 7.34263L20.8309 9.67441L16.9365 13.5938Z" fill="#5B5FF0"/>
        <path d="M4.02115 25.7488C3.67607 26.1457 2 28.1302 2 29.3209C2 30.6604 3.08452 31.7519 4.41552 31.7519C5.74651 31.7519 6.83103 30.6604 6.83103 29.3209C6.83103 28.1302 5.10566 26.1457 4.80989 25.7488C4.5634 25.5504 4.21833 25.5504 4.02115 25.7488ZM4.41552 30.7597C3.62678 30.7597 2.98592 30.1147 2.98592 29.3209C2.98592 28.8248 3.72537 27.6837 4.41552 26.8403C5.10566 27.6837 5.84511 28.8248 5.84511 29.3209C5.79581 30.1147 5.15496 30.7597 4.41552 30.7597Z" fill="#5B5FF0"/>
        <path d="M30.0002 16.6201C30.0002 15.6279 29.1622 14.7845 28.1762 14.7845H19.155C18.1691 14.7845 17.3311 15.6279 17.3311 16.6201C17.3311 17.4636 17.9226 18.2077 18.7606 18.4062V27.0387C18.7606 29.7674 20.979 32 23.6903 32C26.4016 32 28.6199 29.7674 28.6199 27.0387V18.4062C29.4086 18.2077 30.0002 17.5132 30.0002 16.6201ZM27.634 18.4558V22.3256C27.1903 22.3256 26.2044 22.2263 24.3804 21.5814C22.5072 20.9364 20.7325 21.7798 19.7466 22.4248V18.4558H27.634ZM23.6903 31.0573C21.5212 31.0573 19.7466 29.2713 19.7466 27.0884V23.7147C20.2888 23.2682 22.1621 21.8791 24.0846 22.5736C25.5635 23.1194 26.8452 23.3674 27.634 23.3178V27.0884C27.634 29.2713 25.8593 31.0573 23.6903 31.0573ZM28.1762 17.4636H19.155C18.7113 17.4636 18.317 17.0667 18.317 16.6201C18.317 16.1736 18.7113 15.7767 19.155 15.7767H28.1762C28.6199 15.7767 29.0143 16.1736 29.0143 16.6201C29.0143 17.0667 28.6692 17.4636 28.1762 17.4636Z" fill="#5B5FF0"/>
    </g>
    <defs>
        <clipPath id="clip0">
            <rect width="32" height="32" fill="white"/>
        </clipPath>
    </defs>
</svg>
