<svg width="56" height="53" viewBox="0 0 56 53" fill="none" xmlns="http://www.w3.org/2000/svg">
    <g filter="url(#filter0_d)">
        <path fill-rule="evenodd" clip-rule="evenodd" d="M13.6 4.33337H42.4C42.8242 4.33384 43.2309 4.50256 43.5309 4.80252C43.8308 5.10247 43.9995 5.50917 44 5.93337V25.1334C43.9995 25.5576 43.8308 25.9643 43.5309 26.2642C43.2309 26.5642 42.8242 26.7329 42.4 26.7334H40.6667V25.6667H42.4C42.5414 25.6665 42.6769 25.6103 42.7769 25.5103C42.8769 25.4103 42.9332 25.2748 42.9333 25.1334V5.93337C42.9332 5.79198 42.8769 5.65643 42.7769 5.55645C42.6769 5.45647 42.5414 5.40022 42.4 5.40004H13.6C13.4586 5.40022 13.3231 5.45647 13.2231 5.55645C13.1231 5.65643 13.0669 5.79198 13.0667 5.93337V25.1334C13.0669 25.2748 13.1231 25.4103 13.2231 25.5103C13.3231 25.6103 13.4586 25.6665 13.6 25.6667H29.3333V26.7334H26.2092L23.7493 29.9334H29.3333V30.6667C29.3333 30.7794 29.3395 30.8906 29.3516 31H22.4C22.3335 31.0061 22.2717 31.0369 22.2267 31.0862C22.1816 31.1355 22.1567 31.1999 22.1567 31.2667C22.1567 31.3335 22.1816 31.3979 22.2267 31.4472C22.2717 31.4965 22.3335 31.5273 22.4 31.5334H29.4604C29.5798 31.9297 29.779 32.2915 30.0393 32.6H22.4002C20.7003 32.6 20.6996 29.9255 22.4041 29.9334L24.864 26.7334H13.6C13.1758 26.7329 12.7691 26.5642 12.4691 26.2642C12.1692 25.9643 12.0005 25.5576 12 25.1334V5.93337C12.0005 5.50917 12.1692 5.10247 12.4691 4.80252C12.7691 4.50256 13.1758 4.33384 13.6 4.33337ZM40.6667 22.4155C40.9409 22.3445 41.1938 22.2013 41.3975 21.9976C41.6975 21.6976 41.8662 21.2909 41.8667 20.8667V8.06671C41.8662 7.6425 41.6975 7.23581 41.3975 6.93585C41.0976 6.63589 40.6909 6.46717 40.2667 6.46671H15.7333C15.3091 6.46717 14.9024 6.63589 14.6025 6.93585C14.3025 7.23581 14.1338 7.6425 14.1333 8.06671V20.8667C14.1338 21.2909 14.3025 21.6976 14.6025 21.9976C14.9024 22.2975 15.3091 22.4662 15.7333 22.4667H29.3333V21.4H15.7333C15.5919 21.3999 15.4564 21.3436 15.3564 21.2436C15.2564 21.1436 15.2002 21.0081 15.2 20.8667V8.06671C15.2002 7.92531 15.2564 7.78977 15.3564 7.68979C15.4564 7.58981 15.5919 7.53356 15.7333 7.53337H40.2667C40.4081 7.53356 40.5436 7.58981 40.6436 7.68979C40.7436 7.78977 40.7998 7.92531 40.8 8.06671V20.8667C40.7998 20.9968 40.7522 21.122 40.6667 21.2191V22.4155Z" fill="#5B5FF0"/>
        <path d="M30.6667 19C30.6667 17.8954 31.5622 17 32.6667 17H37.3334C38.438 17 39.3334 17.8954 39.3334 19V30.3333C39.3334 31.4379 38.438 32.3333 37.3334 32.3333H32.6667C31.5622 32.3333 30.6667 31.4379 30.6667 30.3333V19Z"/>
        <path fill-rule="evenodd" clip-rule="evenodd" d="M37.3334 18H32.6667C32.1145 18 31.6667 18.4477 31.6667 19V30.3333C31.6667 30.8856 32.1145 31.3333 32.6667 31.3333H37.3334C37.8857 31.3333 38.3334 30.8856 38.3334 30.3333V19C38.3334 18.4477 37.8857 18 37.3334 18ZM32.6667 17C31.5622 17 30.6667 17.8954 30.6667 19V30.3333C30.6667 31.4379 31.5622 32.3333 32.6667 32.3333H37.3334C38.438 32.3333 39.3334 31.4379 39.3334 30.3333V19C39.3334 17.8954 38.438 17 37.3334 17H32.6667Z" fill="#5B5FF0"/>
        <circle cx="35" cy="29.3334" r="1" fill="#5B5FF0"/>
    </g>
    <defs>
        <filter id="filter0_d" x="0" y="-1" width="56" height="56" filterUnits="userSpaceOnUse" color-interpolation-filters="sRGB">
            <feFlood flood-opacity="0" result="BackgroundImageFix"/>
            <feColorMatrix in="SourceAlpha" type="matrix" values="0 0 0 0 0 0 0 0 0 0 0 0 0 0 0 0 0 0 127 0"/>
            <feOffset dy="8"/>
            <feGaussianBlur stdDeviation="6"/>
            <feColorMatrix type="matrix" values="0 0 0 0 0.427451 0 0 0 0 0.443137 0 0 0 0 0.976471 0 0 0 0.14 0"/>
            <feBlend mode="normal" in2="BackgroundImageFix" result="effect1_dropShadow"/>
            <feBlend mode="normal" in="SourceGraphic" in2="effect1_dropShadow" result="shape"/>
        </filter>
    </defs>
</svg>
