<svg width="32" height="32" viewBox="0 0 32 32" fill="none" xmlns="http://www.w3.org/2000/svg">
    <path fill-rule="evenodd" clip-rule="evenodd" d="M1.6 1.33331H30.4C30.8242 1.33378 31.2309 1.5025 31.5309 1.80246C31.8308 2.10241 31.9995 2.50911 32 2.93331V22.1333C31.9995 22.5575 31.8308 22.9642 31.5309 23.2642C31.2309 23.5641 30.8242 23.7328 30.4 23.7333H28.6667V22.6666H30.4C30.5414 22.6665 30.6769 22.6102 30.7769 22.5102C30.8769 22.4103 30.9332 22.2747 30.9333 22.1333V2.93331C30.9332 2.79192 30.8769 2.65637 30.7769 2.55639C30.6769 2.45641 30.5414 2.40016 30.4 2.39998H1.6C1.45861 2.40016 1.32306 2.45641 1.22308 2.55639C1.1231 2.65637 1.06685 2.79192 1.06667 2.93331V22.1333C1.06685 22.2747 1.1231 22.4103 1.22308 22.5102C1.32306 22.6102 1.45861 22.6665 1.6 22.6666H17.3333V23.7333H14.2092L11.7493 26.9333H17.3333V27.6666C17.3333 27.7793 17.3395 27.8905 17.3516 28H10.4C10.3335 28.0061 10.2717 28.0368 10.2267 28.0861C10.1816 28.1355 10.1567 28.1999 10.1567 28.2666C10.1567 28.3334 10.1816 28.3978 10.2267 28.4471C10.2717 28.4965 10.3335 28.5272 10.4 28.5333H17.4604C17.5798 28.9297 17.779 29.2914 18.0393 29.6H10.4002C8.70032 29.6 8.69957 26.9255 10.4041 26.9333L12.864 23.7333H1.6C1.1758 23.7328 0.769101 23.5641 0.469144 23.2642C0.169186 22.9642 0.000465856 22.5575 0 22.1333V2.93331C0.000465856 2.50911 0.169186 2.10241 0.469144 1.80246C0.769101 1.5025 1.1758 1.33378 1.6 1.33331ZM28.6667 19.4155C28.9409 19.3444 29.1938 19.2012 29.3975 18.9975C29.6975 18.6975 29.8662 18.2908 29.8667 17.8666V5.06665C29.8662 4.64244 29.6975 4.23575 29.3975 3.93579C29.0976 3.63583 28.6909 3.46711 28.2667 3.46665H3.73333C3.30913 3.46711 2.90243 3.63583 2.60248 3.93579C2.30252 4.23575 2.1338 4.64244 2.13333 5.06665V17.8666C2.1338 18.2908 2.30252 18.6975 2.60248 18.9975C2.90243 19.2975 3.30913 19.4662 3.73333 19.4666H17.3333V18.4H3.73333C3.59194 18.3998 3.45639 18.3435 3.35641 18.2436C3.25643 18.1436 3.20018 18.008 3.2 17.8666V5.06665C3.20018 4.92525 3.25643 4.78971 3.35641 4.68973C3.45639 4.58975 3.59194 4.5335 3.73333 4.53331H28.2667C28.4081 4.5335 28.5436 4.58975 28.6436 4.68973C28.7436 4.78971 28.7998 4.92525 28.8 5.06665V17.8666C28.7998 17.9968 28.7522 18.1219 28.6667 18.219V19.4155Z" fill="#5B5FF0"/>
    <path d="M18.6665 16C18.6665 14.8954 19.5619 14 20.6665 14H25.3332C26.4377 14 27.3332 14.8954 27.3332 16V27.3333C27.3332 28.4379 26.4377 29.3333 25.3332 29.3333H20.6665C19.5619 29.3333 18.6665 28.4379 18.6665 27.3333V16Z"/>
    <path fill-rule="evenodd" clip-rule="evenodd" d="M25.3332 15H20.6665C20.1142 15 19.6665 15.4477 19.6665 16V27.3333C19.6665 27.8856 20.1142 28.3333 20.6665 28.3333H25.3332C25.8855 28.3333 26.3332 27.8856 26.3332 27.3333V16C26.3332 15.4477 25.8855 15 25.3332 15ZM20.6665 14C19.5619 14 18.6665 14.8954 18.6665 16V27.3333C18.6665 28.4379 19.5619 29.3333 20.6665 29.3333H25.3332C26.4377 29.3333 27.3332 28.4379 27.3332 27.3333V16C27.3332 14.8954 26.4377 14 25.3332 14H20.6665Z" fill="#5B5FF0"/>
    <circle cx="23" cy="26.3333" r="1" fill="#5B5FF0"/>
</svg>
