<svg width="52" height="56" viewBox="0 0 52 56" fill="none" xmlns="http://www.w3.org/2000/svg">
    <g filter="url(#filter0_d)">
        <rect x="25.5" y="20" width="1" height="9" rx="0.5" fill="#5B5FF0"/>
        <path fill-rule="evenodd" clip-rule="evenodd" d="M25.6877 19.6096C25.8703 19.4635 26.1298 19.4635 26.3124 19.6096L28.8124 21.6096C29.028 21.7821 29.063 22.0967 28.8905 22.3123C28.7179 22.528 28.4033 22.5629 28.1877 22.3904L26 20.6403L23.8124 22.3904C23.5967 22.5629 23.2821 22.528 23.1096 22.3123C22.9371 22.0967 22.972 21.7821 23.1877 21.6096L25.6877 19.6096Z" fill="#5B5FF0"/>
        <path fill-rule="evenodd" clip-rule="evenodd" d="M21.0924 15.5165C22.0189 13.6867 23.9097 12.5 26 12.5C28.5108 12.5 30.6454 14.1684 31.2967 16.5097C33.6406 16.6629 35.5 18.6179 35.5 21C35.5 23.4817 33.4817 25.5 31 25.5H29.6C29.3239 25.5 29.1 25.2761 29.1 25C29.1 24.7239 29.3239 24.5 29.6 24.5H31C32.9295 24.5 34.5 22.9295 34.5 21C34.5 19.0705 32.9295 17.5 31 17.5C30.9732 17.5 30.9453 17.5005 30.9155 17.5014L30.4935 17.5139L30.4104 17.1C29.9926 15.0192 28.1706 13.5 26 13.5C24.2035 13.5 22.5855 14.5726 21.8751 16.2008L21.7467 16.4949L21.4259 16.5007C19.2549 16.5402 17.5 18.3195 17.5 20.5C17.5 22.7051 19.2948 24.5 21.5 24.5C21.7761 24.5 22 24.7239 22 25C22 25.2761 21.7761 25.5 21.5 25.5C18.7424 25.5 16.5 23.2573 16.5 20.5C16.5 17.8797 18.5249 15.7245 21.0924 15.5165Z" fill="#5B5FF0"/>
        <path fill-rule="evenodd" clip-rule="evenodd" d="M14 35H38C38.5523 35 39 34.5523 39 34V10.8284C39 10.5632 38.8946 10.3089 38.7071 10.1213L33.6464 5.06066C33.6076 5.02182 33.5549 5 33.5 5H14C13.4477 5 13 5.44772 13 6V34C13 34.5523 13.4477 35 14 35ZM14 4C12.8954 4 12 4.89543 12 6V34C12 35.1046 12.8954 36 14 36H38C39.1046 36 40 35.1046 40 34V10.8284C40 10.298 39.7893 9.78929 39.4142 9.41421L34.3536 4.35355C34.1272 4.12718 33.8201 4 33.5 4H14Z" fill="#5B5FF0"/>
        <path fill-rule="evenodd" clip-rule="evenodd" d="M33 9V5H34V9C34 9.82843 34.6716 10.5 35.5 10.5H39V11.5H35.5C34.1193 11.5 33 10.3807 33 9Z" fill="#5B5FF0"/>
    </g>
    <defs>
        <filter id="filter0_d" x="-2" y="0" width="56" height="56" filterUnits="userSpaceOnUse" color-interpolation-filters="sRGB">
            <feFlood flood-opacity="0" result="BackgroundImageFix"/>
            <feColorMatrix in="SourceAlpha" type="matrix" values="0 0 0 0 0 0 0 0 0 0 0 0 0 0 0 0 0 0 127 0"/>
            <feOffset dy="8"/>
            <feGaussianBlur stdDeviation="6"/>
            <feColorMatrix type="matrix" values="0 0 0 0 0.427451 0 0 0 0 0.443137 0 0 0 0 0.976471 0 0 0 0.14 0"/>
            <feBlend mode="normal" in2="BackgroundImageFix" result="effect1_dropShadow"/>
            <feBlend mode="normal" in="SourceGraphic" in2="effect1_dropShadow" result="shape"/>
        </filter>
    </defs>
</svg>
