<svg width="32" height="32" viewBox="0 0 32 32" fill="none" xmlns="http://www.w3.org/2000/svg">
    <rect x="15.5" y="16" width="1" height="9" rx="0.5" fill="#5B5FF0"/>
    <path fill-rule="evenodd" clip-rule="evenodd" d="M15.6877 15.6096C15.8703 15.4635 16.1298 15.4635 16.3124 15.6096L18.8124 17.6096C19.028 17.7821 19.063 18.0967 18.8905 18.3123C18.7179 18.528 18.4033 18.5629 18.1877 18.3904L16 16.6403L13.8124 18.3904C13.5967 18.5629 13.2821 18.528 13.1096 18.3123C12.9371 18.0967 12.972 17.7821 13.1877 17.6096L15.6877 15.6096Z" fill="#5B5FF0"/>
    <path fill-rule="evenodd" clip-rule="evenodd" d="M11.0924 11.5165C12.0189 9.68672 13.9097 8.5 16 8.5C18.5108 8.5 20.6454 10.1684 21.2967 12.5097C23.6406 12.6629 25.5 14.6179 25.5 17C25.5 19.4817 23.4817 21.5 21 21.5H19.6C19.3239 21.5 19.1 21.2761 19.1 21C19.1 20.7239 19.3239 20.5 19.6 20.5H21C22.9295 20.5 24.5 18.9295 24.5 17C24.5 15.0705 22.9295 13.5 21 13.5C20.9732 13.5 20.9453 13.5005 20.9155 13.5014L20.4935 13.5139L20.4104 13.1C19.9926 11.0192 18.1706 9.5 16 9.5C14.2035 9.5 12.5855 10.5726 11.8751 12.2008L11.7467 12.4949L11.4259 12.5007C9.25491 12.5402 7.5 14.3195 7.5 16.5C7.5 18.7051 9.29476 20.5 11.5 20.5C11.7761 20.5 12 20.7239 12 21C12 21.2761 11.7761 21.5 11.5 21.5C8.74244 21.5 6.5 19.2573 6.5 16.5C6.5 13.8797 8.52493 11.7245 11.0924 11.5165Z" fill="#5B5FF0"/>
    <path fill-rule="evenodd" clip-rule="evenodd" d="M4 31H28C28.5523 31 29 30.5523 29 30V6.82843C29 6.56321 28.8946 6.30886 28.7071 6.12132L23.6464 1.06066C23.6076 1.02182 23.5549 1 23.5 1H4C3.44772 1 3 1.44772 3 2V30C3 30.5523 3.44772 31 4 31ZM4 0C2.89543 0 2 0.895431 2 2V30C2 31.1046 2.89543 32 4 32H28C29.1046 32 30 31.1046 30 30V6.82843C30 6.29799 29.7893 5.78929 29.4142 5.41421L24.3536 0.353553C24.1272 0.127177 23.8201 0 23.5 0H4Z" fill="#5B5FF0"/>
    <path fill-rule="evenodd" clip-rule="evenodd" d="M23 5V1H24V5C24 5.82843 24.6716 6.5 25.5 6.5H29V7.5H25.5C24.1193 7.5 23 6.38071 23 5Z" fill="#5B5FF0"/>
</svg>
