<svg width="52" height="56" viewBox="0 0 52 56" fill="none" xmlns="http://www.w3.org/2000/svg">
    <g filter="url(#filter0_d)">
        <path fill-rule="evenodd" clip-rule="evenodd" d="M21.3333 5.76186C19.7112 5.76186 18.4166 7.07363 18.4166 8.66663V31.3333C18.4166 32.9263 19.7112 34.2381 21.3333 34.2381H30.6666C32.2886 34.2381 33.5833 32.9263 33.5833 31.3333V8.66663C33.5833 7.07362 32.2886 5.76186 30.6666 5.76186H21.3333ZM17.3333 8.66663C17.3333 6.45749 19.1241 4.66663 21.3333 4.66663H30.6666C32.8757 4.66663 34.6666 6.45749 34.6666 8.66663V31.3333C34.6666 33.5424 32.8757 35.3333 30.6666 35.3333H21.3333C19.1241 35.3333 17.3333 33.5424 17.3333 31.3333V8.66663Z" fill="#5B5FF0"/>
        <path fill-rule="evenodd" clip-rule="evenodd" d="M35.5 9.33337C35.5 9.05723 35.7239 8.83337 36 8.83337H38.6667C38.9428 8.83337 39.1667 9.05723 39.1667 9.33337V13.3334C39.1667 13.6095 38.9428 13.8334 38.6667 13.8334C38.3905 13.8334 38.1667 13.6095 38.1667 13.3334V9.83337H36C35.7239 9.83337 35.5 9.60952 35.5 9.33337Z" fill="#5B5FF0"/>
        <path fill-rule="evenodd" clip-rule="evenodd" d="M35.5 28.6667C35.5 28.9429 35.7239 29.1667 36 29.1667H38.6667C38.9428 29.1667 39.1667 28.9429 39.1667 28.6667V24.6667C39.1667 24.3906 38.9428 24.1667 38.6667 24.1667C38.3905 24.1667 38.1667 24.3906 38.1667 24.6667V28.1667H36C35.7239 28.1667 35.5 28.3906 35.5 28.6667Z" fill="#5B5FF0"/>
        <path fill-rule="evenodd" clip-rule="evenodd" d="M16.5 9.33337C16.5 9.05723 16.2761 8.83337 16 8.83337H13.3333C13.0572 8.83337 12.8333 9.05723 12.8333 9.33337V13.3334C12.8333 13.6095 13.0572 13.8334 13.3333 13.8334C13.6095 13.8334 13.8333 13.6095 13.8333 13.3334V9.83337H16C16.2761 9.83337 16.5 9.60952 16.5 9.33337Z" fill="#5B5FF0"/>
        <path fill-rule="evenodd" clip-rule="evenodd" d="M16.5 28.6667C16.5 28.9429 16.2761 29.1667 16 29.1667H13.3333C13.0572 29.1667 12.8333 28.9429 12.8333 28.6667V24.6667C12.8333 24.3906 13.0572 24.1667 13.3333 24.1667C13.6095 24.1667 13.8333 24.3906 13.8333 24.6667V28.1667H16C16.2761 28.1667 16.5 28.3906 16.5 28.6667Z" fill="#5B5FF0"/>
        <path d="M26.3799 20.0667H23.9122C23.5847 20.0667 23.2861 20.0197 23.0164 19.9257C22.7505 19.8277 22.5213 19.6886 22.3287 19.5084C22.1399 19.3243 21.9935 19.1009 21.8894 18.8384C21.7854 18.572 21.7334 18.2703 21.7334 17.9334C21.7334 17.616 21.7873 17.3281 21.8952 17.0695C22.0069 16.807 22.1611 16.5817 22.3576 16.3936C22.554 16.2056 22.7852 16.0606 23.0511 15.9587C23.3207 15.8529 23.6116 15.8 23.9237 15.8C24.2358 15.8 24.5247 15.8529 24.7906 15.9587C25.0564 16.0606 25.2857 16.2056 25.4783 16.3936C25.6748 16.5817 25.827 16.807 25.9349 17.0695C26.0427 17.3281 26.0967 17.616 26.0967 17.9334C26.0967 18.1214 26.0755 18.2938 26.0331 18.4506C25.9907 18.6073 25.9349 18.7503 25.8655 18.8796C25.8 19.0049 25.723 19.1166 25.6344 19.2146C25.5496 19.3086 25.461 19.3889 25.3685 19.4555V19.4673H26.3799V20.0667ZM23.9237 16.4641C23.7272 16.4641 23.5423 16.5014 23.3689 16.5758C23.1994 16.6502 23.053 16.7521 22.9297 16.8814C22.8064 17.0107 22.7082 17.1655 22.635 17.3457C22.5656 17.5259 22.5309 17.7218 22.5309 17.9334C22.5309 18.1567 22.5637 18.3604 22.6292 18.5446C22.6985 18.7248 22.7929 18.8796 22.9124 19.0089C23.0356 19.1382 23.182 19.24 23.3516 19.3145C23.5211 19.385 23.708 19.4203 23.9122 19.4203C24.1125 19.4203 24.2974 19.385 24.467 19.3145C24.6403 19.24 24.7887 19.1382 24.912 19.0089C25.0352 18.8796 25.1316 18.7248 25.2009 18.5446C25.2703 18.3604 25.3049 18.1567 25.3049 17.9334C25.3049 17.7218 25.2722 17.5259 25.2067 17.3457C25.1412 17.1655 25.0468 17.0107 24.9235 16.8814C24.8041 16.7521 24.6596 16.6502 24.4901 16.5758C24.3205 16.5014 24.1318 16.4641 23.9237 16.4641ZM27.1806 15.9058H28.6023C28.795 15.9058 28.9818 15.9274 29.1629 15.9705C29.344 16.0097 29.5039 16.0763 29.6426 16.1703C29.7851 16.2643 29.8988 16.3877 29.9836 16.5405C30.0683 16.6933 30.1107 16.8794 30.1107 17.0989C30.1107 17.4005 30.0259 17.6474 29.8564 17.8394C29.6907 18.0274 29.4634 18.1547 29.1745 18.2214L30.2667 20.0667H29.3883L28.4405 18.3036H27.9088V20.0667H27.1806V15.9058ZM28.5041 17.6983C28.6081 17.6983 28.7121 17.6905 28.8162 17.6748C28.9202 17.6591 29.0126 17.6297 29.0936 17.5866C29.1783 17.5435 29.2477 17.4828 29.3016 17.4045C29.3555 17.3222 29.3825 17.2184 29.3825 17.093C29.3825 16.9794 29.3575 16.8873 29.3074 16.8168C29.2573 16.7423 29.1937 16.6836 29.1167 16.6405C29.0396 16.5974 28.951 16.568 28.8508 16.5523C28.7545 16.5366 28.6601 16.5288 28.5677 16.5288H27.9088V17.6983H28.5041Z" fill="#5B5FF0"/>
        <path d="M26.3799 20.0667H23.9122C23.5847 20.0667 23.2861 20.0197 23.0164 19.9257C22.7505 19.8277 22.5213 19.6886 22.3287 19.5084C22.1399 19.3243 21.9935 19.1009 21.8894 18.8384C21.7854 18.572 21.7334 18.2703 21.7334 17.9334C21.7334 17.616 21.7873 17.3281 21.8952 17.0695C22.0069 16.807 22.1611 16.5817 22.3576 16.3936C22.554 16.2056 22.7852 16.0606 23.0511 15.9587C23.3207 15.8529 23.6116 15.8 23.9237 15.8C24.2358 15.8 24.5247 15.8529 24.7906 15.9587C25.0564 16.0606 25.2857 16.2056 25.4783 16.3936C25.6748 16.5817 25.827 16.807 25.9349 17.0695C26.0427 17.3281 26.0967 17.616 26.0967 17.9334C26.0967 18.1214 26.0755 18.2938 26.0331 18.4506C25.9907 18.6073 25.9349 18.7503 25.8655 18.8796C25.8 19.0049 25.723 19.1166 25.6344 19.2146C25.5496 19.3086 25.461 19.3889 25.3685 19.4555V19.4673H26.3799V20.0667ZM23.9237 16.4641C23.7272 16.4641 23.5423 16.5014 23.3689 16.5758C23.1994 16.6502 23.053 16.7521 22.9297 16.8814C22.8064 17.0107 22.7082 17.1655 22.635 17.3457C22.5656 17.5259 22.5309 17.7218 22.5309 17.9334C22.5309 18.1567 22.5637 18.3604 22.6292 18.5446C22.6985 18.7248 22.7929 18.8796 22.9124 19.0089C23.0356 19.1382 23.182 19.24 23.3516 19.3145C23.5211 19.385 23.708 19.4203 23.9122 19.4203C24.1125 19.4203 24.2974 19.385 24.467 19.3145C24.6403 19.24 24.7887 19.1382 24.912 19.0089C25.0352 18.8796 25.1316 18.7248 25.2009 18.5446C25.2703 18.3604 25.3049 18.1567 25.3049 17.9334C25.3049 17.7218 25.2722 17.5259 25.2067 17.3457C25.1412 17.1655 25.0468 17.0107 24.9235 16.8814C24.8041 16.7521 24.6596 16.6502 24.4901 16.5758C24.3205 16.5014 24.1318 16.4641 23.9237 16.4641ZM27.1806 15.9058H28.6023C28.795 15.9058 28.9818 15.9274 29.1629 15.9705C29.344 16.0097 29.5039 16.0763 29.6426 16.1703C29.7851 16.2643 29.8988 16.3877 29.9836 16.5405C30.0683 16.6933 30.1107 16.8794 30.1107 17.0989C30.1107 17.4005 30.0259 17.6474 29.8564 17.8394C29.6907 18.0274 29.4634 18.1547 29.1745 18.2214L30.2667 20.0667H29.3883L28.4405 18.3036H27.9088V20.0667H27.1806V15.9058ZM28.5041 17.6983C28.6081 17.6983 28.7121 17.6905 28.8162 17.6748C28.9202 17.6591 29.0126 17.6297 29.0936 17.5866C29.1783 17.5435 29.2477 17.4828 29.3016 17.4045C29.3555 17.3222 29.3825 17.2184 29.3825 17.093C29.3825 16.9794 29.3575 16.8873 29.3074 16.8168C29.2573 16.7423 29.1937 16.6836 29.1167 16.6405C29.0396 16.5974 28.951 16.568 28.8508 16.5523C28.7545 16.5366 28.6601 16.5288 28.5677 16.5288H27.9088V17.6983H28.5041Z" stroke="#5B5FF0"/>
        <path fill-rule="evenodd" clip-rule="evenodd" d="M26 31.8C26.626 31.8 27.1334 31.2926 27.1334 30.6667C27.1334 30.0407 26.626 29.5333 26 29.5333C25.3741 29.5333 24.8667 30.0407 24.8667 30.6667C24.8667 31.2926 25.3741 31.8 26 31.8ZM26 32.8C27.1782 32.8 28.1334 31.8449 28.1334 30.6667C28.1334 29.4885 27.1782 28.5333 26 28.5333C24.8218 28.5333 23.8667 29.4885 23.8667 30.6667C23.8667 31.8449 24.8218 32.8 26 32.8Z" fill="#5B5FF0"/>
        <path fill-rule="evenodd" clip-rule="evenodd" d="M32 10H20V26H32V10ZM20 9C19.4477 9 19 9.44772 19 10V26C19 26.5523 19.4477 27 20 27H32C32.5523 27 33 26.5523 33 26V10C33 9.44772 32.5523 9 32 9H20Z" fill="#5B5FF0"/>
    </g>
    <defs>
        <filter id="filter0_d" x="-2" y="0" width="56" height="56" filterUnits="userSpaceOnUse" color-interpolation-filters="sRGB">
            <feFlood flood-opacity="0" result="BackgroundImageFix"/>
            <feColorMatrix in="SourceAlpha" type="matrix" values="0 0 0 0 0 0 0 0 0 0 0 0 0 0 0 0 0 0 127 0"/>
            <feOffset dy="8"/>
            <feGaussianBlur stdDeviation="6"/>
            <feColorMatrix type="matrix" values="0 0 0 0 0.427451 0 0 0 0 0.443137 0 0 0 0 0.976471 0 0 0 0.14 0"/>
            <feBlend mode="normal" in2="BackgroundImageFix" result="effect1_dropShadow"/>
            <feBlend mode="normal" in="SourceGraphic" in2="effect1_dropShadow" result="shape"/>
        </filter>
    </defs>
</svg>
