<svg width="56" height="56" viewBox="-12 -3 56 56" fill="none" xmlns="http://www.w3.org/2000/svg">
    <path d="M30.4 1.33337H1.6C1.1758 1.33384 0.769101 1.50256 0.469144 1.80252C0.169186 2.10247 0.000465856 2.50917 0 2.93337V22.1334C0.000465856 22.5576 0.169186 22.9643 0.469144 23.2642C0.769101 23.5642 1.1758 23.7329 1.6 23.7334H12.864L10.4041 26.9334C8.69957 26.9255 8.70032 29.6 10.4002 29.6H21.6002C23.3082 29.6 23.2926 26.9267 21.5963 26.9334L19.136 23.7334H30.4C30.8242 23.7329 31.2309 23.5642 31.5309 23.2642C31.8308 22.9643 31.9995 22.5576 32 22.1334V2.93337C31.9995 2.50917 31.8308 2.10247 31.5309 1.80252C31.2309 1.50256 30.8242 1.33384 30.4 1.33337ZM21.6 28.5334H10.4C10.3335 28.5273 10.2717 28.4965 10.2267 28.4472C10.1816 28.3979 10.1567 28.3335 10.1567 28.2667C10.1567 28.1999 10.1816 28.1355 10.2267 28.0862C10.2717 28.0369 10.3335 28.0061 10.4 28H21.6C21.6707 28 21.7386 28.0281 21.7886 28.0781C21.8386 28.1282 21.8667 28.196 21.8667 28.2667C21.8667 28.3374 21.8386 28.4053 21.7886 28.4553C21.7386 28.5053 21.6707 28.5334 21.6 28.5334ZM20.2507 26.9334H11.7493L14.2092 23.7334H17.7905L20.2507 26.9334ZM30.9333 22.1334C30.9332 22.2748 30.8769 22.4103 30.7769 22.5103C30.6769 22.6103 30.5414 22.6665 30.4 22.6667H1.6C1.45861 22.6665 1.32306 22.6103 1.22308 22.5103C1.1231 22.4103 1.06685 22.2748 1.06667 22.1334V2.93337C1.06685 2.79198 1.1231 2.65643 1.22308 2.55645C1.32306 2.45647 1.45861 2.40022 1.6 2.40004H30.4C30.5414 2.40022 30.6769 2.45647 30.7769 2.55645C30.8769 2.65643 30.9332 2.79198 30.9333 2.93337V22.1334ZM28.2667 3.46671H3.73333C3.30913 3.46717 2.90243 3.63589 2.60248 3.93585C2.30252 4.23581 2.1338 4.6425 2.13333 5.06671V17.8667C2.1338 18.2909 2.30252 18.6976 2.60248 18.9976C2.90243 19.2975 3.30913 19.4662 3.73333 19.4667H28.2667C28.6909 19.4662 29.0976 19.2975 29.3975 18.9976C29.6975 18.6976 29.8662 18.2909 29.8667 17.8667V5.06671C29.8662 4.6425 29.6975 4.23581 29.3975 3.93585C29.0976 3.63589 28.6909 3.46717 28.2667 3.46671ZM28.8 17.8667C28.7998 18.0081 28.7436 18.1437 28.6436 18.2436C28.5436 18.3436 28.4081 18.3999 28.2667 18.4H3.73333C3.59194 18.3999 3.45639 18.3436 3.35641 18.2436C3.25643 18.1437 3.20018 18.0081 3.2 17.8667V5.06671C3.20018 4.92532 3.25643 4.78977 3.35641 4.68979C3.45639 4.58981 3.59194 4.53356 3.73333 4.53337H28.2667C28.4081 4.53356 28.5436 4.58981 28.6436 4.68979C28.7436 4.78977 28.7998 4.92532 28.8 5.06671V17.8667Z" fill="#5B5FF0"/>
</svg>
