<svg width="32" height="32" viewBox="0 0 32 32" fill="none" xmlns="http://www.w3.org/2000/svg">
    <path d="M30.4 1.33331H1.6C1.1758 1.33378 0.769101 1.5025 0.469144 1.80246C0.169186 2.10241 0.000465856 2.50911 0 2.93331V22.1333C0.000465856 22.5575 0.169186 22.9642 0.469144 23.2642C0.769101 23.5641 1.1758 23.7328 1.6 23.7333H12.864L10.4041 26.9333C8.69957 26.9255 8.70032 29.6 10.4002 29.6H21.6002C23.3082 29.6 23.2926 26.9266 21.5963 26.9333L19.136 23.7333H30.4C30.8242 23.7328 31.2309 23.5641 31.5309 23.2642C31.8308 22.9642 31.9995 22.5575 32 22.1333V2.93331C31.9995 2.50911 31.8308 2.10241 31.5309 1.80246C31.2309 1.5025 30.8242 1.33378 30.4 1.33331ZM21.6 28.5333H10.4C10.3335 28.5272 10.2717 28.4965 10.2267 28.4471C10.1816 28.3978 10.1567 28.3334 10.1567 28.2666C10.1567 28.1999 10.1816 28.1355 10.2267 28.0862C10.2717 28.0368 10.3335 28.0061 10.4 28H21.6C21.6707 28 21.7386 28.0281 21.7886 28.0781C21.8386 28.1281 21.8667 28.1959 21.8667 28.2666C21.8667 28.3374 21.8386 28.4052 21.7886 28.4552C21.7386 28.5052 21.6707 28.5333 21.6 28.5333ZM20.2507 26.9333H11.7493L14.2092 23.7333H17.7905L20.2507 26.9333ZM30.9333 22.1333C30.9332 22.2747 30.8769 22.4103 30.7769 22.5102C30.6769 22.6102 30.5414 22.6665 30.4 22.6666H1.6C1.45861 22.6665 1.32306 22.6102 1.22308 22.5102C1.1231 22.4103 1.06685 22.2747 1.06667 22.1333V2.93331C1.06685 2.79192 1.1231 2.65637 1.22308 2.55639C1.32306 2.45641 1.45861 2.40016 1.6 2.39998H30.4C30.5414 2.40016 30.6769 2.45641 30.7769 2.55639C30.8769 2.65637 30.9332 2.79192 30.9333 2.93331V22.1333ZM28.2667 3.46665H3.73333C3.30913 3.46711 2.90243 3.63583 2.60248 3.93579C2.30252 4.23575 2.1338 4.64244 2.13333 5.06665V17.8666C2.1338 18.2908 2.30252 18.6975 2.60248 18.9975C2.90243 19.2975 3.30913 19.4662 3.73333 19.4666H28.2667C28.6909 19.4662 29.0976 19.2975 29.3975 18.9975C29.6975 18.6975 29.8662 18.2908 29.8667 17.8666V5.06665C29.8662 4.64244 29.6975 4.23575 29.3975 3.93579C29.0976 3.63583 28.6909 3.46711 28.2667 3.46665ZM28.8 17.8666C28.7998 18.008 28.7436 18.1436 28.6436 18.2436C28.5436 18.3435 28.4081 18.3998 28.2667 18.4H3.73333C3.59194 18.3998 3.45639 18.3435 3.35641 18.2436C3.25643 18.1436 3.20018 18.008 3.2 17.8666V5.06665C3.20018 4.92525 3.25643 4.78971 3.35641 4.68973C3.45639 4.58975 3.59194 4.5335 3.73333 4.53331H28.2667C28.4081 4.5335 28.5436 4.58975 28.6436 4.68973C28.7436 4.78971 28.7998 4.92525 28.8 5.06665V17.8666Z" fill="#5B5FF0"/>
</svg>
