<svg width="32" height="32" viewBox="0 0 32 32" fill="none" xmlns="http://www.w3.org/2000/svg">
    <path fill-rule="evenodd" clip-rule="evenodd" d="M11.3335 1.76193C9.71147 1.76193 8.41683 3.07369 8.41683 4.66669V27.3334C8.41683 28.9264 9.71147 30.2381 11.3335 30.2381H20.6668C22.2889 30.2381 23.5835 28.9264 23.5835 27.3334V4.66669C23.5835 3.07369 22.2889 1.76193 20.6668 1.76193H11.3335ZM7.3335 4.66669C7.3335 2.45755 9.12436 0.666687 11.3335 0.666687H20.6668C22.876 0.666687 24.6668 2.45755 24.6668 4.66669V27.3334C24.6668 29.5425 22.876 31.3334 20.6668 31.3334H11.3335C9.12436 31.3334 7.3335 29.5425 7.3335 27.3334V4.66669Z" fill="#5B5FF0"/>
    <path fill-rule="evenodd" clip-rule="evenodd" d="M25.5 5.33331C25.5 5.05717 25.7239 4.83331 26 4.83331H28.6667C28.9428 4.83331 29.1667 5.05717 29.1667 5.33331V9.33331C29.1667 9.60946 28.9428 9.83331 28.6667 9.83331C28.3905 9.83331 28.1667 9.60946 28.1667 9.33331V5.83331H26C25.7239 5.83331 25.5 5.60946 25.5 5.33331Z" fill="#5B5FF0"/>
    <path fill-rule="evenodd" clip-rule="evenodd" d="M25.5 24.6666C25.5 24.9428 25.7239 25.1666 26 25.1666H28.6667C28.9428 25.1666 29.1667 24.9428 29.1667 24.6666V20.6666C29.1667 20.3905 28.9428 20.1666 28.6667 20.1666C28.3905 20.1666 28.1667 20.3905 28.1667 20.6666V24.1666H26C25.7239 24.1666 25.5 24.3905 25.5 24.6666Z" fill="#5B5FF0"/>
    <path fill-rule="evenodd" clip-rule="evenodd" d="M6.5 5.33331C6.5 5.05717 6.27614 4.83331 6 4.83331H3.33333C3.05719 4.83331 2.83333 5.05717 2.83333 5.33331V9.33331C2.83333 9.60946 3.05719 9.83331 3.33333 9.83331C3.60948 9.83331 3.83333 9.60946 3.83333 9.33331V5.83331H6C6.27614 5.83331 6.5 5.60946 6.5 5.33331Z" fill="#5B5FF0"/>
    <path fill-rule="evenodd" clip-rule="evenodd" d="M6.5 24.6666C6.5 24.9428 6.27614 25.1666 6 25.1666H3.33333C3.05719 25.1666 2.83333 24.9428 2.83333 24.6666V20.6666C2.83333 20.3905 3.05719 20.1666 3.33333 20.1666C3.60948 20.1666 3.83333 20.3905 3.83333 20.6666V24.1666H6C6.27614 24.1666 6.5 24.3905 6.5 24.6666Z" fill="#5B5FF0"/>
    <path d="M16.3799 16.0667H13.9122C13.5847 16.0667 13.2861 16.0196 13.0164 15.9256C12.7505 15.8277 12.5213 15.6886 12.3287 15.5083C12.1399 15.3242 11.9935 15.1009 11.8894 14.8384C11.7854 14.572 11.7334 14.2703 11.7334 13.9333C11.7334 13.616 11.7873 13.328 11.8952 13.0694C12.0069 12.8069 12.1611 12.5816 12.3576 12.3936C12.554 12.2055 12.7852 12.0605 13.0511 11.9587C13.3207 11.8529 13.6116 11.8 13.9237 11.8C14.2358 11.8 14.5247 11.8529 14.7906 11.9587C15.0564 12.0605 15.2857 12.2055 15.4783 12.3936C15.6748 12.5816 15.827 12.8069 15.9349 13.0694C16.0427 13.328 16.0967 13.616 16.0967 13.9333C16.0967 14.1214 16.0755 14.2938 16.0331 14.4505C15.9907 14.6072 15.9349 14.7502 15.8655 14.8795C15.8 15.0049 15.723 15.1165 15.6344 15.2145C15.5496 15.3085 15.461 15.3888 15.3685 15.4555V15.4672H16.3799V16.0667ZM13.9237 12.4641C13.7272 12.4641 13.5423 12.5013 13.3689 12.5757C13.1994 12.6502 13.053 12.7521 12.9297 12.8813C12.8064 13.0106 12.7082 13.1654 12.635 13.3456C12.5656 13.5259 12.5309 13.7218 12.5309 13.9333C12.5309 14.1566 12.5637 14.3604 12.6292 14.5445C12.6985 14.7248 12.7929 14.8795 12.9124 15.0088C13.0356 15.1381 13.182 15.24 13.3516 15.3144C13.5211 15.3849 13.708 15.4202 13.9122 15.4202C14.1125 15.4202 14.2974 15.3849 14.467 15.3144C14.6403 15.24 14.7887 15.1381 14.912 15.0088C15.0352 14.8795 15.1316 14.7248 15.2009 14.5445C15.2703 14.3604 15.3049 14.1566 15.3049 13.9333C15.3049 13.7218 15.2722 13.5259 15.2067 13.3456C15.1412 13.1654 15.0468 13.0106 14.9235 12.8813C14.8041 12.7521 14.6596 12.6502 14.4901 12.5757C14.3205 12.5013 14.1318 12.4641 13.9237 12.4641Z" fill="#5B5FF0"/>
    <path d="M17.1806 11.9058H18.6023C18.795 11.9058 18.9818 11.9273 19.1629 11.9704C19.344 12.0096 19.5039 12.0762 19.6426 12.1702C19.7851 12.2643 19.8988 12.3877 19.9836 12.5405C20.0683 12.6933 20.1107 12.8794 20.1107 13.0988C20.1107 13.4005 20.0259 13.6473 19.8564 13.8393C19.6907 14.0274 19.4634 14.1547 19.1745 14.2213L20.2667 16.0667H19.3883L18.4405 14.3036H17.9088V16.0667H17.1806V11.9058ZM18.5041 13.6982C18.6081 13.6982 18.7121 13.6904 18.8162 13.6747C18.9202 13.6591 19.0126 13.6297 19.0936 13.5866C19.1783 13.5435 19.2477 13.4828 19.3016 13.4044C19.3555 13.3221 19.3825 13.2183 19.3825 13.0929C19.3825 12.9793 19.3575 12.8872 19.3074 12.8167C19.2573 12.7423 19.1937 12.6835 19.1167 12.6404C19.0396 12.5973 18.951 12.5679 18.8508 12.5522C18.7545 12.5366 18.6601 12.5287 18.5677 12.5287H17.9088V13.6982H18.5041Z" fill="#5B5FF0"/>
    <path fill-rule="evenodd" clip-rule="evenodd" d="M16 27.8C16.626 27.8 17.1334 27.2926 17.1334 26.6667C17.1334 26.0407 16.626 25.5333 16 25.5333C15.3741 25.5333 14.8667 26.0407 14.8667 26.6667C14.8667 27.2926 15.3741 27.8 16 27.8ZM16 28.8C17.1782 28.8 18.1334 27.8449 18.1334 26.6667C18.1334 25.4885 17.1782 24.5333 16 24.5333C14.8218 24.5333 13.8667 25.4885 13.8667 26.6667C13.8667 27.8449 14.8218 28.8 16 28.8Z" fill="#5B5FF0"/>
    <path fill-rule="evenodd" clip-rule="evenodd" d="M22 6H10V22H22V6ZM10 5C9.44772 5 9 5.44772 9 6V22C9 22.5523 9.44772 23 10 23H22C22.5523 23 23 22.5523 23 22V6C23 5.44772 22.5523 5 22 5H10Z" fill="#5B5FF0"/>
</svg>
