<svg width="471" height="390" viewBox="0 0 471 390" fill="none" xmlns="http://www.w3.org/2000/svg">
    <path d="M2.69859 162.978C13.8111 91.8982 70.6894 49.8964 97.0086 35.2104C123.328 20.5244 159.399 -0.000130566 253.145 0C346.892 0.000130567 418.686 74.3729 447.93 121.123C482.534 187.945 487.511 317.673 395.292 364.91C303.072 412.148 179.393 383.798 118.941 352.427C58.4891 321.056 -11.192 251.829 2.69859 162.978Z" fill="url(#paint0_linear)"/>
    <ellipse cx="423.419" cy="277.763" rx="6.49875" ry="6.50616" fill="white"/>
    <ellipse cx="42.9918" cy="79.0749" rx="6.99865" ry="7.00664" fill="#F9DA6D"/>
    <g filter="url(#filter0_d)">
        <path d="M147.972 59.056H335.933C342.561 59.056 347.933 64.4286 347.933 71.056V307.303C347.933 313.93 342.561 319.303 335.933 319.303H147.972V59.056Z" fill="white"/>
    </g>
    <mask id="mask0" mask-type="alpha" maskUnits="userSpaceOnUse" x="147" y="59" width="201" height="261">
        <path d="M147.972 59.056H335.933C342.561 59.056 347.933 64.4286 347.933 71.056V307.303C347.933 313.93 342.561 319.303 335.933 319.303H147.972V59.056Z" fill="white"/>
    </mask>
    <g mask="url(#mask0)">
        <rect x="143.972" y="112.106" width="18.9964" height="207.196" fill="#F8F8FD"/>
        <path fill-rule="evenodd" clip-rule="evenodd" d="M196.567 131.001C196.785 131 197.005 131 197.226 131C197.441 131 197.657 131.002 197.871 131.005L197.862 131.634C197.65 131.631 197.438 131.629 197.226 131.629C197.006 131.629 196.787 131.63 196.569 131.631L196.567 131.001ZM192.674 131.073C193.099 131.059 193.53 131.047 193.965 131.037L193.98 131.666C193.546 131.676 193.118 131.688 192.695 131.702L192.674 131.073ZM200.439 131.125C200.867 131.158 201.293 131.198 201.716 131.244L201.648 131.87C201.231 131.824 200.811 131.785 200.39 131.752L200.439 131.125ZM188.778 131.264C189.203 131.236 189.633 131.21 190.069 131.186L190.104 131.815C189.67 131.839 189.242 131.864 188.819 131.892L188.778 131.264ZM184.89 131.592C185.313 131.548 185.742 131.506 186.178 131.467L186.234 132.094C185.802 132.133 185.375 132.174 184.955 132.218L184.89 131.592ZM204.262 131.6C204.686 131.672 205.107 131.75 205.527 131.835L205.402 132.452C204.989 132.369 204.573 132.291 204.156 132.22L204.262 131.6ZM181.01 132.079C181.432 132.016 181.861 131.956 182.297 131.898L182.38 132.522C181.947 132.579 181.521 132.639 181.102 132.701L181.01 132.079ZM208.028 132.416C208.443 132.525 208.856 132.64 209.266 132.761L209.089 133.365C208.684 133.246 208.277 133.132 207.868 133.025L208.028 132.416ZM177.161 132.748C177.58 132.664 178.008 132.582 178.443 132.502L178.556 133.122C178.124 133.2 177.701 133.282 177.285 133.365L177.161 132.748ZM173.352 133.63C173.765 133.521 174.186 133.414 174.615 133.311L174.763 133.922C174.338 134.025 173.921 134.13 173.513 134.238L173.352 133.63ZM211.709 133.552C212.113 133.695 212.514 133.844 212.913 133.997L212.687 134.585C212.293 134.433 211.897 134.287 211.499 134.146L211.709 133.552ZM169.606 134.753C170.01 134.616 170.423 134.481 170.846 134.35L171.034 134.95C170.616 135.081 170.207 135.214 169.808 135.349L169.606 134.753ZM215.284 134.981C215.675 135.155 216.064 135.334 216.45 135.517L216.179 136.086C215.798 135.904 215.414 135.728 215.028 135.556L215.284 134.981ZM165.95 136.142C166.342 135.976 166.744 135.811 167.156 135.649L167.387 136.234C166.98 136.395 166.583 136.557 166.196 136.722L165.95 136.142ZM218.74 136.673C219.118 136.875 219.492 137.081 219.865 137.291L219.555 137.839C219.187 137.631 218.816 137.428 218.443 137.228L218.74 136.673ZM162.408 137.81C162.787 137.614 163.175 137.419 163.574 137.224L163.85 137.79C163.456 137.982 163.072 138.175 162.699 138.369L162.408 137.81ZM222.069 138.6C222.432 138.827 222.793 139.057 223.15 139.29L222.806 139.817C222.452 139.586 222.095 139.358 221.736 139.134L222.069 138.6ZM159.002 139.724C159.366 139.506 159.739 139.285 160.122 139.064L160.437 139.609C160.058 139.828 159.688 140.047 159.327 140.263L159.002 139.724ZM225.267 140.735C225.616 140.983 225.961 141.235 226.304 141.489L225.928 141.994C225.589 141.742 225.247 141.494 224.902 141.248L225.267 140.735ZM156.242 141.436C156.423 141.322 156.606 141.207 156.79 141.091L157.126 141.624C156.993 141.707 156.861 141.79 156.731 141.873C156.68 141.905 156.629 141.937 156.578 141.969C156.405 142.078 156.227 142.192 156.043 142.312L155.699 141.784C155.885 141.663 156.066 141.547 156.242 141.436ZM228.333 143.054C228.667 143.321 228.997 143.591 229.325 143.863L228.922 144.347C228.597 144.077 228.269 143.81 227.939 143.545L228.333 143.054ZM152.523 144.046C152.879 143.772 153.226 143.511 153.565 143.263L153.937 143.771C153.603 144.016 153.259 144.274 152.908 144.544L152.523 144.046ZM231.266 145.535C231.585 145.82 231.901 146.106 232.214 146.395L231.787 146.857C231.477 146.571 231.163 146.287 230.847 146.005L231.266 145.535ZM149.527 146.524C149.857 146.231 150.184 145.949 150.508 145.675L150.915 146.155C150.595 146.426 150.272 146.706 149.945 146.995L149.527 146.524ZM234.068 148.161C234.374 148.462 234.676 148.764 234.975 149.067L234.526 149.508C234.229 149.207 233.929 148.908 233.626 148.61L234.068 148.161ZM146.7 149.198C147.008 148.886 147.316 148.582 147.623 148.286L148.061 148.738C147.757 149.031 147.453 149.332 147.147 149.64L146.7 149.198ZM236.741 150.917C237.033 151.232 237.321 151.548 237.606 151.865L237.137 152.285C236.854 151.971 236.568 151.657 236.279 151.344L236.741 150.917ZM144.053 152.052C144.34 151.722 144.627 151.398 144.914 151.081L145.381 151.504C145.097 151.817 144.813 152.138 144.529 152.465L144.053 152.052ZM239.286 153.792C239.564 154.12 239.838 154.449 240.108 154.777L239.621 155.177C239.353 154.851 239.081 154.524 238.805 154.199L239.286 153.792ZM141.604 155.076C141.866 154.729 142.131 154.387 142.396 154.051L142.891 154.442C142.628 154.774 142.366 155.112 142.107 155.455L141.604 155.076ZM241.702 156.776C241.965 157.117 242.225 157.457 242.479 157.797L241.975 158.174C241.723 157.837 241.465 157.5 241.203 157.161L241.702 156.776ZM139.369 158.261C139.606 157.896 139.847 157.536 140.089 157.182L140.609 157.537C140.369 157.887 140.132 158.243 139.897 158.604L139.369 158.261ZM243.983 159.862C244.232 160.216 244.476 160.567 244.715 160.917L244.195 161.272C243.958 160.925 243.715 160.576 243.468 160.225L243.983 159.862ZM137.365 161.598C137.575 161.217 137.789 160.842 138.005 160.471L138.549 160.788C138.335 161.155 138.124 161.526 137.916 161.902L137.365 161.598ZM246.125 163.052C246.357 163.416 246.583 163.777 246.803 164.134L246.267 164.464C246.049 164.109 245.824 163.751 245.594 163.39L246.125 163.052ZM135.61 165.075C135.791 164.679 135.977 164.287 136.166 163.901L136.732 164.177C136.545 164.559 136.362 164.946 136.182 165.337L135.61 165.075ZM248.11 166.345C248.215 166.53 248.318 166.713 248.419 166.896L248.425 166.906L248.43 166.917C248.516 167.106 248.602 167.296 248.687 167.487L248.111 167.742C248.029 167.557 247.946 167.373 247.862 167.19C247.764 167.013 247.664 166.835 247.562 166.655L248.11 166.345ZM134.122 168.671C134.273 168.262 134.429 167.858 134.588 167.458L135.173 167.691C135.016 168.086 134.862 168.485 134.713 168.889L134.122 168.671ZM249.658 169.828C249.81 170.22 249.959 170.617 250.105 171.02L249.512 171.235C249.368 170.836 249.22 170.443 249.07 170.055L249.658 169.828ZM132.913 172.37C133.033 171.951 133.157 171.536 133.285 171.126L133.886 171.314C133.759 171.719 133.637 172.129 133.519 172.542L132.913 172.37ZM250.918 173.415C251.045 173.814 251.169 174.218 251.29 174.625L250.686 174.804C250.566 174.401 250.444 174.001 250.318 173.606L250.918 173.415ZM131.992 176.151C132.079 175.725 132.17 175.302 132.267 174.883L132.881 175.024C132.785 175.438 132.695 175.855 132.609 176.277L131.992 176.151ZM251.967 177.066C252.072 177.471 252.173 177.879 252.272 178.291L251.66 178.438C251.562 178.03 251.461 177.625 251.357 177.223L251.967 177.066ZM131.445 179.353C131.475 179.137 131.506 178.921 131.539 178.707L132.162 178.801C132.13 179.013 132.099 179.226 132.069 179.439C132.041 179.645 132.013 179.851 131.988 180.057L131.363 179.979C131.389 179.771 131.416 179.562 131.445 179.353ZM252.822 180.761C252.907 181.174 252.988 181.589 253.067 182.006L252.448 182.123C252.37 181.708 252.289 181.297 252.205 180.888L252.822 180.761ZM131.045 183.725C131.063 183.309 131.087 182.892 131.117 182.474L131.746 182.519C131.716 182.932 131.692 183.343 131.674 183.753L131.045 183.725ZM253.496 184.499C253.561 184.913 253.622 185.329 253.681 185.747L253.057 185.834C252.999 185.42 252.938 185.007 252.874 184.596L253.496 184.499ZM131.028 187.486C131.013 187.069 131.004 186.651 131 186.231L131.63 186.226C131.634 186.64 131.643 187.052 131.658 187.463L131.028 187.486ZM253.993 188.258C254.038 188.677 254.08 189.097 254.119 189.519L253.492 189.577C253.453 189.159 253.411 188.741 253.366 188.326L253.993 188.258ZM131.313 191.233C131.265 190.82 131.222 190.405 131.185 189.988L131.812 189.932C131.849 190.343 131.891 190.753 131.939 191.16L131.313 191.233ZM254.314 192.04C254.34 192.46 254.362 192.881 254.382 193.302L253.753 193.331C253.733 192.913 253.711 192.495 253.685 192.079L254.314 192.04ZM131.895 194.95C131.814 194.54 131.739 194.128 131.668 193.715L132.289 193.609C132.359 194.018 132.433 194.424 132.513 194.828L131.895 194.95ZM254.458 195.831C254.464 196.252 254.466 196.674 254.465 197.096L253.835 197.095C253.836 196.676 253.834 196.258 253.828 195.84L254.458 195.831ZM132.761 198.607C132.649 198.205 132.543 197.802 132.441 197.396L133.052 197.243C133.153 197.644 133.258 198.043 133.368 198.439L132.761 198.607ZM254.419 199.626C254.404 200.047 254.385 200.469 254.363 200.89L253.734 200.857C253.756 200.44 253.774 200.022 253.789 199.604L254.419 199.626ZM133.896 202.19C133.756 201.797 133.62 201.402 133.489 201.006L134.087 200.808C134.217 201.2 134.351 201.59 134.489 201.978L133.896 202.19ZM254.188 203.415C254.152 203.835 254.111 204.255 254.067 204.674L253.441 204.609C253.484 204.193 253.524 203.777 253.561 203.36L254.188 203.415ZM135.283 205.683C135.116 205.301 134.953 204.916 134.794 204.529L135.376 204.29C135.533 204.672 135.695 205.053 135.86 205.431L135.283 205.683ZM253.756 207.187C253.696 207.605 253.632 208.022 253.565 208.438L252.943 208.337C253.01 207.925 253.073 207.512 253.132 207.098L253.756 207.187ZM136.902 209.073C136.71 208.703 136.522 208.33 136.338 207.955L136.903 207.678C137.086 208.049 137.272 208.417 137.461 208.784L136.902 209.073ZM253.108 210.929C253.024 211.343 252.935 211.756 252.842 212.167L252.227 212.028C252.319 211.621 252.407 211.213 252.491 210.803L253.108 210.929ZM138.734 212.351C138.52 211.994 138.309 211.634 138.101 211.272L138.648 210.959C138.853 211.318 139.062 211.674 139.274 212.027L138.734 212.351ZM140.762 215.513C140.527 215.169 140.295 214.822 140.065 214.472L140.592 214.128C140.819 214.474 141.049 214.817 141.282 215.158L140.762 215.513ZM252.229 214.626C252.117 215.034 252.002 215.44 251.881 215.844L251.277 215.664C251.396 215.265 251.511 214.863 251.621 214.46L252.229 214.626ZM142.969 218.551C142.715 218.221 142.463 217.888 142.214 217.551L142.72 217.177C142.967 217.51 143.216 217.84 143.468 218.168L142.969 218.551ZM251.1 218.255C250.96 218.655 250.815 219.052 250.665 219.447L250.076 219.223C250.224 218.834 250.367 218.441 250.506 218.047L251.1 218.255ZM145.34 221.462C145.069 221.147 144.8 220.828 144.532 220.506L145.017 220.104C145.282 220.423 145.549 220.739 145.818 221.052L145.34 221.462ZM249.703 221.793C249.532 222.18 249.356 222.565 249.174 222.946L248.605 222.676C248.784 222.3 248.958 221.921 249.126 221.539L249.703 221.793ZM147.864 224.241C147.577 223.941 147.291 223.637 147.007 223.33L147.47 222.903C147.751 223.208 148.034 223.508 148.319 223.805L147.864 224.241ZM248.019 225.206C247.815 225.577 247.606 225.945 247.391 226.31L246.848 225.99C247.06 225.631 247.266 225.269 247.467 224.903L248.019 225.206ZM150.529 226.882C150.227 226.598 149.927 226.311 149.627 226.019L150.067 225.568C150.364 225.857 150.662 226.142 150.961 226.423L150.529 226.882ZM153.331 229.381C153.015 229.114 152.7 228.843 152.385 228.567L152.8 228.093C153.112 228.367 153.425 228.636 153.738 228.9L153.331 229.381ZM246.034 228.456C245.796 228.806 245.552 229.153 245.303 229.495L244.794 229.125C245.039 228.788 245.278 228.447 245.512 228.102L246.034 228.456ZM156.264 231.725C155.935 231.476 155.605 231.223 155.275 230.964L155.664 230.469C155.991 230.725 156.318 230.977 156.644 231.223L156.264 231.725ZM243.739 231.497C243.467 231.822 243.189 232.141 242.905 232.457L242.436 232.036C242.715 231.726 242.988 231.412 243.256 231.093L243.739 231.497ZM159.33 233.899C158.987 233.671 158.643 233.437 158.297 233.197L158.657 232.68C158.999 232.918 159.34 233.15 159.679 233.375L159.33 233.899ZM241.136 234.283C240.832 234.576 240.521 234.864 240.204 235.147L239.784 234.677C240.095 234.4 240.4 234.117 240.7 233.83L241.136 234.283ZM161.984 235.558C161.807 235.455 161.63 235.349 161.452 235.242L161.776 234.703C161.953 234.809 162.128 234.913 162.303 235.015C162.477 235.117 162.654 235.219 162.833 235.321L162.521 235.868C162.34 235.765 162.161 235.662 161.984 235.558ZM238.245 236.768C237.909 237.025 237.568 237.277 237.221 237.523L236.856 237.01C237.197 236.768 237.532 236.521 237.861 236.269L238.245 236.768ZM165.872 237.627C165.49 237.441 165.115 237.254 164.749 237.067L165.035 236.507C165.398 236.692 165.769 236.877 166.148 237.061L165.872 237.627ZM169.316 239.189C168.926 239.024 168.542 238.857 168.165 238.69L168.42 238.115C168.795 238.281 169.175 238.445 169.561 238.609L169.316 239.189ZM235.093 238.916C234.911 239.026 234.727 239.135 234.541 239.242C234.358 239.348 234.175 239.452 233.991 239.555L233.683 239.006C233.864 238.905 234.045 238.802 234.226 238.697C234.408 238.592 234.588 238.485 234.768 238.377L235.093 238.916ZM172.828 240.583C172.432 240.436 172.04 240.287 171.653 240.137L171.881 239.55C172.265 239.699 172.654 239.847 173.048 239.993L172.828 240.583ZM231.757 240.732C231.379 240.918 230.999 241.1 230.617 241.276L230.353 240.705C230.73 240.531 231.105 240.352 231.478 240.167L231.757 240.732ZM176.399 241.827C175.995 241.696 175.596 241.563 175.201 241.428L175.404 240.832C175.797 240.966 176.193 241.098 176.594 241.229L176.399 241.827ZM228.3 242.278C227.91 242.435 227.518 242.588 227.124 242.735L226.903 242.146C227.291 242 227.679 241.85 228.064 241.694L228.3 242.278ZM180.011 242.925C179.605 242.81 179.201 242.693 178.801 242.574L178.981 241.971C179.378 242.089 179.779 242.205 180.183 242.319L180.011 242.925ZM224.74 243.565C224.34 243.694 223.938 243.819 223.535 243.938L223.355 243.335C223.754 243.217 224.151 243.094 224.547 242.966L224.74 243.565ZM183.663 243.882C183.254 243.783 182.848 243.682 182.444 243.579L182.6 242.969C183.001 243.072 183.405 243.172 183.811 243.27L183.663 243.882ZM187.354 244.699C186.94 244.616 186.528 244.53 186.118 244.442L186.25 243.827C186.657 243.914 187.067 243.999 187.479 244.082L187.354 244.699ZM221.1 244.602C220.692 244.704 220.283 244.801 219.873 244.894L219.734 244.28C220.14 244.188 220.544 244.092 220.948 243.991L221.1 244.602ZM191.067 245.371C190.653 245.304 190.24 245.235 189.828 245.163L189.936 244.543C190.345 244.614 190.755 244.683 191.167 244.749L191.067 245.371ZM217.402 245.4C216.988 245.475 216.574 245.547 216.159 245.615L216.058 244.993C216.469 244.926 216.879 244.856 217.288 244.781L217.402 245.4ZM194.81 245.894C194.392 245.844 193.975 245.791 193.559 245.736L193.642 245.112C194.055 245.167 194.469 245.219 194.885 245.269L194.81 245.894ZM213.663 245.971C213.246 246.022 212.828 246.07 212.41 246.113L212.345 245.487C212.759 245.444 213.173 245.397 213.586 245.346L213.663 245.971ZM198.569 246.26C198.15 246.228 197.732 246.193 197.315 246.156L197.372 245.529C197.786 245.566 198.201 245.601 198.616 245.632L198.569 246.26ZM209.899 246.329C209.48 246.358 209.06 246.383 208.64 246.404L208.609 245.775C209.024 245.754 209.44 245.73 209.856 245.701L209.899 246.329ZM202.343 246.462C201.923 246.449 201.503 246.433 201.083 246.413L201.112 245.785C201.528 245.804 201.945 245.82 202.363 245.833L202.343 246.462ZM206.122 246.489C205.702 246.496 205.282 246.5 204.862 246.5L204.862 245.871C205.278 245.87 205.694 245.867 206.111 245.86L206.122 246.489Z" fill="#5B5FF0"/>
        <rect x="161" y="55" width="187.178" height="264.881" fill="white"/>
        <rect x="161" y="111.625" width="187.178" height="208.255" fill="#F8F8FD"/>
        <path fill-rule="evenodd" clip-rule="evenodd" d="M197.261 131.13C197.041 131.13 196.821 131.13 196.603 131.131L196.606 131.76C196.823 131.759 197.042 131.759 197.261 131.759C197.474 131.759 197.685 131.76 197.897 131.764L197.906 131.135C197.692 131.131 197.477 131.13 197.261 131.13ZM194.005 131.167C193.57 131.177 193.14 131.189 192.715 131.203L192.736 131.832C193.159 131.818 193.587 131.806 194.02 131.796L194.005 131.167ZM201.747 131.374C201.323 131.327 200.898 131.288 200.471 131.254L200.422 131.882C200.843 131.915 201.262 131.954 201.679 131.999L201.747 131.374ZM190.114 131.316C189.678 131.34 189.248 131.366 188.824 131.394L188.865 132.021C189.287 131.994 189.715 131.968 190.148 131.944L190.114 131.316ZM186.227 131.596C185.792 131.636 185.363 131.677 184.941 131.721L185.006 132.347C185.425 132.303 185.851 132.262 186.284 132.223L186.227 131.596ZM205.552 131.964C205.133 131.88 204.713 131.801 204.29 131.729L204.184 132.349C204.6 132.42 205.015 132.498 205.428 132.581L205.552 131.964ZM182.351 132.027C181.915 132.085 181.487 132.145 181.065 132.208L181.158 132.83C181.576 132.768 182.001 132.708 182.434 132.651L182.351 132.027ZM209.287 132.89C208.878 132.769 208.465 132.654 208.051 132.545L207.891 133.154C208.299 133.261 208.706 133.375 209.11 133.493L209.287 132.89ZM178.501 132.631C178.067 132.711 177.64 132.793 177.221 132.877L177.345 133.494C177.76 133.41 178.183 133.329 178.614 133.25L178.501 132.631ZM174.679 133.439C174.249 133.543 173.829 133.649 173.417 133.758L173.577 134.366C173.985 134.259 174.402 134.154 174.827 134.051L174.679 133.439ZM212.93 134.126C212.531 133.972 212.131 133.824 211.727 133.681L211.517 134.274C211.915 134.415 212.31 134.561 212.704 134.713L212.93 134.126ZM170.914 134.478C170.492 134.61 170.079 134.744 169.675 134.881L169.877 135.477C170.276 135.342 170.684 135.209 171.102 135.078L170.914 134.478ZM216.462 135.645C216.077 135.462 215.689 135.283 215.298 135.109L215.042 135.684C215.428 135.856 215.811 136.032 216.192 136.213L216.462 135.645ZM167.228 135.776C166.816 135.939 166.415 136.104 166.024 136.27L166.27 136.849C166.656 136.685 167.053 136.522 167.459 136.362L167.228 135.776ZM219.873 137.418C219.501 137.208 219.127 137.002 218.75 136.801L218.453 137.355C218.826 137.555 219.196 137.758 219.564 137.966L219.873 137.418ZM163.651 137.351C163.252 137.546 162.864 137.741 162.487 137.937L162.776 138.496C163.15 138.302 163.533 138.109 163.927 137.917L163.651 137.351ZM223.155 139.416C222.798 139.183 222.438 138.953 222.075 138.727L221.742 139.26C222.101 139.484 222.457 139.712 222.81 139.943L223.155 139.416ZM226.304 141.614C225.962 141.36 225.617 141.109 225.269 140.861L224.904 141.373C225.249 141.619 225.59 141.868 225.929 142.119L226.304 141.614ZM229.321 143.988C228.994 143.716 228.664 143.446 228.331 143.179L227.937 143.67C228.268 143.934 228.595 144.202 228.919 144.471L229.321 143.988ZM232.208 146.518C231.895 146.23 231.58 145.943 231.261 145.659L230.842 146.129C231.158 146.411 231.471 146.695 231.781 146.981L232.208 146.518ZM234.964 149.189C234.666 148.886 234.365 148.584 234.059 148.284L233.618 148.732C233.921 149.03 234.22 149.33 234.516 149.63L234.964 149.189ZM237.592 151.986C237.308 151.669 237.02 151.353 236.729 151.038L236.267 151.465C236.556 151.778 236.842 152.092 237.124 152.406L237.592 151.986ZM240.091 154.897C239.822 154.569 239.549 154.241 239.271 153.912L238.791 154.319C239.066 154.644 239.338 154.97 239.605 155.296L240.091 154.897ZM242.46 157.915C242.206 157.576 241.947 157.236 241.683 156.895L241.186 157.28C241.447 157.618 241.704 157.956 241.957 158.293L242.46 157.915ZM244.693 161.035C244.455 160.685 244.211 160.333 243.962 159.98L243.447 160.342C243.695 160.693 243.937 161.042 244.174 161.389L244.693 161.035ZM246.779 164.25C246.559 163.893 246.334 163.532 246.101 163.168L245.571 163.506C245.801 163.868 246.025 164.225 246.243 164.58L246.779 164.25ZM248.393 167.011C248.292 166.828 248.189 166.645 248.084 166.46L247.537 166.77C247.638 166.95 247.738 167.128 247.836 167.305C247.92 167.487 248.003 167.671 248.085 167.857L248.66 167.602C248.575 167.41 248.49 167.22 248.403 167.032L248.398 167.021L248.393 167.011ZM250.076 171.133C249.93 170.731 249.782 170.334 249.63 169.942L249.043 170.169C249.193 170.556 249.34 170.949 249.485 171.348L250.076 171.133ZM251.26 174.737C251.139 174.33 251.016 173.927 250.889 173.528L250.289 173.718C250.415 174.113 250.537 174.512 250.657 174.916L251.26 174.737ZM252.241 178.401C252.143 177.99 252.041 177.582 251.936 177.176L251.327 177.334C251.431 177.735 251.532 178.14 251.629 178.548L252.241 178.401ZM253.035 182.115C252.957 181.698 252.875 181.283 252.79 180.87L252.174 180.997C252.258 181.406 252.339 181.817 252.417 182.231L253.035 182.115ZM253.648 185.854C253.59 185.437 253.528 185.021 253.464 184.607L252.842 184.704C252.906 185.115 252.967 185.527 253.025 185.942L253.648 185.854ZM254.086 189.624C254.047 189.203 254.005 188.783 253.959 188.364L253.334 188.432C253.379 188.847 253.421 189.264 253.46 189.683L254.086 189.624ZM254.348 193.406C254.329 192.985 254.306 192.565 254.281 192.145L253.653 192.184C253.678 192.6 253.701 193.017 253.72 193.435L254.348 193.406ZM254.432 197.199C254.433 196.777 254.43 196.355 254.424 195.934L253.795 195.943C253.801 196.361 253.803 196.779 253.802 197.198L254.432 197.199ZM254.33 200.991C254.352 200.57 254.37 200.149 254.385 199.728L253.756 199.705C253.741 200.123 253.723 200.541 253.702 200.958L254.33 200.991ZM254.034 204.774C254.078 204.355 254.118 203.935 254.155 203.515L253.528 203.46C253.492 203.877 253.452 204.293 253.408 204.708L254.034 204.774ZM253.532 208.536C253.6 208.12 253.663 207.703 253.723 207.285L253.1 207.196C253.041 207.61 252.978 208.023 252.911 208.435L253.532 208.536ZM252.81 212.264C252.903 211.853 252.992 211.44 253.076 211.026L252.46 210.9C252.376 211.31 252.288 211.718 252.196 212.125L252.81 212.264ZM251.851 215.939C251.971 215.535 252.087 215.129 252.198 214.721L251.591 214.555C251.481 214.959 251.366 215.36 251.248 215.759L251.851 215.939ZM250.636 219.54C250.786 219.145 250.93 218.748 251.071 218.349L250.477 218.141C250.338 218.535 250.195 218.927 250.048 219.317L250.636 219.54ZM249.147 223.038C249.328 222.657 249.504 222.273 249.675 221.886L249.099 221.632C248.931 222.013 248.757 222.392 248.579 222.768L249.147 223.038ZM247.366 226.4C247.581 226.036 247.79 225.668 247.993 225.297L247.442 224.994C247.241 225.36 247.035 225.722 246.824 226.081L247.366 226.4ZM245.281 229.584C245.53 229.242 245.773 228.896 246.01 228.545L245.489 228.192C245.256 228.537 245.017 228.878 244.772 229.214L245.281 229.584ZM242.885 232.545C243.169 232.23 243.446 231.91 243.718 231.586L243.236 231.181C242.969 231.5 242.696 231.814 242.417 232.124L242.885 232.545ZM240.187 235.234C240.504 234.951 240.814 234.663 241.119 234.371L240.683 233.917C240.384 234.205 240.079 234.487 239.768 234.764L240.187 235.234ZM161.531 235.329C161.709 235.436 161.886 235.542 162.063 235.645C162.239 235.749 162.418 235.852 162.599 235.955L162.911 235.408C162.731 235.306 162.555 235.204 162.381 235.102C162.207 235 162.031 234.896 161.855 234.79L161.531 235.329ZM237.208 237.609C237.555 237.363 237.896 237.111 238.231 236.854L237.848 236.355C237.519 236.608 237.184 236.855 236.844 237.096L237.208 237.609ZM164.824 237.153C165.19 237.34 165.564 237.527 165.946 237.713L166.221 237.147C165.843 236.963 165.472 236.778 165.11 236.593L164.824 237.153ZM168.236 238.776C168.613 238.943 168.996 239.109 169.385 239.274L169.631 238.695C169.245 238.531 168.865 238.366 168.491 238.201L168.236 238.776ZM234.532 239.327C234.717 239.22 234.901 239.112 235.083 239.002L234.758 238.463C234.579 238.571 234.398 238.678 234.217 238.783C234.036 238.887 233.856 238.99 233.674 239.092L233.982 239.64C234.166 239.537 234.349 239.433 234.532 239.327ZM171.72 240.222C172.106 240.372 172.497 240.521 172.893 240.668L173.113 240.078C172.72 239.932 172.331 239.784 171.948 239.635L171.72 240.222ZM230.613 241.361C230.994 241.184 231.373 241.003 231.751 240.816L231.472 240.252C231.099 240.437 230.725 240.616 230.348 240.79L230.613 241.361ZM175.263 241.512C175.658 241.647 176.057 241.78 176.46 241.911L176.655 241.313C176.255 241.183 175.858 241.051 175.466 240.917L175.263 241.512ZM227.124 242.819C227.517 242.672 227.908 242.519 228.298 242.362L228.063 241.779C227.678 241.934 227.291 242.084 226.902 242.23L227.124 242.819ZM178.859 242.658C179.259 242.777 179.662 242.894 180.068 243.009L180.239 242.404C179.836 242.289 179.436 242.173 179.039 242.055L178.859 242.658ZM223.539 244.022C223.941 243.902 224.343 243.778 224.743 243.649L224.55 243.05C224.154 243.177 223.757 243.3 223.359 243.419L223.539 244.022ZM182.497 243.663C182.901 243.766 183.307 243.867 183.715 243.966L183.863 243.354C183.457 243.256 183.054 243.156 182.653 243.053L182.497 243.663ZM186.167 244.525C186.577 244.613 186.988 244.699 187.402 244.782L187.526 244.166C187.115 244.083 186.706 243.998 186.299 243.91L186.167 244.525ZM219.882 244.977C220.291 244.884 220.7 244.787 221.107 244.685L220.955 244.075C220.552 244.175 220.148 244.271 219.742 244.363L219.882 244.977ZM189.873 245.246C190.284 245.318 190.696 245.387 191.111 245.453L191.21 244.832C190.799 244.766 190.389 244.698 189.981 244.626L189.873 245.246ZM216.172 245.697C216.586 245.63 217 245.558 217.413 245.482L217.3 244.864C216.891 244.939 216.481 245.009 216.071 245.076L216.172 245.697ZM193.599 245.819C194.015 245.874 194.431 245.926 194.849 245.976L194.923 245.351C194.509 245.302 194.095 245.25 193.682 245.195L193.599 245.819ZM212.428 246.196C212.845 246.152 213.262 246.105 213.679 246.053L213.602 245.429C213.189 245.48 212.776 245.527 212.362 245.57L212.428 246.196ZM197.351 246.238C197.767 246.276 198.185 246.311 198.603 246.342L198.651 245.715C198.235 245.684 197.821 245.649 197.408 245.612L197.351 246.238ZM208.662 246.487C209.081 246.465 209.5 246.44 209.919 246.412L209.877 245.784C209.461 245.812 209.046 245.837 208.631 245.858L208.662 246.487ZM201.114 246.496C201.533 246.515 201.953 246.531 202.373 246.544L202.392 245.915C201.975 245.903 201.559 245.887 201.143 245.867L201.114 246.496ZM204.889 246.582C205.308 246.582 205.727 246.578 206.147 246.571L206.136 245.942C205.72 245.949 205.304 245.953 204.888 245.953L204.889 246.582Z" fill="#5B5FF0"/>
        <path d="M180.728 192.367C184.246 169.913 202.257 156.644 210.591 152.005C218.925 147.366 230.347 140.882 260.033 140.882C289.718 140.882 312.452 164.376 321.712 179.145C332.67 200.254 334.246 241.236 305.044 256.158C275.842 271.081 235.239 261.379 217.536 252.215C199.834 243.05 176.329 220.435 180.728 192.367Z" fill="#E6E6F3"/>
        <path fill-rule="evenodd" clip-rule="evenodd" d="M245.903 183.723L237.531 183.625L237.526 184.026L245.899 184.124L245.903 183.723" fill="white"/>
        <mask id="mask1" mask-type="alpha" maskUnits="userSpaceOnUse" x="180" y="140" width="149" height="124">
            <path d="M180.728 192.367C184.246 169.913 202.257 156.644 210.591 152.005C218.925 147.366 230.347 140.882 260.033 140.882C289.718 140.882 312.452 164.376 321.712 179.145C332.67 200.254 334.246 241.236 305.044 256.158C275.842 271.081 235.239 261.379 217.536 252.215C199.834 243.05 176.329 220.435 180.728 192.367Z" fill="#FCFCFF"/>
        </mask>
        <g mask="url(#mask1)">
            <path fill-rule="evenodd" clip-rule="evenodd" d="M218.912 203.209C219.493 198.747 220.639 191.694 219.853 188.184C219.704 187.521 218.344 186.862 218.165 186.208C218.151 186.157 217.967 185.493 217.968 185.492C219.613 184.898 223.11 188.982 224.467 190.166C225.317 190.908 227.026 191.336 226.699 192.308C226.166 193.894 228.116 193.861 228.493 196.97C228.769 199.245 230.119 202.192 230.156 202.918C230.226 204.258 230.415 203.476 230.784 204.753C230.923 205.232 231.065 205.709 231.215 206.183C231.228 206.222 231.281 206.297 231.252 206.299C228.999 206.489 218.912 203.209 218.912 203.209" fill="#FAA95F"/>
            <path fill-rule="evenodd" clip-rule="evenodd" d="M220.202 194.061C218.51 193.631 216.679 193.999 215.037 193.327C213.94 192.878 212.946 191.938 212.439 190.858C210.951 187.686 213.021 185.966 214.522 183.377C215.489 181.71 216.358 179.875 217.049 178.073C217.534 176.81 216.663 175.772 217.03 174.564C217.414 173.297 218.168 172.619 219.53 172.596C222.438 172.547 225.705 176.464 227.209 178.702C228.016 179.901 228.541 181.345 229.519 182.42C230.449 183.442 231.848 183.098 232.818 184.515C233.238 185.127 232.216 185.952 232.022 186.722C231.915 187.146 232.1 187.35 232.29 187.722C232.703 188.531 232.81 188.781 232.937 189.058C233.162 189.547 233.104 189.935 233.069 190.411C233.025 191.02 233.093 191.256 232.825 191.867C232.49 192.632 232.216 192.886 231.814 193.435C231.315 194.118 230.601 194.642 229.994 195.109C228.768 196.053 227.565 196.68 226.512 196.383C223.581 195.556 220.202 194.061 220.202 194.061" fill="#FAA95F"/>
            <path fill-rule="evenodd" clip-rule="evenodd" d="M218.702 198.444C214.615 198.579 210.916 196.812 209.225 195.515C205.237 192.454 204.545 189.708 204.763 185.461C204.854 183.688 205.267 181.592 205.267 181.592C205.267 181.592 204.874 180.82 204.992 179.946C205.144 178.814 205.82 177.536 205.855 177.812C206.02 179.103 206.459 179.442 206.459 179.442C206.459 179.442 207.94 176.66 210.094 174.629C211.119 173.663 216.492 171.634 216.492 171.634C216.492 171.634 217.467 170.279 219.596 169.824L218.522 171.328C220.548 170.025 225.773 171.15 226.693 172.749C227.004 173.29 225.974 173.662 224.437 174.818C222.979 175.915 218.559 179.038 218.325 179.771C217.757 181.552 218.13 181.711 218.669 183.479C218.897 184.225 219.614 185.641 219.731 185.888C220.124 186.713 220.428 187.657 220.096 187.922C219.829 188.135 218.992 188.626 218.802 188.333C218.486 187.844 217.317 185.563 215.418 186.308C214.688 186.594 213.648 187.941 214.036 189.646C214.186 190.306 215.058 192.174 216.178 192.537C218.01 193.133 219.494 191.108 219.494 191.108C221.472 194.516 220.646 196.72 218.702 198.444" fill="#2F4083"/>
            <path fill-rule="evenodd" clip-rule="evenodd" d="M225.964 182.81C226.274 182.606 226.735 182.759 226.991 183.152C227.247 183.544 227.203 184.028 226.892 184.232C226.582 184.436 226.122 184.283 225.865 183.89C225.609 183.498 225.653 183.014 225.964 182.81" fill="#2F4083"/>
            <path fill-rule="evenodd" clip-rule="evenodd" d="M226.553 180.579C226.903 181.153 226.022 180.911 224.798 181.723C224.119 182.173 223.336 183.374 223.223 182.995C223.142 182.721 223.161 182.517 223.213 182.33C223.851 180.012 226.361 180.265 226.553 180.579" fill="#2F4083"/>
            <path fill-rule="evenodd" clip-rule="evenodd" d="M232.471 188.179C232.471 188.178 232.471 188.178 232.213 188.07L232.471 188.178C232.53 188.036 232.464 187.872 232.321 187.812C232.179 187.753 232.016 187.819 231.956 187.961C231.956 187.961 231.956 187.961 231.955 187.962C231.955 187.962 231.955 187.962 231.955 187.962C231.954 187.964 231.953 187.967 231.951 187.972C231.946 187.981 231.94 187.996 231.93 188.015C231.91 188.053 231.879 188.109 231.837 188.176C231.752 188.309 231.623 188.478 231.447 188.626C231.107 188.913 230.576 189.143 229.769 188.849C229.624 188.796 229.464 188.871 229.411 189.016C229.358 189.161 229.433 189.321 229.578 189.374C230.594 189.744 231.333 189.454 231.807 189.053C232.038 188.859 232.202 188.643 232.308 188.477C232.361 188.393 232.401 188.321 232.428 188.269C232.441 188.243 232.451 188.222 232.458 188.206C232.462 188.199 232.465 188.192 232.467 188.188C232.468 188.185 232.469 188.183 232.469 188.182L232.47 188.18L232.47 188.179L232.471 188.179ZM231.955 187.962C231.955 187.962 231.955 187.962 231.955 187.962Z" fill="#DA7645"/>
            <path fill-rule="evenodd" clip-rule="evenodd" d="M236.556 243.47C236.556 243.47 237.503 256.686 235.78 272.693L218.289 272.582C218.289 272.582 215.744 243.828 215.738 243.586C215.732 243.343 236.556 243.47 236.556 243.47Z" fill="#2F4083"/>
            <path fill-rule="evenodd" clip-rule="evenodd" d="M224.53 246.917L225.552 252.081C225.412 253.016 225.565 254.637 225.55 257.127C225.545 258.012 227.38 261.084 228.399 261.813C229.46 262.572 230.282 263.178 231.732 263.316C232.541 263.392 233.238 263.801 234.046 263.513C235.086 263.142 233.174 260.465 232.219 258.484C232.219 258.484 231.435 256.414 232.225 256.515C232.369 256.534 232.559 257 233.915 258.346C234.398 258.825 235.637 258.281 235.279 257.567C234.466 255.946 233.504 253.844 230.811 251.225L230.468 245.798L224.53 246.917" fill="#FAA95F"/>
            <path fill-rule="evenodd" clip-rule="evenodd" d="M214.716 245.69C213.642 244.17 213.646 240.878 213.569 238.104C213.514 236.129 213.41 233.498 213.225 231.505C212.828 227.243 212.738 225.474 212.647 222.121C212.573 219.395 212.555 216.636 212.709 213.895C212.966 209.315 214.487 204.341 217.378 200.548C219.5 197.764 220.053 197.695 223.591 198.813C226.07 199.597 228.785 200.765 230.531 202.584C231.802 203.909 232.494 205.823 233.158 207.431C233.973 209.405 234.902 211.409 235.392 213.47C236.752 219.196 236.602 225.174 237.241 230.975C237.42 232.599 237.605 234.306 237.644 235.943C237.691 237.896 237.814 239.461 237.73 241.412C237.711 241.86 237.505 244.273 237.515 244.379C237.608 245.389 236.865 245.362 234.567 245.598C230.261 246.041 226.837 246.14 221.576 246.224C218.982 246.265 215.237 246.427 214.716 245.69Z" fill="#F9DA6D"/>
            <path fill-rule="evenodd" clip-rule="evenodd" d="M228.082 209.871C228.11 215.232 226.474 227.56 226.953 230.068C227.295 231.857 227.878 234.454 229.365 240.215C229.927 242.39 232.279 248.467 232.563 250.057C232.856 251.704 225.045 253.343 224.29 251.87C222.225 247.845 221.012 243.586 220.258 241.216C217.728 233.257 216.642 226.584 216.927 219.43C217.082 215.558 217.499 211.068 217.738 209.798C218.877 203.735 228.608 204.907 228.082 209.871" fill="#EDCC59"/>
            <path fill-rule="evenodd" clip-rule="evenodd" d="M269.566 199.761L280.065 169.726L281.779 170.091L272.946 200.044L269.566 199.761" fill="#C0E8FF"/>
            <path fill-rule="evenodd" clip-rule="evenodd" d="M286.094 213.578C286.188 213.619 286.719 208.243 287.452 199.942C287.547 198.865 287.452 192.127 287.452 192.127L294.041 183.314C294.041 183.314 295.15 194.169 296.211 195.544C297.131 196.737 297.996 208.247 298.71 208.82L298.696 223.151L292.262 218.759C292.262 218.759 283.418 212.41 286.094 213.578Z" fill="#FAA95F"/>
            <path fill-rule="evenodd" clip-rule="evenodd" d="M293.208 185.534C294.141 183.982 295.757 182.916 296.477 181.224C296.958 180.093 297.006 178.677 296.592 177.514C295.379 174.098 292.602 174.345 289.612 173.54C287.685 173.022 285.71 172.309 283.889 171.49C282.612 170.916 282.498 169.518 281.348 168.898C280.142 168.249 279.093 168.301 278.074 169.278C275.897 171.365 276.343 176.627 276.865 179.369C277.145 180.838 277.809 182.281 277.871 183.785C277.931 185.215 276.868 186.785 277.315 188.213C277.544 188.947 278.458 188.348 279.161 188.772C279.548 189.006 279.561 189.291 279.691 189.702C279.976 190.598 280.093 190.848 280.2 191.144C280.391 191.668 280.56 192 280.81 192.425C281.054 192.841 281.212 193.017 281.608 193.583C281.834 193.907 282.097 194.399 282.605 194.671C283.076 194.924 283.919 194.923 284.706 194.823C286.296 194.621 289.504 193.073 290.252 191.845C291.894 189.149 293.208 185.534 293.208 185.534" fill="#FAA95F"/>
            <path fill-rule="evenodd" clip-rule="evenodd" d="M282.452 189.958C282.294 190.09 282.148 190.187 282 190.281C281.844 190.381 281.693 190.451 281.537 190.519C281.463 190.551 281.387 190.577 281.312 190.608C281.201 190.652 281.087 190.693 280.967 190.733C280.694 190.824 280.39 190.907 280.026 190.988C279.851 191.025 279.738 191.198 279.775 191.373C279.812 191.549 279.984 191.661 280.159 191.624C280.481 191.562 280.763 191.507 281.014 191.43C281.221 191.367 281.412 191.297 281.583 191.2C281.722 191.121 281.848 191.03 281.966 190.921C282.07 190.824 282.167 190.723 282.258 190.6C282.376 190.442 282.479 190.273 282.586 190.065C282.615 190.028 282.609 189.974 282.572 189.945C282.535 189.916 282.482 189.922 282.452 189.958" fill="#F1922F"/>
            <path fill-rule="evenodd" clip-rule="evenodd" d="M269.566 199.761L280.065 169.726L281.779 170.091L272.946 200.044L269.566 199.761" fill="#FFE9DA"/>
            <path fill-rule="evenodd" clip-rule="evenodd" d="M279.009 180.479C279.397 180.325 279.813 180.174 280.251 180.088C280.513 180.036 280.783 180.01 281.064 180.024C281.441 180.042 281.835 180.123 282.254 180.341C282.49 180.463 282.734 180.616 282.985 180.82C283.047 180.88 283.145 180.878 283.205 180.816C283.264 180.755 283.263 180.656 283.201 180.596C282.753 180.089 282.303 179.77 281.857 179.576C281.611 179.47 281.367 179.405 281.125 179.373C280.782 179.327 280.445 179.351 280.121 179.412C279.638 179.502 279.184 179.686 278.759 179.863C278.589 179.932 278.507 180.126 278.577 180.296C278.646 180.466 278.84 180.548 279.009 180.479" fill="#2F4083"/>
            <path fill-rule="evenodd" clip-rule="evenodd" d="M292.58 182.103C293.786 182.531 294.817 181.793 295.279 180.601C296.668 177.019 291.662 174.382 291.688 177.251C291.695 178.078 292.467 178.724 292.239 179.473C291.962 180.384 291.95 182.084 292.58 182.103Z" fill="#FFA76E"/>
            <path fill-rule="evenodd" clip-rule="evenodd" d="M292.053 178.565C292.678 178.31 293.401 177.964 293.954 178.604C294.699 179.466 293.495 180.556 292.706 179.951C292.433 179.741 292.485 179.39 292.765 179.23C292.885 179.161 293.492 179.011 293.238 178.871C292.787 178.623 291.929 178.928 292.053 178.565" fill="#FFA157"/>
            <path fill-rule="evenodd" clip-rule="evenodd" d="M291.585 178.03C292.054 177.101 292.699 176.017 293.758 176.852C294.031 177.067 294.206 177.406 294.365 177.724C294.372 177.738 294.399 177.773 294.386 177.767C293.91 177.555 293.467 177.218 293.034 177.268C292.238 177.361 291.585 178.03 291.585 178.03" fill="#FFA157"/>
            <path fill-rule="evenodd" clip-rule="evenodd" d="M277.242 185.833C275.8 188.329 279.909 195.015 283.47 195.004C288.465 194.988 291.113 189.499 292.137 185.755L289.188 181.203C290.495 181.657 279.068 186.631 277.242 185.833" fill="white"/>
            <path d="M290.491 177.646L288.948 182.211" stroke="white" stroke-width="2" stroke-miterlimit="10" stroke-linecap="round" stroke-linejoin="round"/>
            <path d="M293.624 183.591L291.704 186.4" stroke="white" stroke-width="2" stroke-miterlimit="10" stroke-linecap="round" stroke-linejoin="round"/>
            <path fill-rule="evenodd" clip-rule="evenodd" d="M280.591 181.207C280.237 181.207 279.949 181.67 279.949 182.241C279.949 182.811 280.237 183.274 280.591 183.274C280.945 183.274 281.233 182.811 281.233 182.241C281.233 181.67 280.945 181.207 280.591 181.207Z" fill="#2F4083"/>
            <path fill-rule="evenodd" clip-rule="evenodd" d="M276.194 172.948C276.184 173.003 286.313 179.669 290.388 178.448C290.388 178.448 292.095 176.741 293.536 177.937C294.435 178.683 294.945 180.134 293.418 183.286C292.943 183.368 291.863 188.401 293.624 189.83C295.64 191.465 305.177 177.088 296.998 168.219C293.321 164.233 278.502 159.613 276.194 172.948" fill="#D7D7F2"/>
            <path fill-rule="evenodd" clip-rule="evenodd" d="M300.361 173.535C300.361 173.535 292.643 172.227 292.289 172.038C291.934 172.478 291.553 174.562 291.553 174.562L300.29 176.115L300.361 173.535Z" fill="#E3E4FF"/>
            <path opacity="0.5" fill-rule="evenodd" clip-rule="evenodd" d="M290.843 173.892C290.843 173.892 285.529 199.115 285.533 199.193C285.537 199.271 278.986 202.512 270.389 201.439C270.389 201.439 267.152 201.148 266.386 198.82L276.413 172.026L290.843 173.892" fill="#5B5FF0"/>
            <mask id="mask2" mask-type="alpha" maskUnits="userSpaceOnUse" x="266" y="172" width="25" height="30">
                <path fill-rule="evenodd" clip-rule="evenodd" d="M290.843 173.892C290.843 173.892 285.529 199.115 285.533 199.193C285.537 199.271 278.986 202.512 270.389 201.439C270.389 201.439 267.152 201.148 266.386 198.82L276.413 172.026L290.843 173.892" fill="#5B5FF0"/>
            </mask>
            <g mask="url(#mask2)">
                <path opacity="0.5" fill-rule="evenodd" clip-rule="evenodd" d="M267.645 201.279L278.55 169.824L280.331 170.207L271.155 201.575L267.645 201.279" fill="white"/>
                <path d="M281.046 169.171C281.046 169.171 281.027 169.263 280.965 169.444C280.093 172.459 272.226 199.815 272.394 200.464C272.572 201.181 281.806 169.137 281.806 169.137" fill="white"/>
            </g>
            <path fill-rule="evenodd" clip-rule="evenodd" d="M293.011 172.098L276.365 169.88L275.944 172.556L292.59 174.774L293.011 172.098Z" fill="#5B5FF0"/>
            <path fill-rule="evenodd" clip-rule="evenodd" d="M300.111 175.599C301.925 176.408 309.312 193.342 293.646 189.83C293.646 189.83 300.098 175.593 300.111 175.599Z" fill="#D7D7F2"/>
            <path fill-rule="evenodd" clip-rule="evenodd" d="M291.637 199.986C285.297 201.247 269.246 209.901 266.859 209.265C264.471 208.63 260.941 206.051 254.893 201.668C253.656 200.771 247.869 196.026 247.869 196.026L243.852 203.715C243.852 203.715 250.159 209.386 253.189 211.662C258.966 216.001 262.004 218.703 265.291 220.014C267.406 220.857 281.452 216.657 286.746 214.627C291.181 212.926 294.583 212.721 296.13 209.335C297.568 206.187 296.168 199.085 291.637 199.986" fill="#FAFAFF"/>
            <path fill-rule="evenodd" clip-rule="evenodd" d="M308.83 269.872C308.887 263.963 309.084 257.933 308.685 252.147C308.475 249.097 308.464 245.693 308.555 242.599C308.731 236.653 308.38 232.437 308.444 227.244C308.495 223.024 307.909 218.196 307.344 213.989C306.399 206.957 304.641 199.15 300.094 193.647C296.757 189.608 295.97 189.567 291.138 191.714C287.751 193.219 282.077 201.513 279.879 205.803C278.636 208.23 277.875 213.062 277.444 215.689C276.917 218.896 276.631 223.195 276.42 226.452C275.794 236.157 276.021 233.624 275.666 240.415C275.535 242.938 274.953 250.325 274.806 253.249C274.543 258.477 273.738 285.186 273.654 288.206C273.101 308.04 276.653 309.338 276.813 309.377C284.039 311.175 290.5 311.201 293.748 310.89C295.611 310.712 300.663 316.885 308.072 316.385C311.724 316.138 308.728 280.579 308.83 269.872" fill="white"/>
            <path fill-rule="evenodd" clip-rule="evenodd" d="M291.655 255.113L289.368 259.79C289.265 260.719 288.708 262.229 288.09 264.613C287.871 265.46 285.337 267.93 284.178 268.369C282.971 268.825 282.031 269.196 280.61 268.959C279.817 268.827 279.047 269.041 278.348 268.56C277.448 267.942 279.955 265.869 281.37 264.217C281.37 264.217 282.645 262.439 281.864 262.335C281.721 262.316 281.422 262.713 279.783 263.656C279.2 263.991 278.154 263.157 278.677 262.565C279.866 261.222 281.318 259.457 284.557 257.637L286.262 252.538L291.655 255.113" fill="#FAA95F"/>
            <path d="M292.025 231.146C293.661 226.239 291.081 217.619 289.98 209.597C288.879 201.575 299.417 201.575 300.204 206.766C300.99 211.957 302.437 220.167 302.563 228.472C302.689 236.778 294.856 252.591 290.924 259.459H280.857C283.898 252.066 290.389 236.054 292.025 231.146Z" fill="#F8F8FD"/>
            <path fill-rule="evenodd" clip-rule="evenodd" d="M249.988 196.808C248.878 195.722 246.124 193.151 245.621 191.881C245.43 191.401 246.723 189.375 247.224 188.093C247.666 186.963 247.906 184.78 247.903 184.497C247.903 184.497 248.322 182.92 246.121 181.815C246.121 181.815 245.444 178.901 243.8 179.246C243.8 179.246 243.583 177.061 241.037 178.575C241.037 178.575 240.256 178.35 239.591 178.565C239.088 178.728 238.641 179.248 238.707 179.712C238.76 180.081 239.143 180.232 239.724 180.341C239.724 180.341 239.626 181.83 239.601 182.13C239.548 182.755 238.561 185.806 238.448 187.468C238.368 188.654 239.708 191.6 239.714 192.258C239.72 192.909 239.89 195.81 241.335 199.371C241.994 200.995 243.214 202.95 244.827 204.98C247.787 203.036 249.869 198.98 249.988 196.808" fill="#5B5FF0"/>
            <mask id="mask3" mask-type="alpha" maskUnits="userSpaceOnUse" x="238" y="178" width="12" height="27">
                <path fill-rule="evenodd" clip-rule="evenodd" d="M249.988 196.822C248.877 195.737 246.124 193.166 245.621 191.896C245.43 191.416 246.722 189.39 247.224 188.108C247.666 186.978 247.906 184.794 247.903 184.512C247.903 184.512 248.322 182.935 246.121 181.83C246.121 181.83 245.444 178.916 243.8 179.261C243.8 179.261 243.582 177.076 241.037 178.589C241.037 178.589 240.256 178.364 239.591 178.58C239.088 178.743 238.641 179.263 238.707 179.726C238.76 180.096 239.142 180.247 239.723 180.355C239.723 180.355 239.626 181.845 239.601 182.145C239.548 182.77 238.561 185.821 238.448 187.483C238.368 188.669 239.708 191.614 239.714 192.272C239.72 192.924 239.89 195.825 241.335 199.386C241.993 201.01 243.214 202.965 244.827 204.994C247.787 203.05 249.869 198.995 249.988 196.822" fill="#5B5FF0"/>
            </mask>
            <g mask="url(#mask3)">
                <path fill-rule="evenodd" clip-rule="evenodd" d="M238.892 194.31C239.382 193.462 240.297 192.54 241.068 191.196C241.985 189.595 244.914 188.33 243.139 186.624C242.372 185.887 241.244 185.453 240.416 184.765C240.057 184.467 239.694 184.16 239.412 183.817C239.412 183.816 239.141 183.464 239.113 183.472C238.843 183.547 238.527 184.057 238.399 184.241C236.88 186.436 238.892 194.31 238.892 194.31" fill="#464BE1"/>
                <path fill-rule="evenodd" clip-rule="evenodd" d="M242.221 183.49C242.221 183.49 244.208 182.337 244.985 182.546C244.985 182.546 247.44 183.709 247.756 184.562C247.756 184.562 247.931 185.395 247.897 185.459C247.744 185.743 246.666 186.323 245.887 186.379C245.311 186.421 244.866 185.752 244.394 184.871C244.394 184.871 244.024 183.952 243.377 183.851C243.377 183.851 242.715 183.948 242.636 183.966L242.221 183.49" fill="#464BE1"/>
                <path fill-rule="evenodd" clip-rule="evenodd" d="M247.47 191.049C246.584 190.376 245.367 188.208 244.888 187.452C244.318 186.553 243.694 184.636 242.927 184.15C242.747 184.037 242.511 184.06 242.31 184.065C242.158 184.069 241.867 184.043 241.742 184.147C241.706 184.178 241.674 184.213 241.644 184.251C241.62 184.28 241.582 184.35 241.57 184.386C241.49 184.635 241.477 184.853 241.5 185.066C241.629 186.242 242.766 186.81 243.149 187.871C243.45 188.705 243.327 193.965 243.6 194.851C244.546 197.922 257.412 208.961 258.274 202.858C258.281 202.805 248.289 194.288 247.292 192.255C246.798 191.247 247.47 191.049 247.47 191.049" fill="#464BE1"/>
                <path fill-rule="evenodd" clip-rule="evenodd" d="M241.433 183.79L241.268 183.788L241.265 184.109L241.739 184.115L241.519 183.952L241.433 183.79" fill="white"/>
                <path fill-rule="evenodd" clip-rule="evenodd" d="M245.903 183.723L238.077 183.625L238.073 184.026L245.899 184.124L245.903 183.723" fill="white"/>
                <path fill-rule="evenodd" clip-rule="evenodd" d="M244.563 183.531C244.636 183.501 244.696 183.476 244.739 183.46C244.82 183.428 244.86 183.337 244.829 183.256C244.797 183.175 244.706 183.135 244.625 183.166C244.577 183.185 244.513 183.211 244.435 183.243C244.079 183.389 243.443 183.649 242.836 183.809C242.464 183.907 242.122 183.962 241.871 183.938C241.746 183.926 241.658 183.896 241.6 183.854C241.547 183.816 241.51 183.763 241.497 183.677M244.563 183.531C244.211 183.675 243.547 183.947 242.916 184.113ZM242.916 184.113C242.536 184.213 242.15 184.28 241.841 184.251ZM241.841 184.251C241.685 184.236 241.536 184.195 241.416 184.11ZM241.416 184.11C241.292 184.02 241.211 183.89 241.186 183.724ZM241.186 183.724L241.186 183.724ZM241.186 183.724C241.131 183.362 241.292 183.029 241.542 182.746ZM241.542 182.746C241.793 182.463 242.147 182.211 242.527 181.998ZM242.527 181.998C243.284 181.573 244.182 181.282 244.656 181.224ZM244.694 181.536C245.081 181.489 245.434 181.616 245.821 181.775C245.853 181.788 245.885 181.801 245.917 181.815C246.267 181.96 246.65 182.119 247.07 182.125C247.156 182.126 247.228 182.057 247.229 181.97C247.231 181.883 247.161 181.812 247.074 181.811C246.718 181.805 246.39 181.669 246.029 181.52C246 181.508 245.97 181.496 245.941 181.484C245.556 181.326 245.133 181.166 244.656 181.224L244.656 181.224M244.694 181.536C244.269 181.588 243.411 181.862 242.681 182.272C242.317 182.476 241.996 182.708 241.778 182.955C241.56 183.201 241.462 183.443 241.497 183.677" fill="#003288"/>
                <path fill-rule="evenodd" clip-rule="evenodd" d="M243.223 189.8C243.309 189.806 243.385 189.74 243.391 189.654C243.433 189.052 243.478 188.379 243.226 187.767C243.088 187.431 242.865 187.122 242.634 186.832C242.563 186.742 242.491 186.654 242.42 186.567C242.258 186.37 242.101 186.179 241.965 185.981C241.771 185.699 241.633 185.425 241.595 185.139C241.557 184.859 241.613 184.551 241.838 184.197C241.885 184.123 241.863 184.026 241.79 183.98C241.716 183.933 241.619 183.955 241.572 184.028C241.313 184.438 241.234 184.819 241.283 185.181C241.331 185.538 241.5 185.861 241.706 186.159C241.85 186.368 242.02 186.576 242.186 186.778C242.254 186.862 242.323 186.946 242.388 187.028C242.615 187.314 242.815 187.594 242.936 187.887L242.936 187.887C243.155 188.42 243.12 189.017 243.077 189.632C243.071 189.718 243.136 189.793 243.223 189.8Z" fill="#003288"/>
                <path fill-rule="evenodd" clip-rule="evenodd" d="M244.396 184.533C244.167 184.17 243.876 183.834 243.433 183.687C243.35 183.66 243.261 183.704 243.234 183.787C243.207 183.869 243.251 183.958 243.334 183.986C243.674 184.098 243.915 184.361 244.13 184.701C244.237 184.871 244.334 185.054 244.433 185.241L244.434 185.243C244.533 185.43 244.635 185.621 244.747 185.797C244.971 186.148 245.254 186.464 245.688 186.571C246.12 186.676 246.659 186.564 247.37 186.166C247.446 186.123 247.473 186.028 247.431 185.952C247.388 185.876 247.293 185.849 247.217 185.891C246.533 186.274 246.081 186.343 245.763 186.265C245.447 186.188 245.221 185.956 245.012 185.628C244.908 185.465 244.812 185.285 244.712 185.096L244.708 185.089C244.611 184.905 244.509 184.713 244.396 184.533Z" fill="#003288"/>
                <path fill-rule="evenodd" clip-rule="evenodd" d="M241.596 182.615C241.813 182.605 242.075 182.549 242.389 182.444C242.471 182.417 242.516 182.327 242.488 182.245C242.46 182.163 242.371 182.118 242.289 182.146C241.991 182.246 241.759 182.292 241.581 182.301C241.402 182.31 241.291 182.28 241.225 182.238C241.112 182.169 241.059 182.013 241.136 181.724C241.21 181.445 241.393 181.107 241.637 180.787C241.88 180.467 242.174 180.178 242.459 179.99L242.459 179.99C243.338 179.411 244.236 179.028 245.211 179.156C245.297 179.167 245.376 179.107 245.388 179.021C245.399 178.934 245.338 178.855 245.252 178.844C244.165 178.701 243.188 179.133 242.286 179.727C241.965 179.939 241.646 180.256 241.387 180.596C241.128 180.936 240.92 181.31 240.832 181.643C240.746 181.966 240.759 182.32 241.059 182.506C241.199 182.592 241.381 182.626 241.596 182.615Z" fill="#003288"/>
                <path fill-rule="evenodd" clip-rule="evenodd" d="M240.289 180.845C240.675 181.136 241.129 181.063 241.496 180.928C241.578 180.898 241.619 180.807 241.589 180.726C241.559 180.644 241.469 180.602 241.387 180.633C241.051 180.757 240.732 180.785 240.478 180.594L240.478 180.594C240.313 180.469 240.254 180.307 240.268 180.108C240.282 179.899 240.376 179.654 240.519 179.396C240.773 178.941 241.152 178.494 241.395 178.208C241.427 178.17 241.456 178.136 241.483 178.104C241.539 178.038 241.53 177.938 241.463 177.883C241.397 177.827 241.298 177.835 241.242 177.902C241.217 177.932 241.188 177.966 241.157 178.002C240.916 178.286 240.515 178.758 240.245 179.243C240.092 179.517 239.973 179.81 239.954 180.087C239.935 180.374 240.025 180.646 240.289 180.845" fill="#003288"/>
                <path fill-rule="evenodd" clip-rule="evenodd" d="M238.995 180.438C239.389 180.495 239.743 180.445 240.111 180.297C240.191 180.264 240.23 180.172 240.198 180.092C240.165 180.011 240.073 179.972 239.993 180.005C239.673 180.134 239.376 180.175 239.04 180.127C238.954 180.114 238.874 180.174 238.861 180.26C238.849 180.346 238.909 180.426 238.995 180.438Z" fill="#003288"/>
            </g>
            <path d="M237.693 183.445C237.89 183.472 238.033 183.648 238.018 183.847L238.007 183.997C237.992 184.196 237.824 184.349 237.625 184.346L235.248 184.312C234.904 184.307 234.635 184.013 234.661 183.67V183.67C234.686 183.326 234.997 183.076 235.338 183.122L237.693 183.445Z" fill="#F1FAFF" fill-opacity="0.5"/>
            <path fill-rule="evenodd" clip-rule="evenodd" d="M237.861 183.836C237.864 183.807 237.86 183.779 237.852 183.753C237.84 183.716 237.843 183.677 237.858 183.644C237.822 183.651 237.784 183.646 237.75 183.627C237.726 183.614 237.7 183.604 237.671 183.6L237.377 183.56C237.291 183.548 237.231 183.469 237.242 183.383C237.254 183.297 237.334 183.237 237.42 183.248L237.714 183.289C237.783 183.298 237.847 183.32 237.904 183.353C237.975 183.393 238.003 183.479 237.971 183.552C238.049 183.537 238.128 183.582 238.152 183.66C238.172 183.723 238.18 183.79 238.175 183.859L238.172 183.896C238.171 183.909 238.169 183.922 238.165 183.933C238.167 183.946 238.168 183.958 238.167 183.971L238.164 184.008C238.159 184.078 238.14 184.143 238.111 184.202C238.076 184.275 237.991 184.309 237.917 184.282C237.937 184.358 237.896 184.44 237.82 184.469C237.759 184.492 237.692 184.504 237.623 184.503L237.325 184.499C237.239 184.498 237.169 184.427 237.17 184.34C237.172 184.253 237.243 184.183 237.33 184.185L237.627 184.189C237.656 184.189 237.683 184.184 237.709 184.175C237.745 184.161 237.784 184.161 237.818 184.174C237.809 184.139 237.811 184.1 237.829 184.065C237.84 184.041 237.848 184.014 237.85 183.985L237.853 183.948C237.854 183.935 237.856 183.922 237.86 183.911C237.858 183.898 237.858 183.886 237.859 183.873L237.861 183.836ZM236.965 183.345C236.954 183.431 236.874 183.491 236.788 183.48L236.2 183.399C236.113 183.387 236.053 183.308 236.065 183.222C236.077 183.136 236.156 183.076 236.242 183.087L236.831 183.168C236.917 183.18 236.977 183.259 236.965 183.345ZM236.891 184.336C236.89 184.423 236.818 184.492 236.731 184.491L236.137 184.482C236.05 184.481 235.981 184.41 235.982 184.323C235.983 184.236 236.055 184.167 236.142 184.168L236.736 184.176C236.823 184.177 236.892 184.249 236.891 184.336ZM235.788 183.184C235.776 183.27 235.697 183.33 235.611 183.318L235.317 183.278C235.255 183.27 235.194 183.274 235.139 183.29C235.055 183.313 234.968 183.265 234.945 183.181C234.921 183.097 234.97 183.01 235.054 182.987C235.15 182.96 235.254 182.952 235.359 182.966L235.654 183.007C235.74 183.019 235.8 183.098 235.788 183.184ZM235.703 184.319C235.701 184.406 235.63 184.475 235.543 184.474L235.246 184.47C235.14 184.468 235.039 184.445 234.947 184.404C234.868 184.368 234.833 184.275 234.868 184.196C234.904 184.116 234.997 184.081 235.076 184.117C235.129 184.14 235.188 184.154 235.251 184.155L235.548 184.159C235.634 184.161 235.704 184.232 235.703 184.319ZM234.8 183.298C234.877 183.338 234.907 183.433 234.866 183.51C234.84 183.561 234.822 183.619 234.818 183.682C234.813 183.744 234.821 183.804 234.84 183.859C234.869 183.941 234.825 184.03 234.743 184.059C234.661 184.087 234.571 184.044 234.543 183.961C234.51 183.867 234.496 183.764 234.504 183.658C234.512 183.552 234.541 183.452 234.588 183.364C234.628 183.287 234.723 183.257 234.8 183.298Z" fill="#5B5FF0"/>
        </g>
        <path d="M179.693 75.5286H181.041C181.234 75.5286 181.419 75.5475 181.596 75.5852C181.777 75.623 181.936 75.6871 182.072 75.7777C182.208 75.8646 182.315 75.9835 182.394 76.1345C182.477 76.2817 182.519 76.4667 182.519 76.6894C182.519 76.9423 182.476 77.1462 182.389 77.301C182.302 77.4557 182.185 77.5765 182.038 77.6634C181.89 77.7464 181.719 77.803 181.522 77.8332C181.33 77.8634 181.128 77.8785 180.916 77.8785H180.407V79.5377H179.693V75.5286ZM180.837 77.267C180.939 77.267 181.045 77.2632 181.154 77.2557C181.264 77.2481 181.364 77.2255 181.454 77.1877C181.549 77.15 181.624 77.0933 181.681 77.0178C181.741 76.9423 181.772 76.8366 181.772 76.7007C181.772 76.5762 181.745 76.478 181.692 76.4063C181.639 76.3308 181.571 76.2742 181.488 76.2364C181.405 76.1949 181.313 76.1685 181.211 76.1571C181.109 76.1458 181.011 76.1401 180.916 76.1401H180.407V77.267H180.837Z" fill="#5B5FF0"/>
        <path d="M184.288 75.5286H185.001V78.8921H186.705V79.5377H184.288V75.5286Z" fill="#5B5FF0"/>
        <path d="M189.653 75.5286H190.27L191.997 79.5377H191.182L190.808 78.6203H189.07L188.707 79.5377H187.909L189.653 75.5286ZM190.559 78.0088L189.942 76.378L189.313 78.0088H190.559Z" fill="#5B5FF0"/>
        <path d="M194.135 77.8219L192.629 75.5286H193.523L194.508 77.1254L195.505 75.5286H196.354L194.848 77.8219V79.5377H194.135V77.8219Z" fill="#5B5FF0"/>
        <path d="M197.854 75.5286H199.417C199.568 75.5286 199.717 75.5475 199.865 75.5852C200.012 75.6192 200.142 75.6777 200.255 75.7608C200.372 75.84 200.467 75.9438 200.538 76.0722C200.61 76.2005 200.646 76.3553 200.646 76.5365C200.646 76.763 200.582 76.9499 200.453 77.0971C200.325 77.2443 200.157 77.35 199.95 77.4142V77.4255C200.074 77.4406 200.189 77.4765 200.295 77.5331C200.404 77.586 200.497 77.6558 200.572 77.7426C200.648 77.8257 200.706 77.9238 200.748 78.0371C200.793 78.1466 200.816 78.2655 200.816 78.3938C200.816 78.6128 200.772 78.7959 200.686 78.9431C200.599 79.0865 200.484 79.2036 200.34 79.2942C200.201 79.381 200.038 79.4433 199.853 79.481C199.672 79.5188 199.487 79.5377 199.298 79.5377H197.854V75.5286ZM198.568 77.1594H199.219C199.457 77.1594 199.634 77.1141 199.751 77.0235C199.872 76.9291 199.933 76.8064 199.933 76.6554C199.933 76.4818 199.87 76.3534 199.746 76.2704C199.625 76.1836 199.429 76.1401 199.157 76.1401H198.568V77.1594ZM198.568 78.9261H199.225C199.315 78.9261 199.412 78.9204 199.514 78.9091C199.619 78.8978 199.715 78.8714 199.802 78.8298C199.889 78.7883 199.961 78.7298 200.017 78.6543C200.074 78.575 200.102 78.4693 200.102 78.3372C200.102 78.1258 200.033 77.9786 199.893 77.8955C199.757 77.8125 199.544 77.771 199.253 77.771H198.568V78.9261Z" fill="#5B5FF0"/>
        <path d="M202.444 77.5501C202.444 77.2292 202.496 76.9386 202.602 76.6781C202.708 76.4138 202.853 76.1892 203.038 76.0042C203.227 75.8193 203.45 75.6777 203.706 75.5796C203.967 75.4776 204.252 75.4267 204.561 75.4267C204.875 75.4229 205.162 75.4701 205.422 75.5682C205.682 75.6626 205.907 75.8023 206.096 75.9873C206.285 76.1722 206.432 76.395 206.538 76.6554C206.643 76.9159 206.696 77.2066 206.696 77.5275C206.696 77.8408 206.643 78.1258 206.538 78.3825C206.432 78.6392 206.285 78.86 206.096 79.045C205.907 79.23 205.682 79.3753 205.422 79.481C205.162 79.583 204.875 79.6358 204.561 79.6396C204.252 79.6396 203.967 79.5905 203.706 79.4924C203.45 79.3904 203.227 79.2489 203.038 79.0677C202.853 78.8827 202.708 78.6619 202.602 78.4052C202.496 78.1485 202.444 77.8634 202.444 77.5501ZM203.191 77.5048C203.191 77.72 203.223 77.9182 203.287 78.0994C203.355 78.2806 203.45 78.4372 203.57 78.5694C203.691 78.7015 203.835 78.8053 204.001 78.8808C204.171 78.9563 204.359 78.9941 204.567 78.9941C204.775 78.9941 204.963 78.9563 205.133 78.8808C205.303 78.8053 205.448 78.7015 205.569 78.5694C205.69 78.4372 205.783 78.2806 205.847 78.0994C205.915 77.9182 205.949 77.72 205.949 77.5048C205.949 77.3047 205.915 77.1179 205.847 76.9442C205.783 76.7706 205.69 76.6196 205.569 76.4912C205.448 76.3591 205.303 76.2572 205.133 76.1854C204.963 76.1099 204.775 76.0722 204.567 76.0722C204.359 76.0722 204.171 76.1099 204.001 76.1854C203.835 76.2572 203.691 76.3591 203.57 76.4912C203.45 76.6196 203.355 76.7706 203.287 76.9442C203.223 77.1179 203.191 77.3047 203.191 77.5048Z" fill="#5B5FF0"/>
        <path d="M208.293 77.5501C208.293 77.2292 208.346 76.9386 208.452 76.6781C208.557 76.4138 208.703 76.1892 208.888 76.0042C209.076 75.8193 209.299 75.6777 209.556 75.5796C209.816 75.4776 210.101 75.4267 210.411 75.4267C210.724 75.4229 211.011 75.4701 211.271 75.5682C211.532 75.6626 211.757 75.8023 211.945 75.9873C212.134 76.1722 212.281 76.395 212.387 76.6554C212.493 76.9159 212.546 77.2066 212.546 77.5275C212.546 77.8408 212.493 78.1258 212.387 78.3825C212.281 78.6392 212.134 78.86 211.945 79.045C211.757 79.23 211.532 79.3753 211.271 79.481C211.011 79.583 210.724 79.6358 210.411 79.6396C210.101 79.6396 209.816 79.5905 209.556 79.4924C209.299 79.3904 209.076 79.2489 208.888 79.0677C208.703 78.8827 208.557 78.6619 208.452 78.4052C208.346 78.1485 208.293 77.8634 208.293 77.5501ZM209.04 77.5048C209.04 77.72 209.073 77.9182 209.137 78.0994C209.205 78.2806 209.299 78.4372 209.42 78.5694C209.541 78.7015 209.684 78.8053 209.85 78.8808C210.02 78.9563 210.209 78.9941 210.416 78.9941C210.624 78.9941 210.813 78.9563 210.983 78.8808C211.153 78.8053 211.298 78.7015 211.419 78.5694C211.539 78.4372 211.632 78.2806 211.696 78.0994C211.764 77.9182 211.798 77.72 211.798 77.5048C211.798 77.3047 211.764 77.1179 211.696 76.9442C211.632 76.7706 211.539 76.6196 211.419 76.4912C211.298 76.3591 211.153 76.2572 210.983 76.1854C210.813 76.1099 210.624 76.0722 210.416 76.0722C210.209 76.0722 210.02 76.1099 209.85 76.1854C209.684 76.2572 209.541 76.3591 209.42 76.4912C209.299 76.6196 209.205 76.7706 209.137 76.9442C209.073 77.1179 209.04 77.3047 209.04 77.5048Z" fill="#5B5FF0"/>
        <path d="M214.358 75.5286H215.071V77.2273H215.105L216.764 75.5286H217.727L215.852 77.3802L217.851 79.5377H216.849L215.111 77.5671H215.071V79.5377H214.358V75.5286Z" fill="#5B5FF0"/>
        <path fill-rule="evenodd" clip-rule="evenodd" d="M198.976 291.582C198.646 291.632 198.331 291.828 198.159 292.091C198.037 292.276 198 292.404 197.999 292.647C197.998 292.85 198 292.863 198.057 292.981C198.161 293.196 198.361 293.35 198.601 293.4C198.753 293.432 199.112 293.413 199.244 293.365C199.772 293.175 200.097 292.691 200.02 292.209C199.982 291.97 199.84 291.768 199.636 291.664C199.474 291.58 199.205 291.547 198.976 291.582ZM204.875 292.204C204.875 292.213 204.777 292.781 204.657 293.466C204.537 294.151 204.437 294.724 204.435 294.738C204.433 294.752 204.395 294.708 204.351 294.639C204.153 294.329 203.81 294.093 203.398 293.984C203.253 293.946 203.194 293.941 202.872 293.941C202.367 293.941 202.135 293.995 201.694 294.216C200.786 294.672 200.121 295.659 199.936 296.823C199.87 297.235 199.871 297.739 199.938 298.07C200.095 298.851 200.612 299.43 201.319 299.617C201.539 299.675 201.975 299.696 202.235 299.66C202.744 299.59 203.211 299.35 203.584 298.965C203.656 298.891 203.715 298.835 203.715 298.841C203.715 298.847 203.687 299.016 203.652 299.217C203.617 299.417 203.588 299.586 203.588 299.593C203.588 299.599 203.97 299.605 204.435 299.605L205.283 299.605L205.923 295.928C206.275 293.906 206.567 292.237 206.572 292.22C206.58 292.189 206.532 292.188 205.728 292.188C205.235 292.188 204.875 292.194 204.875 292.204ZM186.091 293.961C184.941 294.17 184.013 295.12 183.67 296.436C183.541 296.934 183.504 297.569 183.579 298.007C183.713 298.788 184.16 299.345 184.841 299.58C185.037 299.648 185.246 299.678 185.528 299.678C185.944 299.678 186.255 299.609 186.592 299.44C186.847 299.313 187.011 299.197 187.209 299.003C187.305 298.908 187.381 298.846 187.377 298.864C187.362 298.928 187.242 299.579 187.242 299.592C187.242 299.599 187.623 299.605 188.089 299.605L188.936 299.605L189.422 296.819C189.689 295.286 189.908 294.026 189.907 294.019C189.906 294.007 188.222 293.998 188.22 294.01C188.219 294.012 188.188 294.186 188.151 294.396L188.083 294.779L187.998 294.642C187.894 294.476 187.688 294.274 187.519 294.172C187.358 294.075 187.137 293.994 186.94 293.959C186.743 293.924 186.288 293.926 186.091 293.961ZM194.273 293.94C194.258 293.944 194.185 293.957 194.11 293.969C193.692 294.038 193.231 294.28 192.896 294.608C192.806 294.695 192.733 294.76 192.733 294.751C192.733 294.743 192.761 294.576 192.796 294.38C192.831 294.185 192.86 294.02 192.86 294.015C192.86 294.01 192.478 294.005 192.012 294.005H191.165L190.448 298.131L189.732 302.258L190.574 302.262C191.037 302.265 191.419 302.264 191.423 302.26C191.426 302.256 191.563 301.492 191.726 300.561C191.889 299.63 192.026 298.864 192.031 298.859C192.036 298.854 192.061 298.886 192.086 298.93C192.269 299.247 192.652 299.525 193.041 299.624C193.154 299.653 193.275 299.666 193.495 299.673C193.986 299.689 194.305 299.619 194.735 299.403C195.679 298.929 196.343 297.933 196.529 296.713C196.601 296.247 196.579 295.704 196.475 295.334C196.317 294.777 195.952 294.335 195.459 294.104C195.201 293.983 195.016 293.946 194.636 293.94C194.451 293.936 194.288 293.937 194.273 293.94ZM183.373 293.963C183.343 293.967 183.256 293.986 183.181 294.005C182.736 294.115 182.323 294.374 181.936 294.785C181.834 294.893 181.751 294.972 181.751 294.961C181.751 294.949 181.787 294.734 181.832 294.482C181.877 294.231 181.914 294.02 181.914 294.015C181.914 294.01 181.532 294.005 181.066 294.005H180.219L179.742 296.764C179.479 298.281 179.26 299.541 179.255 299.563L179.246 299.605H180.096H180.946L181.177 298.278C181.304 297.549 181.429 296.873 181.453 296.777C181.56 296.36 181.761 296.082 182.061 295.935C182.316 295.81 182.459 295.783 182.937 295.77L183.353 295.758L183.5 294.914C183.581 294.449 183.652 294.043 183.659 294.01L183.671 293.95L183.549 293.953C183.482 293.954 183.403 293.959 183.373 293.963ZM197.411 296.764C197.149 298.281 196.93 299.541 196.925 299.563L196.915 299.605H197.765H198.615L199.092 296.855C199.354 295.343 199.572 294.083 199.578 294.056L199.587 294.005H198.738H197.889L197.411 296.764ZM186.997 295.447C187.245 295.499 187.476 295.657 187.604 295.86C187.915 296.35 187.75 297.257 187.262 297.752C186.847 298.172 186.264 298.303 185.812 298.078C185.591 297.968 185.397 297.721 185.332 297.466C185.226 297.048 185.336 296.462 185.593 296.08C185.916 295.598 186.491 295.338 186.997 295.447ZM194.065 295.447C194.393 295.517 194.645 295.735 194.76 296.049C194.782 296.108 194.809 296.231 194.82 296.324C194.859 296.639 194.76 297.089 194.58 297.414C194.482 297.589 194.209 297.876 194.042 297.978C193.543 298.282 192.971 298.254 192.633 297.908C192.502 297.774 192.436 297.654 192.388 297.464C192.295 297.093 192.387 296.545 192.608 296.165C192.7 296.007 192.987 295.712 193.136 295.623C193.437 295.444 193.763 295.382 194.065 295.447ZM203.344 295.447C203.591 295.499 203.822 295.657 203.951 295.86C204.261 296.35 204.097 297.257 203.608 297.752C203.194 298.172 202.61 298.303 202.158 298.078C201.937 297.968 201.743 297.721 201.679 297.466C201.573 297.048 201.683 296.462 201.939 296.08C202.262 295.598 202.837 295.338 203.344 295.447Z" fill="#5B5FF0"/>
        <path fill-rule="evenodd" clip-rule="evenodd" d="M208.066 292.883C208.066 292.904 207.854 294.137 207.84 294.2C207.83 294.24 207.826 294.241 207.455 294.246L207.079 294.251L207.04 294.462C207.018 294.578 206.995 294.708 206.989 294.751L206.977 294.829H207.349C207.554 294.829 207.722 294.834 207.722 294.841C207.722 294.847 207.587 295.626 207.421 296.571C207.256 297.516 207.113 298.372 207.103 298.473C207.056 298.964 207.17 299.313 207.438 299.5C207.674 299.665 207.933 299.712 208.596 299.712L209.062 299.713L209.072 299.671C209.087 299.607 209.172 299.14 209.172 299.123C209.172 299.114 208.986 299.107 208.76 299.106C208.219 299.106 208.072 299.076 207.926 298.936C207.836 298.85 207.803 298.729 207.807 298.501C207.81 298.342 207.864 298.003 208.115 296.573L208.421 294.838L209.167 294.833C209.857 294.829 209.913 294.826 209.922 294.797C209.93 294.769 210.024 294.264 210.024 294.248C210.024 294.244 209.689 294.241 209.281 294.241C208.745 294.241 208.538 294.236 208.538 294.221C208.538 294.201 208.748 292.963 208.763 292.897C208.769 292.867 208.744 292.865 208.418 292.865C208.191 292.865 208.066 292.871 208.066 292.883ZM222.274 292.883C222.274 292.904 222.062 294.137 222.048 294.2C222.038 294.24 222.034 294.241 221.663 294.246L221.287 294.251L221.248 294.462C221.226 294.578 221.203 294.708 221.197 294.751L221.185 294.829H221.557C221.762 294.829 221.93 294.834 221.93 294.841C221.93 294.847 221.795 295.626 221.629 296.571C221.464 297.516 221.321 298.372 221.311 298.473C221.264 298.964 221.378 299.313 221.646 299.5C221.882 299.665 222.141 299.712 222.804 299.712L223.27 299.713L223.28 299.671C223.295 299.607 223.38 299.14 223.38 299.123C223.38 299.114 223.194 299.107 222.968 299.106C222.427 299.106 222.28 299.076 222.134 298.936C222.044 298.85 222.011 298.729 222.015 298.501C222.018 298.342 222.072 298.003 222.323 296.573L222.629 294.838L223.375 294.833C224.065 294.829 224.121 294.826 224.13 294.797C224.138 294.769 224.232 294.264 224.232 294.248C224.232 294.244 223.897 294.241 223.489 294.241C222.953 294.241 222.746 294.236 222.746 294.221C222.746 294.201 222.956 292.963 222.971 292.897C222.977 292.867 222.952 292.865 222.626 292.865C222.399 292.865 222.274 292.871 222.274 292.883ZM212.809 294.169C211.718 294.284 210.805 294.95 210.316 295.986C210.087 296.473 209.975 296.945 209.957 297.509C209.94 298.002 210.007 298.344 210.188 298.703C210.486 299.293 211.045 299.668 211.776 299.768C212.024 299.802 212.607 299.782 212.842 299.731C213.742 299.537 214.487 298.964 214.887 298.156C214.933 298.063 214.971 297.983 214.971 297.978C214.971 297.973 214.805 297.968 214.601 297.968H214.232L214.165 298.101C213.931 298.567 213.511 298.924 213.005 299.087C212.74 299.172 212.614 299.189 212.28 299.189C212.024 299.188 211.945 299.181 211.814 299.148C211.599 299.093 211.456 299.03 211.28 298.912C210.922 298.672 210.717 298.315 210.657 297.833C210.636 297.662 210.642 297.357 210.669 297.257L210.68 297.216H212.923H215.166L215.177 297.165C215.183 297.137 215.213 296.999 215.243 296.858C215.397 296.145 215.302 295.488 214.976 295.001C214.696 294.584 214.227 294.294 213.669 294.195C213.475 294.16 213.022 294.146 212.809 294.169ZM218.097 294.169C217.388 294.24 216.814 294.581 216.575 295.074C216.464 295.304 216.434 295.435 216.434 295.692C216.435 296.043 216.513 296.276 216.712 296.515C216.95 296.802 217.281 296.985 218.124 297.298C218.899 297.586 219.177 297.82 219.206 298.209C219.238 298.644 218.943 298.999 218.425 299.152C218.085 299.251 217.621 299.255 217.314 299.159C216.892 299.029 216.656 298.741 216.626 298.322L216.615 298.17H216.282H215.95L215.95 298.359C215.95 298.601 215.986 298.767 216.076 298.952C216.287 299.386 216.781 299.689 217.409 299.769C217.655 299.8 218.226 299.781 218.451 299.734C218.921 299.636 219.283 299.445 219.55 299.155C219.789 298.896 219.889 298.626 219.889 298.244C219.889 297.867 219.801 297.634 219.566 297.39C219.342 297.157 219.146 297.049 218.388 296.744C217.645 296.445 217.444 296.331 217.288 296.122C217.05 295.802 217.089 295.356 217.38 295.067C217.511 294.938 217.751 294.81 217.956 294.762C218.173 294.71 218.61 294.715 218.803 294.771C219.118 294.862 219.376 295.056 219.49 295.288C219.556 295.422 219.6 295.627 219.589 295.748L219.582 295.821L219.909 295.816L220.236 295.811L220.233 295.591C220.23 295.328 220.199 295.191 220.095 294.985C220.009 294.817 219.8 294.591 219.619 294.471C219.239 294.218 218.69 294.11 218.097 294.169ZM213.521 294.816C214.056 294.956 214.421 295.291 214.554 295.766C214.605 295.946 214.621 296.269 214.591 296.514L214.568 296.702H212.669H210.769L210.815 296.532C210.93 296.101 211.14 295.733 211.445 295.426C211.718 295.151 211.989 294.984 212.352 294.866C212.618 294.78 212.799 294.755 213.095 294.764C213.288 294.769 213.391 294.782 213.521 294.816Z" fill="#2F4083"/>
        <path d="M179.541 90.7243L180.137 90.6488V86.1339L179.571 86.0282V85.5676H180.665C180.761 85.5676 180.867 85.5651 180.983 85.5601C181.098 85.555 181.186 85.55 181.247 85.545C181.509 85.5248 181.725 85.5148 181.896 85.5148C182.415 85.5148 182.83 85.5676 183.142 85.6733C183.454 85.779 183.68 85.9401 183.821 86.1565C183.962 86.373 184.033 86.6573 184.033 87.0097C184.033 87.357 183.94 87.6791 183.753 87.9761C183.567 88.2731 183.298 88.4769 182.946 88.5876C183.147 88.6732 183.326 88.8292 183.482 89.0557C183.638 89.2822 183.804 89.5767 183.98 89.9391C184.106 90.1857 184.201 90.3644 184.267 90.4752C184.337 90.5809 184.405 90.6413 184.471 90.6564L184.72 90.7319V91.1773H183.436C183.356 91.1773 183.27 91.0968 183.18 90.9357C183.094 90.7696 182.981 90.5104 182.84 90.158C182.674 89.7453 182.53 89.4232 182.41 89.1916C182.289 88.9601 182.16 88.8167 182.024 88.7613H181.247V90.6488L181.941 90.7243V91.1773H179.541V90.7243ZM181.941 88.3007C182.228 88.3007 182.452 88.1976 182.613 87.9912C182.774 87.7848 182.855 87.4753 182.855 87.0625C182.855 86.6951 182.774 86.4233 182.613 86.2471C182.457 86.071 182.186 85.9829 181.798 85.9829C181.657 85.9829 181.536 85.9904 181.436 86.0055C181.34 86.0156 181.277 86.0206 181.247 86.0206V88.2856C181.307 88.2957 181.453 88.3007 181.685 88.3007H181.941Z" fill="#2F4083"/>
        <path d="M185.322 89.9995C185.322 89.5415 185.551 89.1967 186.009 88.9651C186.472 88.7336 187.068 88.6153 187.798 88.6103V88.4366C187.798 88.2303 187.775 88.0692 187.73 87.9534C187.69 87.8377 187.612 87.7521 187.496 87.6967C187.385 87.6363 187.222 87.6061 187.005 87.6061C186.759 87.6061 186.537 87.6389 186.341 87.7043C186.145 87.7647 185.941 87.8452 185.729 87.9459L185.495 87.4627C185.571 87.3972 185.697 87.3192 185.873 87.2286C186.054 87.138 186.268 87.06 186.515 86.9946C186.761 86.9241 187.015 86.8889 187.277 86.8889C187.665 86.8889 187.967 86.9392 188.183 87.0399C188.405 87.1405 188.563 87.3016 188.659 87.5231C188.754 87.7446 188.802 88.0415 188.802 88.414V90.7243H189.21V91.1471C189.109 91.1723 188.966 91.1974 188.78 91.2226C188.593 91.2478 188.43 91.2604 188.289 91.2604C188.118 91.2604 188.002 91.2352 187.941 91.1849C187.886 91.1345 187.858 91.0313 187.858 90.8753V90.6715C187.723 90.8225 187.546 90.9584 187.33 91.0792C187.113 91.2 186.869 91.2604 186.598 91.2604C186.366 91.2604 186.152 91.2125 185.956 91.1169C185.765 91.0162 185.611 90.8728 185.495 90.6866C185.38 90.4953 185.322 90.2663 185.322 89.9995ZM187.081 90.6337C187.186 90.6337 187.307 90.6035 187.443 90.5431C187.579 90.4777 187.697 90.3997 187.798 90.309V89.0708C187.345 89.0708 187.005 89.1489 186.779 89.3049C186.557 89.4559 186.447 89.6522 186.447 89.8938C186.447 90.1354 186.502 90.3191 186.613 90.445C186.728 90.5708 186.884 90.6337 187.081 90.6337Z" fill="#2F4083"/>
        <path d="M194.234 88.9425C194.234 89.3653 194.146 89.7529 193.969 90.1052C193.798 90.4575 193.544 90.7394 193.207 90.9508C192.875 91.1572 192.477 91.2604 192.014 91.2604C191.913 91.2604 191.808 91.2503 191.697 91.2302C191.591 91.2151 191.506 91.1949 191.44 91.1698L191.463 91.7964V92.4835L192.165 92.5741V93.0044H189.923V92.5741L190.413 92.4835V87.6967L189.923 87.5608V87.0399L191.168 86.8813H191.184L191.372 87.0323V87.4551C191.498 87.2991 191.669 87.1632 191.886 87.0474C192.102 86.9317 192.339 86.8738 192.595 86.8738C193.074 86.8738 193.466 87.0449 193.773 87.3872C194.08 87.7244 194.234 88.2429 194.234 88.9425ZM192.203 87.5004C192.052 87.5004 191.908 87.5331 191.772 87.5986C191.637 87.664 191.533 87.737 191.463 87.8175V90.6186C191.498 90.6689 191.569 90.7117 191.674 90.747C191.785 90.7822 191.906 90.7998 192.037 90.7998C192.364 90.7998 192.623 90.6589 192.814 90.377C193.011 90.0901 193.109 89.6421 193.109 89.0331C193.109 88.5197 193.026 88.1372 192.86 87.8855C192.694 87.6288 192.475 87.5004 192.203 87.5004Z" fill="#2F4083"/>
        <path d="M196.127 86.2924C195.946 86.2924 195.802 86.2396 195.697 86.1339C195.591 86.0282 195.538 85.8923 195.538 85.7262C195.538 85.5349 195.599 85.3764 195.719 85.2505C195.84 85.1247 196.001 85.0618 196.203 85.0618C196.404 85.0618 196.557 85.1171 196.663 85.2279C196.769 85.3336 196.822 85.467 196.822 85.628C196.822 85.8294 196.761 85.9904 196.64 86.1112C196.52 86.232 196.351 86.2924 196.135 86.2924H196.127ZM195.727 87.6967L195.191 87.5533V87.0474L196.572 86.8813H196.588L196.799 87.0323V90.6639L197.305 90.7243V91.1773H195.198V90.7243L195.727 90.6564V87.6967Z" fill="#2F4083"/>
        <path d="M199.801 91.2604C199.489 91.2604 199.21 91.1874 198.963 91.0414C198.717 90.8904 198.52 90.6589 198.375 90.3468C198.229 90.0347 198.156 89.6446 198.156 89.1765C198.156 88.7537 198.241 88.3687 198.412 88.0214C198.588 87.6691 198.845 87.3897 199.182 87.1833C199.52 86.977 199.925 86.8738 200.398 86.8738C200.589 86.8738 200.77 86.8939 200.942 86.9342V85.6582L200.202 85.5525V85.1373L201.757 84.9863H201.78L201.991 85.1448V90.7168H202.399V91.1471C202.036 91.2226 201.737 91.2604 201.5 91.2604C201.339 91.2604 201.223 91.2327 201.153 91.1773C201.088 91.127 201.055 91.0238 201.055 90.8678V90.6564C200.924 90.8325 200.745 90.9785 200.519 91.0943C200.292 91.205 200.053 91.2604 199.801 91.2604ZM200.194 90.6337C200.36 90.6337 200.506 90.601 200.632 90.5356C200.763 90.4651 200.866 90.382 200.942 90.2864V87.5382C200.906 87.4878 200.831 87.4451 200.715 87.4098C200.604 87.3746 200.484 87.357 200.353 87.357C200.031 87.357 199.771 87.4979 199.575 87.7798C199.384 88.0566 199.288 88.5021 199.288 89.1161C199.288 89.6295 199.371 90.0121 199.537 90.2637C199.703 90.5104 199.922 90.6337 200.194 90.6337Z" fill="#2F4083"/>
        <path d="M205.117 86.0659L204.037 86.1037L203.742 87.7496H203.108L203.237 85.5676H208.106L208.197 87.7496H207.601L207.306 86.1037L206.242 86.0659V90.6488L207.299 90.7243V91.1773H204.15V90.7243L205.117 90.6488V86.0659Z" fill="#2F4083"/>
        <path d="M210.982 91.2604C210.318 91.2604 209.822 91.0666 209.495 90.679C209.173 90.2864 209.012 89.7529 209.012 89.0784C209.012 88.6254 209.095 88.2328 209.261 87.9006C209.432 87.5684 209.671 87.3142 209.978 87.138C210.285 86.9619 210.64 86.8738 211.043 86.8738C211.546 86.8738 211.934 87.0072 212.205 87.2739C212.477 87.5357 212.618 87.9107 212.628 88.3989C212.628 88.7311 212.608 88.9777 212.568 89.1388H210.114C210.134 89.5968 210.242 89.9542 210.439 90.2109C210.635 90.4626 210.914 90.5884 211.277 90.5884C211.473 90.5884 211.674 90.5557 211.881 90.4903C212.092 90.4248 212.258 90.3468 212.379 90.2562L212.568 90.6715C212.432 90.8174 212.21 90.9533 211.903 91.0792C211.601 91.2 211.294 91.2604 210.982 91.2604ZM211.571 88.6858C211.581 88.5449 211.586 88.4366 211.586 88.3611C211.586 87.6917 211.362 87.357 210.914 87.357C210.668 87.357 210.476 87.4551 210.341 87.6514C210.205 87.8477 210.129 88.1925 210.114 88.6858H211.571Z" fill="#2F4083"/>
        <path d="M214.446 90.5582C214.487 90.6186 214.577 90.6765 214.718 90.7319C214.864 90.7822 215.01 90.8074 215.156 90.8074C215.393 90.8074 215.569 90.7595 215.684 90.6639C215.805 90.5632 215.866 90.4324 215.866 90.2713C215.866 90.1052 215.793 89.9718 215.647 89.8711C215.501 89.7654 215.254 89.6371 214.907 89.4861L214.695 89.3955C214.348 89.2495 214.089 89.0734 213.918 88.867C213.747 88.6606 213.661 88.3939 213.661 88.0667C213.661 87.8402 213.729 87.6389 213.865 87.4627C214.001 87.2815 214.192 87.1405 214.439 87.0399C214.685 86.9392 214.97 86.8889 215.292 86.8889C215.528 86.8889 215.73 86.904 215.896 86.9342C216.067 86.9644 216.246 87.0046 216.432 87.055C216.533 87.0902 216.608 87.1103 216.658 87.1154V88.1044H216.062L215.888 87.5306C215.858 87.4803 215.79 87.435 215.684 87.3947C215.579 87.3545 215.458 87.3343 215.322 87.3343C215.116 87.3343 214.95 87.3796 214.824 87.4702C214.703 87.5558 214.643 87.6766 214.643 87.8326C214.643 87.9736 214.685 88.0919 214.771 88.1875C214.856 88.2781 214.95 88.3486 215.05 88.3989C215.151 88.4492 215.337 88.5323 215.609 88.648C215.881 88.7638 216.105 88.8745 216.281 88.9802C216.462 89.0859 216.611 89.2244 216.726 89.3955C216.847 89.5616 216.908 89.7654 216.908 90.007C216.908 90.3795 216.762 90.6815 216.47 90.9131C216.178 91.1446 215.757 91.2604 215.209 91.2604C214.952 91.2604 214.721 91.2377 214.514 91.1924C214.313 91.1471 214.079 91.0867 213.812 91.0112L213.646 90.9584V89.9617H214.273L214.446 90.5582Z" fill="#2F4083"/>
        <path d="M219.169 91.2453C218.852 91.2453 218.618 91.1723 218.467 91.0263C218.316 90.8803 218.241 90.6488 218.241 90.3317V87.5608H217.75V87.1682C217.79 87.1531 217.863 87.128 217.969 87.0927C218.074 87.0525 218.155 87.0197 218.21 86.9946C218.296 86.9291 218.369 86.8159 218.429 86.6548C218.475 86.5491 218.558 86.2874 218.678 85.8696H219.282L219.313 86.9795H220.468V87.5608H219.32V89.6824C219.32 89.9643 219.328 90.1631 219.343 90.2788C219.358 90.3946 219.391 90.4701 219.441 90.5054C219.491 90.5356 219.579 90.5507 219.705 90.5507C219.831 90.5507 219.962 90.5381 220.098 90.5129C220.234 90.4827 220.347 90.4475 220.438 90.4072L220.581 90.83C220.44 90.9357 220.234 91.0313 219.962 91.1169C219.69 91.2025 219.426 91.2453 219.169 91.2453Z" fill="#2F4083"/>
        <path d="M227.493 91.1773C227.418 91.1773 227.32 91.0817 227.199 90.8904C227.078 90.6941 226.909 90.3846 226.693 89.9617C226.507 89.5993 226.351 89.3074 226.225 89.0859C226.099 88.8645 225.978 88.6808 225.862 88.5348L225.19 89.3049V90.6488L225.84 90.7319V91.1773H223.492V90.7243L224.088 90.6488V86.1339L223.499 86.0357V85.5676H225.772V86.0357L225.19 86.1339V88.5952L227.176 86.1339L226.557 86.0357V85.5676H228.596V86.0357L227.969 86.1339L226.504 87.7798C226.68 87.9409 226.867 88.1699 227.063 88.4668C227.259 88.7588 227.498 89.1413 227.78 89.6144C227.986 89.9617 228.143 90.2159 228.248 90.377C228.354 90.533 228.434 90.6236 228.49 90.6488L228.845 90.7319V91.1773H227.493Z" fill="#2F4083"/>
        <path d="M233.119 89.1161H230.046V88.4064H233.119V89.1161Z" fill="#2F4083"/>
        <path d="M235.685 87.4778C235.599 87.508 235.446 87.5482 235.224 87.5986C235.003 87.6439 234.829 87.6741 234.703 87.6892L234.62 87.1607C234.892 87.1053 235.174 87.0072 235.466 86.8662C235.763 86.7203 236.004 86.5693 236.191 86.4132H236.198L236.795 86.4963V90.6488L237.655 90.7319V91.1773H234.779V90.7319L235.685 90.6564V87.4778Z" fill="#2F4083"/>
        <path d="M238.463 90.7696C239.163 90.3569 239.737 89.9013 240.185 89.403C240.633 88.9047 240.857 88.4241 240.857 87.961C240.857 87.7144 240.778 87.518 240.622 87.3721C240.471 87.2211 240.258 87.1456 239.981 87.1456C239.719 87.1456 239.498 87.1959 239.316 87.2966C239.14 87.3922 238.966 87.518 238.795 87.6741L238.508 87.2588C238.609 87.133 238.753 87.0046 238.939 86.8738C239.13 86.7429 239.352 86.6347 239.603 86.5491C239.855 86.4585 240.109 86.4132 240.366 86.4132C240.733 86.4132 241.04 86.4761 241.287 86.602C241.539 86.7278 241.725 86.8939 241.846 87.1003C241.966 87.3066 242.027 87.5357 242.027 87.7873C242.027 88.2705 241.795 88.7563 241.332 89.2445C240.869 89.7327 240.28 90.1807 239.565 90.5884L241.755 90.3845L242.042 89.7503L242.518 89.8485L242.299 91.1773H238.622L238.463 90.7696Z" fill="#2F4083"/>
        <path d="M246.283 86.1339L245.642 86.0357V85.5676H248.058V86.0357L247.393 86.1339V90.6488L248.058 90.7319V91.1773H245.642V90.7243L246.283 90.6488V86.1339Z" fill="#2F4083"/>
        <path d="M249.116 90.7243L249.538 90.6564V87.6967L249.055 87.5608V87.0399L250.308 86.8813L250.399 86.9417L250.512 87.1909V87.508C250.678 87.3469 250.915 87.206 251.222 87.0852C251.534 86.9593 251.803 86.8964 252.03 86.8964C252.302 86.8964 252.521 86.9417 252.687 87.0323C252.858 87.1229 252.986 87.2639 253.072 87.4551C253.238 87.3041 253.457 87.1733 253.729 87.0625C254 86.9518 254.267 86.8964 254.529 86.8964C254.977 86.8964 255.294 87.0273 255.48 87.289C255.666 87.5508 255.76 87.9786 255.76 88.5725V90.6564L256.25 90.7243V91.1773H254.295V90.7243L254.687 90.6564V88.6027C254.687 88.2101 254.64 87.9358 254.544 87.7798C254.453 87.6187 254.277 87.5382 254.016 87.5382C253.875 87.5382 253.729 87.5709 253.578 87.6363C253.432 87.6967 253.301 87.7722 253.185 87.8628C253.22 88.0541 253.238 88.2932 253.238 88.5801V90.6564L253.706 90.7243V91.1773H251.735V90.7243L252.151 90.6564V88.5801C252.151 88.3184 252.133 88.1145 252.098 87.9685C252.068 87.8175 252.007 87.7093 251.917 87.6439C251.826 87.5734 251.695 87.5382 251.524 87.5382C251.363 87.5382 251.202 87.5759 251.041 87.6514C250.885 87.7219 250.744 87.8075 250.618 87.9081V90.6564L251.063 90.7243V91.1773H249.116V90.7243Z" fill="#2F4083"/>
        <path d="M261.314 88.9425C261.314 89.3653 261.226 89.7529 261.05 90.1052C260.879 90.4575 260.625 90.7394 260.287 90.9508C259.955 91.1572 259.557 91.2604 259.094 91.2604C258.994 91.2604 258.888 91.2503 258.777 91.2302C258.672 91.2151 258.586 91.1949 258.521 91.1698L258.543 91.7964V92.4835L259.245 92.5741V93.0044H257.003V92.5741L257.494 92.4835V87.6967L257.003 87.5608V87.0399L258.249 86.8813H258.264L258.453 87.0323V87.4551C258.578 87.2991 258.75 87.1632 258.966 87.0474C259.182 86.9317 259.419 86.8738 259.676 86.8738C260.154 86.8738 260.547 87.0449 260.854 87.3872C261.161 87.7244 261.314 88.2429 261.314 88.9425ZM259.283 87.5004C259.132 87.5004 258.989 87.5331 258.853 87.5986C258.717 87.664 258.614 87.737 258.543 87.8175V90.6186C258.578 90.6689 258.649 90.7117 258.755 90.747C258.865 90.7822 258.986 90.7998 259.117 90.7998C259.444 90.7998 259.703 90.6589 259.895 90.377C260.091 90.0901 260.189 89.6421 260.189 89.0331C260.189 88.5197 260.106 88.1372 259.94 87.8855C259.774 87.6288 259.555 87.5004 259.283 87.5004Z" fill="#2F4083"/>
        <path d="M262.747 85.6582L262.188 85.5601V85.1524L263.585 84.9863H263.6L263.804 85.1297V90.6639L264.355 90.7243V91.1773H262.218V90.7243L262.747 90.6564V85.6582Z" fill="#2F4083"/>
        <path d="M267.155 91.2604C266.491 91.2604 265.995 91.0666 265.668 90.679C265.345 90.2864 265.184 89.7529 265.184 89.0784C265.184 88.6254 265.267 88.2328 265.434 87.9006C265.605 87.5684 265.844 87.3142 266.151 87.138C266.458 86.9619 266.813 86.8738 267.215 86.8738C267.719 86.8738 268.106 87.0072 268.378 87.2739C268.65 87.5357 268.791 87.9107 268.801 88.3989C268.801 88.7311 268.781 88.9777 268.74 89.1388H266.287C266.307 89.5968 266.415 89.9542 266.611 90.2109C266.808 90.4626 267.087 90.5884 267.449 90.5884C267.646 90.5884 267.847 90.5557 268.053 90.4903C268.265 90.4248 268.431 90.3468 268.552 90.2562L268.74 90.6715C268.605 90.8174 268.383 90.9533 268.076 91.0792C267.774 91.2 267.467 91.2604 267.155 91.2604ZM267.744 88.6858C267.754 88.5449 267.759 88.4366 267.759 88.3611C267.759 87.6917 267.535 87.357 267.087 87.357C266.84 87.357 266.649 87.4551 266.513 87.6514C266.377 87.8477 266.302 88.1925 266.287 88.6858H267.744Z" fill="#2F4083"/>
        <path d="M269.781 90.7243L270.204 90.6564V87.6967L269.72 87.5608V87.0399L270.974 86.8813L271.064 86.9417L271.178 87.1909V87.508C271.344 87.3469 271.58 87.206 271.887 87.0852C272.199 86.9593 272.469 86.8964 272.695 86.8964C272.967 86.8964 273.186 86.9417 273.352 87.0323C273.523 87.1229 273.652 87.2639 273.737 87.4551C273.903 87.3041 274.122 87.1733 274.394 87.0625C274.666 86.9518 274.933 86.8964 275.194 86.8964C275.642 86.8964 275.959 87.0273 276.146 87.289C276.332 87.5508 276.425 87.9786 276.425 88.5725V90.6564L276.916 90.7243V91.1773H274.96V90.7243L275.353 90.6564V88.6027C275.353 88.2101 275.305 87.9358 275.209 87.7798C275.119 87.6187 274.943 87.5382 274.681 87.5382C274.54 87.5382 274.394 87.5709 274.243 87.6363C274.097 87.6967 273.966 87.7722 273.85 87.8628C273.886 88.0541 273.903 88.2932 273.903 88.5801V90.6564L274.371 90.7243V91.1773H272.401V90.7243L272.816 90.6564V88.5801C272.816 88.3184 272.798 88.1145 272.763 87.9685C272.733 87.8175 272.673 87.7093 272.582 87.6439C272.491 87.5734 272.36 87.5382 272.189 87.5382C272.028 87.5382 271.867 87.5759 271.706 87.6514C271.55 87.7219 271.409 87.8075 271.283 87.9081V90.6564L271.729 90.7243V91.1773H269.781V90.7243Z" fill="#2F4083"/>
        <path d="M279.707 91.2604C279.042 91.2604 278.547 91.0666 278.22 90.679C277.897 90.2864 277.736 89.7529 277.736 89.0784C277.736 88.6254 277.819 88.2328 277.985 87.9006C278.157 87.5684 278.396 87.3142 278.703 87.138C279.01 86.9619 279.365 86.8738 279.767 86.8738C280.271 86.8738 280.658 87.0072 280.93 87.2739C281.202 87.5357 281.343 87.9107 281.353 88.3989C281.353 88.7311 281.333 88.9777 281.292 89.1388H278.839C278.859 89.5968 278.967 89.9542 279.163 90.2109C279.36 90.4626 279.639 90.5884 280.001 90.5884C280.198 90.5884 280.399 90.5557 280.605 90.4903C280.817 90.4248 280.983 90.3468 281.104 90.2562L281.292 90.6715C281.156 90.8174 280.935 90.9533 280.628 91.0792C280.326 91.2 280.019 91.2604 279.707 91.2604ZM280.296 88.6858C280.306 88.5449 280.311 88.4366 280.311 88.3611C280.311 87.6917 280.087 87.357 279.639 87.357C279.392 87.357 279.201 87.4551 279.065 87.6514C278.929 87.8477 278.854 88.1925 278.839 88.6858H280.296Z" fill="#2F4083"/>
        <path d="M282.756 87.6967L282.272 87.5608V87.0399L283.526 86.8813H283.548L283.737 87.0323V87.3268L283.73 87.508C283.906 87.3419 284.135 87.1984 284.417 87.0776C284.698 86.9568 284.983 86.8964 285.27 86.8964C285.577 86.8964 285.816 86.9543 285.987 87.0701C286.163 87.1808 286.289 87.357 286.365 87.5986C286.44 87.8402 286.478 88.1674 286.478 88.5801V90.6639L286.938 90.7243V91.1773H284.99V90.7243L285.398 90.6639V88.5801C285.398 88.3184 285.381 88.1145 285.345 87.9685C285.31 87.8175 285.245 87.7093 285.149 87.6439C285.058 87.5734 284.928 87.5382 284.756 87.5382C284.469 87.5382 284.162 87.6615 283.835 87.9081V90.6564L284.288 90.7243V91.1773H282.318V90.7243L282.756 90.6564V87.6967Z" fill="#2F4083"/>
        <path d="M287.766 89.9995C287.766 89.5415 287.995 89.1967 288.453 88.9651C288.916 88.7336 289.513 88.6153 290.243 88.6103V88.4366C290.243 88.2303 290.22 88.0692 290.175 87.9534C290.135 87.8377 290.056 87.7521 289.941 87.6967C289.83 87.6363 289.666 87.6061 289.45 87.6061C289.203 87.6061 288.982 87.6389 288.786 87.7043C288.589 87.7647 288.385 87.8452 288.174 87.9459L287.94 87.4627C288.015 87.3972 288.141 87.3192 288.317 87.2286C288.499 87.138 288.713 87.06 288.959 86.9946C289.206 86.9241 289.46 86.8889 289.722 86.8889C290.109 86.8889 290.411 86.9392 290.628 87.0399C290.849 87.1405 291.008 87.3016 291.103 87.5231C291.199 87.7446 291.247 88.0415 291.247 88.414V90.7243H291.655V91.1471C291.554 91.1723 291.41 91.1974 291.224 91.2226C291.038 91.2478 290.874 91.2604 290.733 91.2604C290.562 91.2604 290.447 91.2352 290.386 91.1849C290.331 91.1345 290.303 91.0313 290.303 90.8753V90.6715C290.167 90.8225 289.991 90.9584 289.775 91.0792C289.558 91.2 289.314 91.2604 289.042 91.2604C288.811 91.2604 288.597 91.2125 288.401 91.1169C288.209 91.0162 288.056 90.8728 287.94 90.6866C287.824 90.4953 287.766 90.2663 287.766 89.9995ZM289.525 90.6337C289.631 90.6337 289.752 90.6035 289.888 90.5431C290.024 90.4777 290.142 90.3997 290.243 90.309V89.0708C289.79 89.0708 289.45 89.1489 289.223 89.3049C289.002 89.4559 288.891 89.6522 288.891 89.8938C288.891 90.1354 288.947 90.3191 289.057 90.445C289.173 90.5708 289.329 90.6337 289.525 90.6337Z" fill="#2F4083"/>
        <path d="M293.772 91.2453C293.455 91.2453 293.221 91.1723 293.069 91.0263C292.918 90.8803 292.843 90.6488 292.843 90.3317V87.5608H292.352V87.1682C292.393 87.1531 292.465 87.128 292.571 87.0927C292.677 87.0525 292.757 87.0197 292.813 86.9946C292.898 86.9291 292.971 86.8159 293.032 86.6548C293.077 86.5491 293.16 86.2874 293.281 85.8696H293.885L293.915 86.9795H295.07V87.5608H293.923V89.6824C293.923 89.9643 293.93 90.1631 293.945 90.2788C293.96 90.3946 293.993 90.4701 294.043 90.5054C294.094 90.5356 294.182 90.5507 294.308 90.5507C294.434 90.5507 294.564 90.5381 294.7 90.5129C294.836 90.4827 294.949 90.4475 295.04 90.4072L295.184 90.83C295.043 90.9357 294.836 91.0313 294.564 91.1169C294.293 91.2025 294.028 91.2453 293.772 91.2453Z" fill="#2F4083"/>
        <path d="M296.861 86.2924C296.68 86.2924 296.537 86.2396 296.431 86.1339C296.325 86.0282 296.272 85.8923 296.272 85.7262C296.272 85.5349 296.333 85.3764 296.453 85.2505C296.574 85.1247 296.735 85.0618 296.937 85.0618C297.138 85.0618 297.292 85.1171 297.397 85.2279C297.503 85.3336 297.556 85.467 297.556 85.628C297.556 85.8294 297.495 85.9904 297.375 86.1112C297.254 86.232 297.085 86.2924 296.869 86.2924H296.861ZM296.461 87.6967L295.925 87.5533V87.0474L297.307 86.8813H297.322L297.533 87.0323V90.6639L298.039 90.7243V91.1773H295.933V90.7243L296.461 90.6564V87.6967Z" fill="#2F4083"/>
        <path d="M298.958 89.0859C298.958 88.6128 299.051 88.2101 299.237 87.8779C299.428 87.5457 299.682 87.2966 300 87.1305C300.317 86.9593 300.661 86.8738 301.034 86.8738C301.668 86.8738 302.156 87.0701 302.499 87.4627C302.846 87.8503 303.02 88.3788 303.02 89.0482C303.02 89.5264 302.924 89.9341 302.733 90.2713C302.546 90.6035 302.295 90.8527 301.978 91.0188C301.666 91.1798 301.321 91.2604 300.943 91.2604C300.314 91.2604 299.826 91.0666 299.479 90.679C299.131 90.2864 298.958 89.7554 298.958 89.0859ZM301.004 90.7696C301.572 90.7696 301.857 90.221 301.857 89.1237C301.857 88.5499 301.789 88.1145 301.653 87.8175C301.517 87.5155 301.296 87.3645 300.989 87.3645C300.405 87.3645 300.113 87.9132 300.113 89.0104C300.113 89.5842 300.183 90.0221 300.324 90.3242C300.47 90.6211 300.697 90.7696 301.004 90.7696Z" fill="#2F4083"/>
        <path d="M304.506 87.6967L304.023 87.5608V87.0399L305.276 86.8813H305.299L305.488 87.0323V87.3268L305.48 87.508C305.656 87.3419 305.885 87.1984 306.167 87.0776C306.449 86.9568 306.733 86.8964 307.02 86.8964C307.327 86.8964 307.567 86.9543 307.738 87.0701C307.914 87.1808 308.04 87.357 308.115 87.5986C308.191 87.8402 308.228 88.1674 308.228 88.5801V90.6639L308.689 90.7243V91.1773H306.741V90.7243L307.149 90.6639V88.5801C307.149 88.3184 307.131 88.1145 307.096 87.9685C307.061 87.8175 306.995 87.7093 306.9 87.6439C306.809 87.5734 306.678 87.5382 306.507 87.5382C306.22 87.5382 305.913 87.6615 305.586 87.9081V90.6564L306.039 90.7243V91.1773H304.068V90.7243L304.506 90.6564V87.6967Z" fill="#2F4083"/>
    </g>
    <g filter="url(#filter1_d)">
        <rect x="159.969" y="59.056" width="1" height="260.247" fill="#F4F4FB"/>
    </g>
    <defs>
        <filter id="filter0_d" x="127.972" y="47.056" width="239.962" height="300.247" filterUnits="userSpaceOnUse" color-interpolation-filters="sRGB">
            <feFlood flood-opacity="0" result="BackgroundImageFix"/>
            <feColorMatrix in="SourceAlpha" type="matrix" values="0 0 0 0 0 0 0 0 0 0 0 0 0 0 0 0 0 0 127 0"/>
            <feOffset dy="8"/>
            <feGaussianBlur stdDeviation="10"/>
            <feColorMatrix type="matrix" values="0 0 0 0 0.427451 0 0 0 0 0.443137 0 0 0 0 0.976471 0 0 0 0.2 0"/>
            <feBlend mode="normal" in2="BackgroundImageFix" result="effect1_dropShadow"/>
            <feBlend mode="normal" in="SourceGraphic" in2="effect1_dropShadow" result="shape"/>
        </filter>
        <filter id="filter1_d" x="155.969" y="56.056" width="7" height="266.247" filterUnits="userSpaceOnUse" color-interpolation-filters="sRGB">
            <feFlood flood-opacity="0" result="BackgroundImageFix"/>
            <feColorMatrix in="SourceAlpha" type="matrix" values="0 0 0 0 0 0 0 0 0 0 0 0 0 0 0 0 0 0 127 0"/>
            <feOffset dx="-1"/>
            <feGaussianBlur stdDeviation="1.5"/>
            <feColorMatrix type="matrix" values="0 0 0 0 0 0 0 0 0 0 0 0 0 0 0 0 0 0 0.05 0"/>
            <feBlend mode="normal" in2="BackgroundImageFix" result="effect1_dropShadow"/>
            <feBlend mode="normal" in="SourceGraphic" in2="effect1_dropShadow" result="shape"/>
        </filter>
        <linearGradient id="paint0_linear" x1="235.955" y1="5.15339e-08" x2="362.199" y2="477.882" gradientUnits="userSpaceOnUse">
            <stop stop-color="#F1F1F9"/>
            <stop offset="1" stop-color="#E8E8FA"/>
        </linearGradient>
    </defs>
</svg>
