<svg width="56" height="55" viewBox="0 0 56 55" fill="none" xmlns="http://www.w3.org/2000/svg">
    <g filter="url(#filter0_d)">
        <path fill-rule="evenodd" clip-rule="evenodd" d="M12.5 12.6666C12.5 11.2859 13.5843 10.1666 14.9219 10.1666H40.7552C42.0928 10.1666 43.1771 11.2859 43.1771 12.6666V25.3333C43.1771 26.714 42.0928 27.8333 40.7552 27.8333H36.7134V26.8333H40.7552C41.5577 26.8333 42.2083 26.1617 42.2083 25.3333V12.6666C42.2083 11.8382 41.5577 11.1666 40.7552 11.1666H14.9219C14.1193 11.1666 13.4688 11.8382 13.4688 12.6666V25.3333C13.4688 26.1617 14.1193 26.8333 14.9219 26.8333H18.9637V27.8333H14.9219C13.5843 27.8333 12.5 26.714 12.5 25.3333V12.6666Z" fill="#5B5FF0"/>
        <path fill-rule="evenodd" clip-rule="evenodd" d="M20.8958 7.33325C20.8958 5.95254 21.9801 4.83325 23.3176 4.83325H32.3593C33.6969 4.83325 34.7812 5.95254 34.7812 7.33325V10.6666H33.8124V7.33325C33.8124 6.50482 33.1618 5.83325 32.3593 5.83325H23.3176C22.5151 5.83325 21.8645 6.50482 21.8645 7.33325V10.6666H20.8958V7.33325Z" fill="#5B5FF0"/>
        <rect x="13.3718" y="12.2579" width="28.9333" height="1.03226" fill="#5B5FF0"/>
        <path d="M28.3903 28.7741H24.8044C24.3285 28.7741 23.8947 28.7059 23.5028 28.5694C23.1165 28.4272 22.7833 28.2253 22.5034 27.9637C22.2291 27.6964 22.0163 27.3722 21.8652 26.9911C21.714 26.6044 21.6384 26.1665 21.6384 25.6773C21.6384 25.2167 21.7168 24.7986 21.8736 24.4233C22.0359 24.0422 22.2599 23.7152 22.5454 23.4422C22.8309 23.1692 23.1668 22.9588 23.5531 22.8109C23.945 22.6573 24.3677 22.5806 24.8212 22.5806C25.2747 22.5806 25.6946 22.6573 26.0809 22.8109C26.4672 22.9588 26.8003 23.1692 27.0803 23.4422C27.3658 23.7152 27.5869 24.0422 27.7437 24.4233C27.9004 24.7986 27.9788 25.2167 27.9788 25.6773C27.9788 25.9503 27.948 26.2006 27.8865 26.4281C27.8249 26.6556 27.7437 26.8632 27.6429 27.0508C27.5477 27.2328 27.4358 27.3949 27.307 27.5371C27.1838 27.6736 27.0551 27.7902 26.9207 27.8869V27.9039H28.3903V28.7741ZM24.8212 23.5446C24.5357 23.5446 24.267 23.5986 24.015 23.7067C23.7687 23.8147 23.5559 23.9626 23.3768 24.1503C23.1976 24.338 23.0549 24.5626 22.9485 24.8242C22.8477 25.0859 22.7973 25.3702 22.7973 25.6773C22.7973 26.0015 22.8449 26.2973 22.9401 26.5646C23.0409 26.8262 23.178 27.0508 23.3516 27.2385C23.5308 27.4262 23.7435 27.5741 23.9898 27.6821C24.2362 27.7845 24.5077 27.8357 24.8044 27.8357C25.0956 27.8357 25.3643 27.7845 25.6106 27.6821C25.8626 27.5741 26.0781 27.4262 26.2573 27.2385C26.4364 27.0508 26.5764 26.8262 26.6772 26.5646C26.7779 26.2973 26.8283 26.0015 26.8283 25.6773C26.8283 25.3702 26.7807 25.0859 26.6856 24.8242C26.5904 24.5626 26.4532 24.338 26.2741 24.1503C26.1005 23.9626 25.8906 23.8147 25.6442 23.7067C25.3979 23.5986 25.1235 23.5446 24.8212 23.5446Z" fill="#5B5FF0"/>
        <path d="M29.554 22.7341H31.6198C31.8998 22.7341 32.1713 22.7654 32.4344 22.828C32.6976 22.8848 32.9299 22.9815 33.1315 23.118C33.3386 23.2545 33.5038 23.4337 33.6269 23.6555C33.7501 23.8773 33.8117 24.1474 33.8117 24.4659C33.8117 24.9039 33.6885 25.2622 33.4422 25.5408C33.2014 25.8138 32.8711 25.9987 32.4512 26.0954L34.0384 28.7741H32.7619L31.3847 26.2148H30.6121V28.7741H29.554V22.7341ZM31.4771 25.3361C31.6282 25.3361 31.7794 25.3247 31.9306 25.302C32.0817 25.2792 32.2161 25.2366 32.3337 25.174C32.4568 25.1114 32.5576 25.0233 32.636 24.9095C32.7144 24.7901 32.7536 24.6394 32.7536 24.4574C32.7536 24.2925 32.7172 24.1588 32.6444 24.0564C32.5716 23.9484 32.4792 23.8631 32.3672 23.8005C32.2553 23.7379 32.1265 23.6953 31.9809 23.6725C31.841 23.6498 31.7038 23.6384 31.5694 23.6384H30.6121V25.3361H31.4771Z" fill="#5B5FF0"/>
        <path fill-rule="evenodd" clip-rule="evenodd" d="M36.9448 34.3708C36.9448 34.647 36.728 34.8708 36.4604 34.8708H32.4563C32.1888 34.8708 31.9719 34.647 31.9719 34.3708C31.9719 34.0947 32.1888 33.8708 32.4563 33.8708H35.9761V30.3063C35.9761 30.0302 36.1929 29.8063 36.4604 29.8063C36.728 29.8063 36.9448 30.0302 36.9448 30.3063V34.3708Z" fill="#5B5FF0"/>
        <path fill-rule="evenodd" clip-rule="evenodd" d="M36.4604 17.4193C36.728 17.4193 36.9448 17.6432 36.9448 17.9193V21.9838C36.9448 22.26 36.728 22.4838 36.4604 22.4838C36.1929 22.4838 35.9761 22.26 35.9761 21.9838V18.4193H32.4563C32.1888 18.4193 31.9719 18.1955 31.9719 17.9193C31.9719 17.6432 32.1888 17.4193 32.4563 17.4193H36.4604Z" fill="#5B5FF0"/>
        <path fill-rule="evenodd" clip-rule="evenodd" d="M18.5386 17.9193C18.5386 17.6432 18.7554 17.4193 19.0229 17.4193H23.0271C23.2946 17.4193 23.5115 17.6432 23.5115 17.9193C23.5115 18.1955 23.2946 18.4193 23.0271 18.4193H19.5073V21.9838C19.5073 22.26 19.2905 22.4838 19.0229 22.4838C18.7554 22.4838 18.5386 22.26 18.5386 21.9838V17.9193Z" fill="#5B5FF0"/>
        <path fill-rule="evenodd" clip-rule="evenodd" d="M19.0229 34.8708C18.7554 34.8708 18.5386 34.647 18.5386 34.3708V30.3063C18.5386 30.0302 18.7554 29.8063 19.0229 29.8063C19.2905 29.8063 19.5073 30.0302 19.5073 30.3063V33.8708H23.0271C23.2946 33.8708 23.5115 34.0947 23.5115 34.3708C23.5115 34.647 23.2946 34.8708 23.0271 34.8708H19.0229Z" fill="#5B5FF0"/>
    </g>
    <defs>
        <filter id="filter0_d" x="0" y="0" width="56" height="56" filterUnits="userSpaceOnUse" color-interpolation-filters="sRGB">
            <feFlood flood-opacity="0" result="BackgroundImageFix"/>
            <feColorMatrix in="SourceAlpha" type="matrix" values="0 0 0 0 0 0 0 0 0 0 0 0 0 0 0 0 0 0 127 0"/>
            <feOffset dy="8"/>
            <feGaussianBlur stdDeviation="6"/>
            <feColorMatrix type="matrix" values="0 0 0 0 0.427451 0 0 0 0 0.443137 0 0 0 0 0.976471 0 0 0 0.14 0"/>
            <feBlend mode="normal" in2="BackgroundImageFix" result="effect1_dropShadow"/>
            <feBlend mode="normal" in="SourceGraphic" in2="effect1_dropShadow" result="shape"/>
        </filter>
    </defs>
</svg>
