<svg width="32" height="32" viewBox="0 0 32 32" fill="none" xmlns="http://www.w3.org/2000/svg">
    <path fill-rule="evenodd" clip-rule="evenodd" d="M0.5 8.66663C0.5 7.28591 1.58431 6.16663 2.92188 6.16663H28.7552C30.0928 6.16663 31.1771 7.28591 31.1771 8.66663V21.3333C31.1771 22.714 30.0928 23.8333 28.7552 23.8333H24.7134V22.8333H28.7552C29.5577 22.8333 30.2083 22.1617 30.2083 21.3333V8.66663C30.2083 7.8382 29.5577 7.16663 28.7552 7.16663H2.92188C2.11934 7.16663 1.46875 7.8382 1.46875 8.66663V21.3333C1.46875 22.1617 2.11933 22.8333 2.92187 22.8333H6.96371V23.8333H2.92187C1.58431 23.8333 0.5 22.714 0.5 21.3333V8.66663Z" fill="#5B5FF0"/>
    <path fill-rule="evenodd" clip-rule="evenodd" d="M8.896 3.33331C8.896 1.9526 9.98031 0.833313 11.3179 0.833313H20.3595C21.6971 0.833313 22.7814 1.9526 22.7814 3.33331V6.66665H21.8127V3.33331C21.8127 2.50489 21.1621 1.83331 20.3595 1.83331H11.3179C10.5153 1.83331 9.86475 2.50489 9.86475 3.33331V6.66665H8.896V3.33331Z" fill="#5B5FF0"/>
    <rect x="1.37207" y="8.258" width="28.9333" height="1.03226" fill="#5B5FF0"/>
    <path d="M16.3906 24.7742H12.8047C12.3288 24.7742 11.8949 24.7059 11.503 24.5694C11.1167 24.4272 10.7836 24.2253 10.5037 23.9637C10.2293 23.6964 10.0166 23.3722 9.86541 22.9912C9.71425 22.6044 9.63867 22.1665 9.63867 21.6774C9.63867 21.2167 9.71705 20.7987 9.87381 20.4233C10.0362 20.0423 10.2601 19.7153 10.5456 19.4423C10.8312 19.1693 11.1671 18.9588 11.5534 18.811C11.9453 18.6574 12.368 18.5806 12.8215 18.5806C13.275 18.5806 13.6948 18.6574 14.0812 18.811C14.4675 18.9588 14.8006 19.1693 15.0805 19.4423C15.366 19.7153 15.5872 20.0423 15.7439 20.4233C15.9007 20.7987 15.9791 21.2167 15.9791 21.6774C15.9791 21.9504 15.9483 22.2006 15.8867 22.4281C15.8251 22.6556 15.7439 22.8632 15.6432 23.0509C15.548 23.2329 15.436 23.395 15.3072 23.5372C15.1841 23.6737 15.0553 23.7903 14.9209 23.8869V23.904H16.3906V24.7742ZM12.8215 19.5446C12.5359 19.5446 12.2672 19.5987 12.0153 19.7067C11.7689 19.8148 11.5562 19.9627 11.377 20.1503C11.1979 20.338 11.0551 20.5627 10.9487 20.8243C10.848 21.0859 10.7976 21.3703 10.7976 21.6774C10.7976 22.0016 10.8452 22.2973 10.9403 22.5646C11.0411 22.8263 11.1783 23.0509 11.3518 23.2386C11.531 23.4263 11.7437 23.5741 11.9901 23.6822C12.2364 23.7846 12.5079 23.8358 12.8047 23.8358C13.0958 23.8358 13.3645 23.7846 13.6109 23.6822C13.8628 23.5741 14.0784 23.4263 14.2575 23.2386C14.4367 23.0509 14.5766 22.8263 14.6774 22.5646C14.7782 22.2973 14.8286 22.0016 14.8286 21.6774C14.8286 21.3703 14.781 21.0859 14.6858 20.8243C14.5906 20.5627 14.4535 20.338 14.2743 20.1503C14.1007 19.9627 13.8908 19.8148 13.6445 19.7067C13.3981 19.5987 13.1238 19.5446 12.8215 19.5446Z" fill="#5B5FF0"/>
    <path d="M17.5542 18.7342H19.6201C19.9 18.7342 20.1715 18.7655 20.4347 18.828C20.6978 18.8849 20.9301 18.9816 21.1317 19.1181C21.3388 19.2546 21.504 19.4337 21.6272 19.6555C21.7503 19.8773 21.8119 20.1475 21.8119 20.466C21.8119 20.9039 21.6888 21.2622 21.4424 21.5409C21.2017 21.8139 20.8714 21.9987 20.4515 22.0954L22.0387 24.7742H20.7622L19.3849 22.2149H18.6123V24.7742H17.5542V18.7342ZM19.4773 21.3362C19.6285 21.3362 19.7796 21.3248 19.9308 21.302C20.082 21.2793 20.2163 21.2366 20.3339 21.1741C20.4571 21.1115 20.5578 21.0234 20.6362 20.9096C20.7146 20.7902 20.7538 20.6395 20.7538 20.4575C20.7538 20.2925 20.7174 20.1589 20.6446 20.0565C20.5718 19.9484 20.4795 19.8631 20.3675 19.8006C20.2555 19.738 20.1268 19.6954 19.9812 19.6726C19.8412 19.6499 19.7041 19.6385 19.5697 19.6385H18.6123V21.3362H19.4773Z" fill="#5B5FF0"/>
    <path fill-rule="evenodd" clip-rule="evenodd" d="M24.9448 30.3709C24.9448 30.6471 24.728 30.8709 24.4604 30.8709H20.4563C20.1888 30.8709 19.9719 30.6471 19.9719 30.3709C19.9719 30.0948 20.1888 29.8709 20.4563 29.8709H23.9761V26.3064C23.9761 26.0303 24.1929 25.8064 24.4604 25.8064C24.728 25.8064 24.9448 26.0303 24.9448 26.3064V30.3709Z" fill="#5B5FF0"/>
    <path fill-rule="evenodd" clip-rule="evenodd" d="M24.4604 13.4193C24.728 13.4193 24.9448 13.6432 24.9448 13.9193V17.9838C24.9448 18.26 24.728 18.4838 24.4604 18.4838C24.1929 18.4838 23.9761 18.26 23.9761 17.9838V14.4193H20.4563C20.1888 14.4193 19.9719 14.1955 19.9719 13.9193C19.9719 13.6432 20.1888 13.4193 20.4563 13.4193H24.4604Z" fill="#5B5FF0"/>
    <path fill-rule="evenodd" clip-rule="evenodd" d="M6.53857 13.9193C6.53857 13.6432 6.75544 13.4193 7.02295 13.4193H11.0271C11.2946 13.4193 11.5115 13.6432 11.5115 13.9193C11.5115 14.1955 11.2946 14.4193 11.0271 14.4193H7.50732V17.9838C7.50732 18.26 7.29046 18.4838 7.02295 18.4838C6.75544 18.4838 6.53857 18.26 6.53857 17.9838V13.9193Z" fill="#5B5FF0"/>
    <path fill-rule="evenodd" clip-rule="evenodd" d="M7.02295 30.8709C6.75544 30.8709 6.53857 30.6471 6.53857 30.3709V26.3064C6.53857 26.0303 6.75544 25.8064 7.02295 25.8064C7.29046 25.8064 7.50732 26.0303 7.50732 26.3064V29.8709H11.0271C11.2946 29.8709 11.5115 30.0948 11.5115 30.3709C11.5115 30.6471 11.2946 30.8709 11.0271 30.8709H7.02295Z" fill="#5B5FF0"/>
</svg>
