<svg width="96" height="96" viewBox="0 0 96 96" fill="none" xmlns="http://www.w3.org/2000/svg">
    <circle cx="48" cy="48" r="48" fill="#F8F8FD"/>
    <path d="M61.4322 36.5259L62.7878 34.9408L63.8962 35.9488C64.0949 36.1291 64.342 36.2181 64.5886 36.2181C64.8764 36.2181 65.1627 36.0971 65.3686 35.8603C65.7508 35.4197 65.7122 34.7456 65.2821 34.3541L61.5177 30.9307C61.0876 30.5403 60.428 30.5797 60.0454 31.0192C59.6632 31.4597 59.7018 32.1339 60.1319 32.5253L61.2294 33.5237L59.8123 35.1808C57.1121 33.1595 53.8978 31.8144 50.4098 31.3851V29.5477H52.6277C53.2033 29.5477 53.6705 29.0699 53.6705 28.4811C53.671 26.0107 51.7054 24 49.2904 24H46.1074C43.6919 24 41.7268 26.0107 41.7268 28.4811C41.7268 29.0699 42.194 29.5477 42.7696 29.5477H44.9875V31.4629C35.3832 32.9488 28 41.4197 28 51.616C28 62.8555 36.9718 72 48 72C50.6137 72 53.1455 71.4885 55.5381 70.4923C56.83 71.4373 58.4062 72 60.1116 72C64.4599 72 67.9974 68.3813 67.9974 63.9333C67.9974 62.1963 67.4526 60.5893 66.5355 59.2715C67.5031 56.8421 68 54.2715 68 51.616C68 45.6405 65.4645 40.2581 61.4322 36.5259ZM47.0725 29.5477H48.3248V31.2299H47.0725V29.5477ZM44.0626 27.4144C44.4432 26.6549 45.2164 26.1333 46.1069 26.1333H49.2899C50.1804 26.1333 50.9536 26.6549 51.3342 27.4144H49.3676H46.0297H44.0626ZM30.0855 51.616C30.0855 41.5525 38.122 33.3653 48 33.3653C57.878 33.3653 65.9145 41.5525 65.9145 51.616C65.9145 53.6677 65.5824 55.6619 64.9364 57.5664C63.6011 56.5051 61.9296 55.8661 60.1116 55.8661C55.7633 55.8661 52.2258 59.4848 52.2258 63.9328C52.2258 65.7861 52.8462 67.4901 53.8775 68.8539C51.9953 69.5227 50.0255 69.8667 48 69.8667C38.122 69.8667 30.0855 61.6795 30.0855 51.616ZM60.1116 69.8667C56.9129 69.8667 54.3113 67.2053 54.3113 63.9333C54.3113 60.6613 56.9135 58 60.1116 58C63.3097 58 65.9119 60.6613 65.9119 63.9333C65.9119 67.2053 63.3102 69.8667 60.1116 69.8667Z" fill="#5B5FF0"/>
    <path d="M36.6008 40.0411C35.0903 41.5845 33.9136 43.3835 33.1028 45.3877C32.8828 45.9323 33.1357 46.5557 33.668 46.7813C33.7984 46.8363 33.9334 46.8624 34.0663 46.8624C34.4756 46.8624 34.8641 46.6139 35.0309 46.2032C35.7358 44.4587 36.7598 42.8939 38.0747 41.5499C38.4824 41.1339 38.4824 40.4581 38.0757 40.0416C37.668 39.6245 37.0069 39.6256 36.6008 40.0411Z" fill="#5B5FF0"/>
    <path d="M41.9607 36.4107C41.1395 36.751 40.3392 37.1638 39.5822 37.6384C39.091 37.9462 38.9372 38.6032 39.2381 39.1051C39.4346 39.4336 39.7772 39.6144 40.1281 39.6144C40.3137 39.6144 40.5019 39.5638 40.6719 39.4571C41.3309 39.0443 42.028 38.6848 42.7428 38.3888C43.2761 38.1675 43.5347 37.5462 43.3184 37C43.1025 36.4539 42.4972 36.1915 41.9607 36.4107Z" fill="#5B5FF0"/>
    <path d="M53.7609 47.16C54.1681 46.7435 54.1681 46.0677 53.7609 45.6517C53.3537 45.2352 52.6936 45.2352 52.2864 45.6517L49.6514 48.3477C49.3678 48.1819 49.0628 48.0523 48.7411 47.9621V40.7957C48.7411 40.2069 48.2739 39.7291 47.6983 39.7291C47.1227 39.7291 46.6556 40.2069 46.6556 40.7957V47.9616C44.984 48.4309 43.751 49.9952 43.751 51.8517C43.751 54.0789 45.5216 55.8901 47.6983 55.8901C49.8756 55.8901 51.6462 54.0789 51.6462 51.8517C51.6462 51.1253 51.4554 50.4448 51.1258 49.8555L53.7609 47.16ZM47.6983 53.7573C46.6717 53.7573 45.8365 52.9024 45.8365 51.8523C45.8365 50.8021 46.6722 49.9477 47.6983 49.9477C48.2087 49.9477 48.6712 50.1595 49.008 50.5008C49.0101 50.5029 49.0117 50.5061 49.0137 50.5083C49.0158 50.5104 49.0184 50.5115 49.0205 50.5136C49.3537 50.8581 49.5607 51.3307 49.5607 51.8523C49.5607 52.9024 48.7254 53.7573 47.6983 53.7573Z" fill="#5B5FF0"/>
    <path d="M47.699 64.6224C47.1234 64.6224 46.6562 65.1003 46.6562 65.6891V67.7334C46.6562 68.3222 47.1234 68.8 47.699 68.8C48.2746 68.8 48.7418 68.3222 48.7418 67.7334V65.6891C48.7418 65.1003 48.2746 64.6224 47.699 64.6224Z" fill="#5B5FF0"/>
    <path d="M47.699 38.3963C48.2746 38.3963 48.7418 37.9184 48.7418 37.3296V35.2848C48.7418 34.696 48.2746 34.2181 47.699 34.2181C47.1234 34.2181 46.6562 34.696 46.6562 35.2848V37.3296C46.6562 37.9189 47.1229 38.3963 47.699 38.3963Z" fill="#5B5FF0"/>
    <path d="M33.8368 50.4427H31.8384C31.2628 50.4427 30.7957 50.9206 30.7957 51.5094C30.7957 52.0982 31.2628 52.576 31.8384 52.576H33.8368C34.4124 52.576 34.8796 52.0982 34.8796 51.5094C34.8796 50.9206 34.4124 50.4427 33.8368 50.4427Z" fill="#5B5FF0"/>
    <path d="M61.5606 52.576H63.5595C64.1351 52.576 64.6023 52.0982 64.6023 51.5094C64.6023 50.9206 64.1351 50.4427 63.5595 50.4427H61.5606C60.985 50.4427 60.5178 50.9206 60.5178 51.5094C60.5178 52.0982 60.9845 52.576 61.5606 52.576Z" fill="#5B5FF0"/>
    <path d="M63.772 60.4448C63.3033 60.1019 62.651 60.2123 62.3174 60.6928L59.3731 64.9093L57.3611 62.8517C56.954 62.4352 56.2939 62.4352 55.8867 62.8517C55.4795 63.2683 55.4795 63.9435 55.8867 64.36L58.7689 67.3083C58.9649 67.5093 59.2308 67.6208 59.5061 67.6208C59.5348 67.6208 59.5634 67.6197 59.5921 67.6171C59.8976 67.5909 60.1766 67.4288 60.3549 67.1739L64.0144 61.9328C64.3486 61.4533 64.2402 60.7872 63.772 60.4448Z" fill="#5B5FF0"/>
</svg>
