<svg width="96" height="96" viewBox="0 0 96 96" fill="none" xmlns="http://www.w3.org/2000/svg">
    <circle cx="48" cy="48" r="48" fill="#F8F8FD"/>
    <path d="M70.6731 45.6304L70.5339 45.5456C68.2512 44.1467 67.4645 41.2085 68.7419 38.8576L68.8197 38.7157C69.2848 37.8592 69.272 36.8432 68.784 35.9984C68.296 35.1536 67.4219 34.6352 66.448 34.6107L66.296 34.6069C63.6149 34.5397 61.4619 32.3867 61.3947 29.7067L61.3909 29.5541C61.3664 28.5787 60.8475 27.7056 60.0027 27.2176C59.1584 26.7291 58.1424 26.7163 57.2848 27.1824L57.1445 27.2587C54.792 28.5376 51.8539 27.7493 50.4544 25.4656L50.3701 25.328C49.8603 24.496 48.9749 24 48 24C47.0251 24 46.1397 24.496 45.6309 25.3269L45.5456 25.4667C44.1467 27.7488 41.2085 28.536 38.8571 27.2581L38.7157 27.1813C37.8581 26.7152 36.8421 26.7285 35.9984 27.2165C35.1536 27.7045 34.6347 28.5781 34.6101 29.5541L34.6064 29.7045C34.5392 32.3856 32.3861 34.5387 29.704 34.6053L29.5536 34.6091C28.5787 34.6336 27.7051 35.1525 27.2171 35.9968C26.7291 36.8411 26.7157 37.8571 27.1819 38.7147L27.2581 38.8555C28.536 41.2075 27.7493 44.1456 25.4677 45.544L25.328 45.6293C25.328 45.6293 25.3275 45.6293 25.3275 45.6299C24.4965 46.1397 24 47.0256 24 48C24 48.9744 24.4965 49.8603 25.3269 50.3696L25.4661 50.4544C27.7488 51.8533 28.5355 54.7915 27.2581 57.1424L27.1803 57.2843C26.7152 58.1408 26.728 59.1568 27.216 60.0016C27.704 60.8464 28.5781 61.3648 29.552 61.3893L29.704 61.3931C32.3851 61.4603 34.5381 63.6133 34.6053 66.2933L34.6091 66.4459C34.6336 67.4213 35.1525 68.2944 35.9973 68.7824C36.8411 69.2704 37.8571 69.2832 38.7152 68.8176L38.8555 68.7413C41.208 67.4624 44.1461 68.2507 45.5456 70.5344L45.6299 70.672C46.1397 71.504 47.0251 72 48 72C48.9749 72 49.8603 71.504 50.3691 70.6731L50.4544 70.5333C51.8533 68.2512 54.792 67.464 57.1429 68.7419L57.2843 68.8187C58.1413 69.2843 59.1573 69.2709 60.0016 68.7835C60.8464 68.2955 61.3653 67.4219 61.3899 66.4459L61.3936 66.2955C61.4608 63.6144 63.6139 61.4613 66.296 61.3947L66.4464 61.3909C67.4213 61.3664 68.2949 60.8475 68.7829 60.0032C69.2709 59.1589 69.2843 58.1429 68.8181 57.2853L68.7419 57.1445C67.464 54.7925 68.2507 51.8544 70.5323 50.456L70.6725 50.3701C71.5035 49.8603 72 48.9744 72 48C72 47.0256 71.5035 46.1397 70.6731 45.6304ZM69.5589 48.5504L69.4187 48.6363C66.1675 50.6283 65.0475 54.8128 66.8677 58.1627L66.944 58.3035C67.1003 58.5909 66.9904 58.8411 66.936 58.9355C66.8811 59.0293 66.7195 59.2496 66.392 59.2576L66.2416 59.2613C62.4224 59.3568 59.3563 62.4235 59.2608 66.2427L59.2571 66.3931C59.2485 66.72 59.0283 66.8821 58.9344 66.9365C58.84 66.9904 58.5899 67.1008 58.304 66.9451L58.1627 66.8683C54.8123 65.048 50.6277 66.1691 48.6357 69.4192L48.5499 69.5589C48.3797 69.8368 48.1088 69.8667 48 69.8667C47.8912 69.8667 47.6203 69.8368 47.4485 69.5563L47.3637 69.4187C46.0176 67.2208 43.6688 65.9968 41.2533 65.9968C40.0955 65.9968 38.9221 66.2779 37.8368 66.8677L37.6965 66.944C37.4096 67.0992 37.1595 66.9899 37.0651 66.9355C36.9707 66.8811 36.7504 66.7189 36.7424 66.3931L36.7387 66.2411C36.6432 62.4224 33.5771 59.3557 29.7589 59.2603L29.6069 59.2565C29.2805 59.2485 29.1184 59.0283 29.064 58.9344C29.0091 58.84 28.8992 58.5899 29.0544 58.3045L29.1323 58.1627C30.952 54.8128 29.832 50.6277 26.5808 48.6357L26.4416 48.5509C26.1637 48.3803 26.1333 48.1088 26.1333 48C26.1333 47.8912 26.1637 47.6197 26.4416 47.4491L26.5813 47.3637C29.8325 45.3717 30.9525 41.1872 29.1323 37.8373L29.056 37.6965C28.8997 37.4091 29.0096 37.1589 29.064 37.0645C29.1189 36.9707 29.2805 36.7504 29.608 36.7424L29.7584 36.7387C33.5776 36.6432 36.6437 33.5765 36.7392 29.7573L36.7429 29.6069C36.7515 29.28 36.9717 29.1179 37.0656 29.0635C37.1595 29.0091 37.4096 28.8987 37.696 29.0549L37.8373 29.1317C41.1883 30.952 45.3723 29.8315 47.3643 26.5808L47.4501 26.4411C47.6203 26.1632 47.8912 26.1333 48 26.1333C48.1088 26.1333 48.3797 26.1632 48.5515 26.4437L48.6363 26.5813C50.6277 29.8325 54.8133 30.952 58.1632 29.1317L58.3035 29.0555C58.5899 28.8992 58.84 29.0096 58.9349 29.064C59.0293 29.1184 59.2496 29.2805 59.2576 29.6064L59.2613 29.7584C59.3568 33.5771 62.4229 36.6437 66.2411 36.7392L66.3931 36.7429C66.7195 36.7509 66.8816 36.9712 66.936 37.0651C66.9909 37.1595 67.1008 37.4096 66.9456 37.6949L66.8677 37.8368C65.048 41.1867 66.168 45.3717 69.4192 47.3637L69.5584 47.4485C69.8363 47.6197 69.8667 47.8912 69.8667 48C69.8667 48.1088 69.8363 48.3803 69.5589 48.5504Z" fill="#5B5FF0"/>
    <path d="M59.4849 41.2731H53.7724V36.279C53.7724 34.3936 52.2385 32.8603 50.3537 32.8603H48.0022C47.4134 32.8603 46.9356 33.3382 46.9356 33.927V37.8902L43.174 43.7131C42.99 43.9712 42.8326 44.2086 42.6881 44.4379C42.4502 44.3648 42.2022 44.3136 41.9404 44.3136H35.8161C34.4033 44.3136 33.2534 45.463 33.2534 46.8758V56.3104C33.2534 57.7232 34.4028 58.8731 35.8161 58.8731H41.9398C42.5734 58.8731 43.1462 58.6336 43.5942 58.2512C44.1515 58.559 44.782 58.7291 45.4332 58.7291H56.7739C58.5723 58.7291 60.0353 57.2662 60.0353 55.4678C60.0353 55.2598 60.015 55.0523 59.975 54.8491C61.0609 54.319 61.8113 53.2032 61.8113 51.9158C61.8113 51.5654 61.7537 51.2192 61.6433 50.8902C62.3292 50.2816 62.7462 49.3995 62.7462 48.4534C62.7462 47.728 62.51 47.0454 62.0902 46.4923C62.51 45.9382 62.7462 45.2555 62.7462 44.5312C62.7462 42.7344 61.2833 41.2731 59.4849 41.2731ZM41.9404 56.7398H35.8161C35.583 56.7398 35.3868 56.543 35.3868 56.3104V46.8758C35.3868 46.6432 35.583 46.447 35.8161 46.447H41.9398C42.1729 46.447 42.3692 46.6432 42.3692 46.8758V56.3104C42.3692 56.5435 42.1729 56.7398 41.9404 56.7398ZM59.9857 47.4491C60.3729 47.6416 60.6134 48.0262 60.6134 48.4528C60.6134 48.9222 60.3121 49.3478 59.8636 49.511C59.5366 49.6304 59.2881 49.9019 59.1985 50.239C59.1089 50.576 59.1894 50.935 59.414 51.2011C59.535 51.344 59.6785 51.584 59.6785 51.9152C59.6785 52.5376 59.1723 53.0432 58.5505 53.0432H58.4907C58.0806 53.0432 57.7067 53.2779 57.5291 53.6475C57.3515 54.0171 57.4017 54.4555 57.6572 54.776C57.7692 54.9158 57.9025 55.1494 57.9025 55.4672C57.9025 56.0896 57.3964 56.5952 56.7745 56.5952H45.4337C45.0971 56.5952 44.7756 56.4891 44.503 56.3051V46.8758C44.503 46.5259 44.4316 46.1931 44.3041 45.8891C44.4684 45.6027 44.6726 45.2854 44.9382 44.912L48.8982 38.7835C49.0097 38.6112 49.0689 38.4102 49.0689 38.2048V34.9936H50.3537C51.0625 34.9936 51.639 35.5702 51.639 36.279V42.3398C51.639 42.9286 52.1169 43.4064 52.7057 43.4064H59.4849C60.1067 43.4064 60.6129 43.911 60.6129 44.5307C60.6129 44.9579 60.3707 45.3446 59.9809 45.5408C59.6198 45.7222 59.3921 46.0923 59.3932 46.4966C59.3942 46.9008 59.6241 47.2694 59.9857 47.4491Z" fill="#5B5FF0"/>
</svg>
