<svg width="96" height="100" viewBox="0 0 96 100" fill="none" xmlns="http://www.w3.org/2000/svg">
    <circle cx="48" cy="48" r="48" fill="#F8F8FD"/>
    <g filter="url(#filter0_d)">
        <path fill-rule="evenodd" clip-rule="evenodd" d="M28.5365 50.0649L28.0006 33.4921C27.9834 32.9556 28.3691 32.49 28.9018 32.4042C31.0359 32.0623 38.0271 30.6251 38.3881 26.4703C38.4262 26.0362 38.7261 25.6682 39.1456 25.5419L40.6392 25.0907C45.4539 23.6364 50.545 23.6364 55.3603 25.0907L56.8538 25.5419C57.2739 25.6682 57.5738 26.0362 57.6113 26.4703C57.9729 30.6251 64.9636 32.0623 67.0977 32.4042C67.6304 32.49 68.0166 32.9556 67.9995 33.4915L67.463 50.0985C67.4635 65.0801 49.1368 71.6667 48.3562 71.9397C48.2409 71.9797 48.1207 72 48 72C47.8793 72 47.7591 71.9797 47.6438 71.9403C46.8638 71.6667 28.5365 65.0801 28.5365 50.0649ZM41.2625 27.1321L40.4154 27.3881C39.6891 30.7377 36.0282 33.2297 30.1754 34.3475L30.6818 50.0303C30.6823 62.4814 45.4936 68.8115 48 69.7922C50.5064 68.8115 65.3177 62.4841 65.3177 50.0644L65.8246 34.3475C59.9718 33.2297 56.3104 30.7377 55.584 27.3881L54.7369 27.1321C50.3293 25.8016 45.6701 25.8016 41.2625 27.1321ZM47.5562 66.7088C43.2891 64.7825 33.3645 59.3041 33.3645 50.0644L33.3618 49.9263L32.953 37.2731C32.9375 36.7931 33.2465 36.3617 33.7084 36.2198C35.2593 35.7431 36.6568 35.1474 37.8617 34.4488C38.374 34.1512 39.0307 34.324 39.3289 34.8327C39.6277 35.3415 39.455 35.9948 38.9427 36.2913C37.8059 36.9504 36.5243 37.5253 35.1241 38.0042L35.5104 50.0479C35.5104 57.7725 43.9093 62.6473 47.9998 64.5623C49.5733 63.8253 51.7406 62.6681 53.8527 61.0767C54.3253 60.721 54.998 60.8133 55.3558 61.2826C55.7137 61.7519 55.6209 62.4212 55.1488 62.7769C52.673 64.6423 50.136 65.9451 48.4435 66.7088C48.3024 66.7722 48.1511 66.8042 47.9998 66.8042C47.8485 66.8042 47.6973 66.7728 47.5562 66.7088ZM41.5575 34.4088C42.5741 33.4947 43.4003 32.4751 44.0183 31.3717C46.6287 30.7947 49.3711 30.7947 51.9816 31.3717C53.6151 34.2877 56.6698 36.5654 60.8762 38.0047L60.4894 49.9876V50.065C60.4894 53.2716 59.0232 56.3236 56.1306 59.1356C55.7068 59.5473 55.6993 60.223 56.114 60.6437C56.3243 60.857 56.6027 60.9648 56.8811 60.9648C57.1515 60.9648 57.4224 60.864 57.6311 60.6608C60.9513 57.4323 62.6353 53.8673 62.6353 50.065L62.6347 50.0218L63.0467 37.2736C63.0623 36.7936 62.7533 36.3627 62.2914 36.2204C58.034 34.9111 55.0507 32.7503 53.6639 29.9713C53.5245 29.6913 53.268 29.486 52.9628 29.4103C49.7209 28.6056 46.2779 28.6056 43.036 29.4103C42.7313 29.486 42.4749 29.6908 42.3348 29.9713C41.8172 31.0086 41.0709 31.9695 40.1176 32.8265C39.6783 33.2217 39.6439 33.8963 40.0415 34.3331C40.4401 34.7704 41.1181 34.8034 41.5575 34.4088ZM54.039 41.397C54.3839 40.9175 55.054 40.8071 55.5357 41.149C56.018 41.4919 56.1296 42.158 55.7852 42.6363L47.4909 54.1793C47.3079 54.4347 47.0209 54.5968 46.7066 54.6224C46.677 54.6251 46.6475 54.6261 46.618 54.6261C46.3348 54.6261 46.0612 54.5147 45.8595 54.3136L40.3296 48.8171C39.9106 48.4006 39.9106 47.7254 40.3296 47.3089C40.748 46.8925 41.4277 46.8925 41.8467 47.3089L46.4807 51.9155L54.039 41.397Z" fill="#5B5FF0"/>
    </g>
    <defs>
        <filter id="filter0_d" x="4" y="12" width="88" height="88" filterUnits="userSpaceOnUse" color-interpolation-filters="sRGB">
            <feFlood flood-opacity="0" result="BackgroundImageFix"/>
            <feColorMatrix in="SourceAlpha" type="matrix" values="0 0 0 0 0 0 0 0 0 0 0 0 0 0 0 0 0 0 127 0"/>
            <feOffset dy="8"/>
            <feGaussianBlur stdDeviation="10"/>
            <feColorMatrix type="matrix" values="0 0 0 0 0.427451 0 0 0 0 0.443137 0 0 0 0 0.976471 0 0 0 0.4 0"/>
            <feBlend mode="normal" in2="BackgroundImageFix" result="effect1_dropShadow"/>
            <feBlend mode="normal" in="SourceGraphic" in2="effect1_dropShadow" result="shape"/>
        </filter>
    </defs>
</svg>
