<svg width="32" height="32" viewBox="0 0 32 32" fill="none" xmlns="http://www.w3.org/2000/svg">
    <path d="M16.8545 20.2667H11.3021C10.5653 20.2667 9.89342 20.1609 9.28661 19.9493C8.68846 19.7289 8.17267 19.416 7.73923 19.0105C7.31446 18.5962 6.98505 18.0937 6.75099 17.5031C6.51693 16.9036 6.3999 16.2248 6.3999 15.4667C6.3999 14.7526 6.52127 14.1047 6.76399 13.5229C7.01539 12.9323 7.36214 12.4254 7.80425 12.0022C8.24635 11.5791 8.76648 11.2529 9.36463 11.0237C9.97144 10.7857 10.6259 10.6667 11.3281 10.6667C12.0303 10.6667 12.6804 10.7857 13.2786 11.0237C13.8767 11.2529 14.3925 11.5791 14.826 12.0022C15.2681 12.4254 15.6105 12.9323 15.8532 13.5229C16.0959 14.1047 16.2173 14.7526 16.2173 15.4667C16.2173 15.8898 16.1696 16.2777 16.0743 16.6303C15.9789 16.9829 15.8532 17.3047 15.6972 17.5956C15.5498 17.8777 15.3764 18.1289 15.177 18.3493C14.9863 18.5609 14.787 18.7416 14.5789 18.8915V18.9179H16.8545V20.2667ZM11.3281 12.1609C10.886 12.1609 10.4699 12.2446 10.0798 12.4121C9.69837 12.5796 9.36896 12.8088 9.09156 13.0997C8.81416 13.3907 8.5931 13.7389 8.4284 14.1444C8.27236 14.5499 8.19434 14.9907 8.19434 15.4667C8.19434 15.9692 8.26803 16.4276 8.41539 16.8419C8.57143 17.2474 8.78382 17.5956 9.05255 17.8865C9.32995 18.1774 9.65936 18.4066 10.0408 18.5741C10.4222 18.7328 10.8427 18.8121 11.3021 18.8121C11.7529 18.8121 12.169 18.7328 12.5504 18.5741C12.9405 18.4066 13.2742 18.1774 13.5516 17.8865C13.829 17.5956 14.0458 17.2474 14.2018 16.8419C14.3578 16.4276 14.4359 15.9692 14.4359 15.4667C14.4359 14.9907 14.3622 14.5499 14.2148 14.1444C14.0674 13.7389 13.8551 13.3907 13.5777 13.0997C13.3089 12.8088 12.9838 12.5796 12.6024 12.4121C12.221 12.2446 11.7962 12.1609 11.3281 12.1609Z" fill="#5B5FF0"/>
    <path d="M18.6562 10.9047H21.855C22.2884 10.9047 22.7089 10.9532 23.1163 11.0502C23.5237 11.1383 23.8835 11.2882 24.1956 11.4997C24.5163 11.7113 24.772 11.989 24.9627 12.3328C25.1535 12.6766 25.2488 13.0953 25.2488 13.589C25.2488 14.2678 25.0581 14.8232 24.6767 15.2551C24.3039 15.6783 23.7925 15.9648 23.1423 16.1146L25.5999 20.2667H23.6234L21.4909 16.2997H20.2946V20.2667H18.6562V10.9047ZM21.6339 14.9378C21.868 14.9378 22.102 14.9201 22.3361 14.8849C22.5702 14.8496 22.7782 14.7835 22.9603 14.6865C23.151 14.5896 23.307 14.4529 23.4284 14.2766C23.5497 14.0915 23.6104 13.8579 23.6104 13.5758C23.6104 13.3201 23.5541 13.113 23.4414 12.9543C23.3287 12.7868 23.1856 12.6546 23.0123 12.5576C22.8389 12.4606 22.6395 12.3945 22.4141 12.3592C22.1974 12.324 21.985 12.3064 21.777 12.3064H20.2946V14.9378H21.6339Z" fill="#5B5FF0"/>
    <path fill-rule="evenodd" clip-rule="evenodd" d="M0 0.666667C0 0.298477 0.298477 0 0.666667 0H8.66667C9.03486 0 9.33333 0.298477 9.33333 0.666667C9.33333 1.03486 9.03486 1.33333 8.66667 1.33333H1.33333V8.66667C1.33333 9.03486 1.03486 9.33333 0.666667 9.33333C0.298477 9.33333 0 9.03486 0 8.66667V0.666667Z" fill="#5B5FF0"/>
    <path fill-rule="evenodd" clip-rule="evenodd" d="M0 31.3333C0 31.7015 0.298477 32 0.666667 32H8.66667C9.03486 32 9.33333 31.7015 9.33333 31.3333C9.33333 30.9651 9.03486 30.6667 8.66667 30.6667H1.33333V23.3333C1.33333 22.9651 1.03486 22.6667 0.666667 22.6667C0.298477 22.6667 0 22.9651 0 23.3333V31.3333Z" fill="#5B5FF0"/>
    <path fill-rule="evenodd" clip-rule="evenodd" d="M32 0.666667C32 0.298477 31.7015 0 31.3333 0H23.3333C22.9651 0 22.6667 0.298477 22.6667 0.666667C22.6667 1.03486 22.9651 1.33333 23.3333 1.33333H30.6667V8.66667C30.6667 9.03486 30.9651 9.33333 31.3333 9.33333C31.7015 9.33333 32 9.03486 32 8.66667V0.666667Z" fill="#5B5FF0"/>
    <path fill-rule="evenodd" clip-rule="evenodd" d="M32 31.3333C32 31.7015 31.7015 32 31.3333 32H23.3333C22.9651 32 22.6667 31.7015 22.6667 31.3333C22.6667 30.9651 22.9651 30.6667 23.3333 30.6667H30.6667V23.3333C30.6667 22.9651 30.9651 22.6667 31.3333 22.6667C31.7015 22.6667 32 22.9651 32 23.3333V31.3333Z" fill="#5B5FF0"/>
</svg>
