<svg width="56" height="56" viewBox="0 0 56 56" fill="none" xmlns="http://www.w3.org/2000/svg">
    <g filter="url(#filter0_d)">
        <path d="M28.8545 24.2666H23.3021C22.5653 24.2666 21.8934 24.1608 21.2866 23.9493C20.6885 23.7289 20.1727 23.4159 19.7392 23.0104C19.3145 22.5961 18.985 22.0936 18.751 21.503C18.5169 20.9035 18.3999 20.2248 18.3999 19.4666C18.3999 18.7526 18.5213 18.1046 18.764 17.5228C19.0154 16.9322 19.3621 16.4253 19.8042 16.0022C20.2464 15.579 20.7665 15.2529 21.3646 15.0237C21.9714 14.7856 22.6259 14.6666 23.3281 14.6666C24.0303 14.6666 24.6804 14.7856 25.2786 15.0237C25.8767 15.2529 26.3925 15.579 26.826 16.0022C27.2681 16.4253 27.6105 16.9322 27.8532 17.5228C28.0959 18.1046 28.2173 18.7526 28.2173 19.4666C28.2173 19.8898 28.1696 20.2776 28.0743 20.6303C27.9789 20.9829 27.8532 21.3046 27.6972 21.5956C27.5498 21.8776 27.3764 22.1289 27.177 22.3493C26.9863 22.5608 26.787 22.7416 26.5789 22.8914V22.9179H28.8545V24.2666ZM23.3281 16.1608C22.886 16.1608 22.4699 16.2446 22.0798 16.4121C21.6984 16.5796 21.369 16.8088 21.0916 17.0997C20.8142 17.3906 20.5931 17.7388 20.4284 18.1443C20.2724 18.5498 20.1943 18.9906 20.1943 19.4666C20.1943 19.9691 20.268 20.4275 20.4154 20.8418C20.5714 21.2473 20.7838 21.5956 21.0526 21.8865C21.33 22.1774 21.6594 22.4066 22.0408 22.5741C22.4222 22.7327 22.8427 22.8121 23.3021 22.8121C23.7529 22.8121 24.169 22.7327 24.5504 22.5741C24.9405 22.4066 25.2742 22.1774 25.5516 21.8865C25.829 21.5956 26.0458 21.2473 26.2018 20.8418C26.3578 20.4275 26.4359 19.9691 26.4359 19.4666C26.4359 18.9906 26.3622 18.5498 26.2148 18.1443C26.0674 17.7388 25.8551 17.3906 25.5777 17.0997C25.3089 16.8088 24.9838 16.5796 24.6024 16.4121C24.221 16.2446 23.7962 16.1608 23.3281 16.1608Z" fill="#5B5FF0"/>
        <path d="M30.6562 14.9046H33.855C34.2884 14.9046 34.7089 14.9531 35.1163 15.0501C35.5237 15.1383 35.8835 15.2881 36.1956 15.4997C36.5163 15.7113 36.772 15.9889 36.9627 16.3327C37.1535 16.6765 37.2488 17.0953 37.2488 17.5889C37.2488 18.2677 37.0581 18.8231 36.6767 19.2551C36.3039 19.6782 35.7925 19.9647 35.1423 20.1146L37.5999 24.2666H35.6234L33.4909 20.2997H32.2946V24.2666H30.6562V14.9046ZM33.6339 18.9377C33.868 18.9377 34.102 18.9201 34.3361 18.8848C34.5702 18.8495 34.7782 18.7834 34.9603 18.6865C35.151 18.5895 35.307 18.4529 35.4284 18.2765C35.5497 18.0914 35.6104 17.8578 35.6104 17.5757C35.6104 17.3201 35.5541 17.1129 35.4414 16.9542C35.3287 16.7867 35.1856 16.6545 35.0123 16.5575C34.8389 16.4606 34.6395 16.3944 34.4141 16.3592C34.1974 16.3239 33.985 16.3063 33.777 16.3063H32.2946V18.9377H33.6339Z" fill="#5B5FF0"/>
        <path fill-rule="evenodd" clip-rule="evenodd" d="M12 4.66667C12 4.29848 12.2985 4 12.6667 4H20.6667C21.0349 4 21.3333 4.29848 21.3333 4.66667C21.3333 5.03486 21.0349 5.33333 20.6667 5.33333H13.3333V12.6667C13.3333 13.0349 13.0349 13.3333 12.6667 13.3333C12.2985 13.3333 12 13.0349 12 12.6667V4.66667Z" fill="#5B5FF0"/>
        <path fill-rule="evenodd" clip-rule="evenodd" d="M12 35.3333C12 35.7015 12.2985 36 12.6667 36H20.6667C21.0349 36 21.3333 35.7015 21.3333 35.3333C21.3333 34.9651 21.0349 34.6667 20.6667 34.6667H13.3333V27.3333C13.3333 26.9651 13.0349 26.6667 12.6667 26.6667C12.2985 26.6667 12 26.9651 12 27.3333V35.3333Z" fill="#5B5FF0"/>
        <path fill-rule="evenodd" clip-rule="evenodd" d="M44 4.66667C44 4.29848 43.7015 4 43.3333 4H35.3333C34.9651 4 34.6667 4.29848 34.6667 4.66667C34.6667 5.03486 34.9651 5.33333 35.3333 5.33333H42.6667V12.6667C42.6667 13.0349 42.9651 13.3333 43.3333 13.3333C43.7015 13.3333 44 13.0349 44 12.6667V4.66667Z" fill="#5B5FF0"/>
        <path fill-rule="evenodd" clip-rule="evenodd" d="M44 35.3333C44 35.7015 43.7015 36 43.3333 36H35.3333C34.9651 36 34.6667 35.7015 34.6667 35.3333C34.6667 34.9651 34.9651 34.6667 35.3333 34.6667H42.6667V27.3333C42.6667 26.9651 42.9651 26.6667 43.3333 26.6667C43.7015 26.6667 44 26.9651 44 27.3333V35.3333Z" fill="#5B5FF0"/>
    </g>
    <defs>
        <filter id="filter0_d" x="0" y="0" width="56" height="56" filterUnits="userSpaceOnUse" color-interpolation-filters="sRGB">
            <feFlood flood-opacity="0" result="BackgroundImageFix"/>
            <feColorMatrix in="SourceAlpha" type="matrix" values="0 0 0 0 0 0 0 0 0 0 0 0 0 0 0 0 0 0 127 0"/>
            <feOffset dy="8"/>
            <feGaussianBlur stdDeviation="6"/>
            <feColorMatrix type="matrix" values="0 0 0 0 0.427451 0 0 0 0 0.443137 0 0 0 0 0.976471 0 0 0 0.14 0"/>
            <feBlend mode="normal" in2="BackgroundImageFix" result="effect1_dropShadow"/>
            <feBlend mode="normal" in="SourceGraphic" in2="effect1_dropShadow" result="shape"/>
        </filter>
    </defs>
</svg>
