<svg width="96" height="96" viewBox="0 0 96 96" fill="none" xmlns="http://www.w3.org/2000/svg">
    <circle cx="48" cy="48" r="48" fill="#F8F8FD"/>
    <path d="M48.0235 55.7329C51.4283 55.7329 54.1989 52.9657 54.1989 49.564C54.1989 46.1622 51.4288 43.395 48.0235 43.395C44.6182 43.395 41.8481 46.1622 41.8481 49.564C41.8481 52.9657 44.6188 55.7329 48.0235 55.7329ZM48.0235 45.5261C50.2523 45.5261 52.0656 47.3375 52.0656 49.564C52.0656 51.7904 50.2523 53.6018 48.0235 53.6018C45.7948 53.6018 43.9815 51.7904 43.9815 49.564C43.9815 47.3375 45.7953 45.5261 48.0235 45.5261Z" fill="#5B5FF0"/>
    <path d="M65.8224 55.7329C69.2271 55.7329 71.9978 52.9657 71.9978 49.564C71.9978 46.1622 69.2277 43.395 65.8224 43.395C62.4171 43.395 59.647 46.1622 59.647 49.564C59.647 52.9657 62.4176 55.7329 65.8224 55.7329ZM65.8224 45.5261C68.0511 45.5261 69.8645 47.3375 69.8645 49.564C69.8645 51.7904 68.0511 53.6018 65.8224 53.6018C63.5936 53.6018 61.7803 51.7904 61.7803 49.564C61.7803 47.3375 63.5936 45.5261 65.8224 45.5261Z" fill="#5B5FF0"/>
    <path d="M68.3504 56.5805L64.9659 56.5795C63.4486 56.5795 62.006 57.2342 61.0081 58.3744L58.2146 61.5683C57.8412 61.9951 57.3207 62.2497 56.7628 62.3094V60.6914C56.7628 58.4271 54.9149 56.5853 52.6429 56.5853H51.9768C51.6002 56.5853 51.5784 56.5853 48.2093 59.4735L44.7224 56.8006C44.5139 56.6402 44.2568 56.5651 44.004 56.5827C43.8707 56.5859 43.3993 56.5853 43.3971 56.5853C41.131 56.5853 39.2873 58.4271 39.2873 60.6914V62.3153C38.7097 62.2668 38.1689 62.0084 37.7838 61.5678L34.9908 58.3744C33.993 57.2337 32.5503 56.5795 31.033 56.5795L27.649 56.5805C25.6373 56.5805 24 58.2135 24 60.221V69.9339C24 70.5221 24.4779 70.9994 25.0667 70.9994C25.6554 70.9994 26.1333 70.5221 26.1333 69.9339V60.221C26.1333 59.3882 26.8133 58.7116 27.6496 58.7116L31.0335 58.7106C31.9348 58.7106 32.7919 59.0989 33.385 59.7772L36.178 62.9701C37.0095 63.9211 38.211 64.4666 39.4745 64.4666H40.3497C40.3513 64.4666 40.3529 64.4671 40.355 64.4671C40.3572 64.4671 40.3582 64.4666 40.3604 64.4666H42.0979C42.5465 64.4666 42.9113 64.831 42.9113 65.2786C42.9113 65.7261 42.5465 66.091 42.0979 66.091H37.5961C37.2959 66.091 37.0073 65.9802 36.7844 65.7788L33.6511 62.9546C33.2143 62.5609 32.5396 62.5955 32.1444 63.0324C31.7498 63.4693 31.7844 64.1432 32.2218 64.5375L33.1503 65.3745V69.9339C33.1503 70.5221 33.6282 70.9994 34.217 70.9994C34.8057 70.9994 35.2836 70.5221 35.2836 69.9339V67.2978L35.3551 67.3622C35.698 67.6712 36.1001 67.8934 36.5295 68.0383V69.9344C36.5295 70.5226 37.0073 71 37.5961 71C38.1849 71 38.6628 70.5226 38.6628 69.9344V68.2226H42.0979C42.1571 68.2226 42.2147 68.2173 42.2729 68.2136C42.3166 68.2163 42.3587 68.2221 42.4073 68.2221H53.6445C53.6893 68.2221 53.7346 68.2184 53.7794 68.2163C53.8205 68.2179 53.861 68.2226 53.9026 68.2226H57.3378V69.9344C57.3378 70.5226 57.8156 71 58.4044 71C58.9932 71 59.4711 70.5226 59.4711 69.9344V68.0383C59.9004 67.8934 60.302 67.6712 60.6455 67.3622L60.7169 67.2978V69.9344C60.7169 70.5226 61.1948 71 61.7836 71C62.3724 71 62.8502 70.5226 62.8502 69.9344V65.3745L63.7788 64.5375C64.2161 64.1432 64.2508 63.4693 63.8561 63.0324C63.4614 62.5961 62.7873 62.5609 62.3494 62.9546L59.2156 65.7794C58.9927 65.9807 58.7041 66.0916 58.4039 66.0916H53.9021C53.4535 66.0916 53.0887 65.7266 53.0887 65.2791C53.0887 64.8316 53.4535 64.4671 53.9021 64.4671H55.6914C55.693 64.4671 55.6946 64.4677 55.6967 64.4677C55.6988 64.4677 55.6999 64.4671 55.702 64.4671H56.5255C57.789 64.4671 58.9905 63.9221 59.8215 62.9711L62.6145 59.7777C63.2076 59.1 64.0646 58.7111 64.9659 58.7111L68.3504 58.7121C69.1862 58.7121 69.8667 59.3893 69.8667 60.2215V69.9344C69.8667 70.5226 70.3446 71 70.9333 71C71.5221 71 72 70.5226 72 69.9344V60.221C71.9995 58.2135 70.3621 56.5805 68.3504 56.5805ZM50.9554 65.2786C50.9554 65.5604 50.9976 65.8326 51.0722 66.0905H44.9272C45.0019 65.8321 45.044 65.5604 45.044 65.2786C45.044 63.6557 43.7219 62.3355 42.0974 62.3355H41.4211V60.6914C41.4211 59.6024 42.3081 58.7164 43.3976 58.7164C43.499 58.7164 43.6056 58.7164 43.7139 58.7137L47.5981 61.6909C47.9976 61.9972 48.5592 61.9818 48.9421 61.6541C48.9421 61.6541 51.4941 59.4655 52.3704 58.7164H52.6434C53.7389 58.7164 54.6301 59.6024 54.6301 60.6914V62.3355H53.9026C52.2776 62.3355 50.9554 63.6557 50.9554 65.2786Z" fill="#5B5FF0"/>
    <path d="M30.1769 55.7329C33.5816 55.7329 36.3523 52.9657 36.3523 49.564C36.3523 46.1622 33.5822 43.395 30.1769 43.395C26.7716 43.395 24.0015 46.1622 24.0015 49.564C24.0015 52.9657 26.7721 55.7329 30.1769 55.7329ZM30.1769 45.5261C32.4056 45.5261 34.219 47.3375 34.219 49.564C34.219 51.7904 32.4056 53.6018 30.1769 53.6018C27.9481 53.6018 26.1348 51.7904 26.1348 49.564C26.1348 47.3375 27.9481 45.5261 30.1769 45.5261Z" fill="#5B5FF0"/>
    <path d="M35.3553 43.4328C35.55 43.5932 35.7899 43.6752 36.0326 43.6752C36.1963 43.6752 36.3617 43.6374 36.5137 43.5602L42.1472 40.713H44.032C48.6431 40.713 52.3946 36.9655 52.3946 32.3538C52.3946 27.7475 48.6431 24 44.032 24H39.072C34.4609 24 30.7095 27.7475 30.7095 32.3592C30.7095 35.7103 32.6631 38.6544 35.6598 39.9858L35.0049 42.322C34.8908 42.7296 35.0284 43.1648 35.3553 43.4328ZM32.8428 32.3538C32.8428 28.9228 35.6369 26.1311 39.072 26.1311H44.032C47.4666 26.1311 50.2613 28.9223 50.2613 32.3592C50.2613 35.7902 47.4666 38.5819 44.032 38.5819H41.8933C41.8816 38.5819 41.8704 38.5851 41.8592 38.5851C41.8213 38.5862 41.784 38.591 41.7461 38.5963C41.712 38.6011 41.6784 38.6054 41.6454 38.6134C41.6144 38.6208 41.584 38.6315 41.5531 38.6421C41.5152 38.6549 41.4779 38.6683 41.4416 38.6853C41.4315 38.6901 41.4214 38.6922 41.4112 38.697L37.7121 40.566L37.9755 39.6256C37.9841 39.5958 37.9857 39.566 37.991 39.5361C37.9979 39.4988 38.0075 39.4615 38.0107 39.4243C38.0134 39.3907 38.0107 39.3582 38.0102 39.3252C38.0097 39.2884 38.0113 39.2516 38.007 39.2154C38.0033 39.1818 37.9942 39.1504 37.9867 39.1174C37.9793 39.0827 37.9739 39.0481 37.9633 39.0146C37.9531 38.9826 37.9377 38.9522 37.9243 38.9213C37.9105 38.8899 37.8993 38.8574 37.8827 38.827C37.8662 38.7972 37.8459 38.7705 37.8267 38.7423C37.8075 38.7141 37.7899 38.6848 37.7681 38.6581C37.7462 38.6315 37.7201 38.6086 37.695 38.5841C37.671 38.5601 37.6486 38.5351 37.6219 38.5132C37.5942 38.4908 37.5627 38.4727 37.5329 38.4525C37.5046 38.4338 37.4779 38.4136 37.4475 38.3976C37.4155 38.3806 37.3803 38.3688 37.3457 38.355C37.3163 38.3433 37.2897 38.3278 37.2587 38.3188C34.6593 37.5276 32.8428 35.0768 32.8428 32.3538Z" fill="#5B5FF0"/>
    <path d="M40.3871 35.8148C40.5876 36.0156 40.8596 36.127 41.1412 36.127C41.1705 36.127 41.1999 36.1259 41.2292 36.1232C41.5417 36.0971 41.8271 35.9352 42.0089 35.6805L45.8766 30.2713C46.219 29.7929 46.1081 29.1274 45.6286 28.7854C45.1492 28.4428 44.4836 28.5536 44.1406 29.0331L41.0047 33.4184L38.849 31.2654C38.4324 30.8493 37.7567 30.8493 37.3407 31.2654C36.9242 31.6815 36.9242 32.356 37.3407 32.7721L40.3871 35.8148Z" fill="#5B5FF0"/>
</svg>
